<svg id="svg" version="1.1" xmlns="http://www.w3.org/2000/svg" xmlns:xlink="http://www.w3.org/1999/xlink" width="400" height="225" viewBox="0, 0, 400,225"><g id="svgg"><path id="path0" d="M97.870 99.981 C 88.136 102.170,83.816 113.371,89.746 121.042 C 96.044 129.187,109.245 128.030,113.727 118.940 C 118.807 108.638,109.398 97.389,97.870 99.981 M97.147 105.193 C 99.906 106.460,101.447 110.284,100.551 113.646 C 98.515 121.284,89.583 119.570,89.583 111.540 C 89.583 106.777,93.478 103.509,97.147 105.193 M104.333 160.667 C 104.528 160.861,104.639 160.861,104.833 160.667 C 105.028 160.472,104.972 160.417,104.583 160.417 C 104.194 160.417,104.139 160.472,104.333 160.667 " stroke="none" fill="#f9fafb" fill-rule="evenodd"></path><path id="path1" d="M99.271 85.544 C 94.425 86.052,91.256 86.830,85.805 88.851 C 82.285 90.155,75.665 94.696,72.692 97.844 C 62.866 108.248,59.886 122.112,64.638 135.313 L 64.938 136.146 102.541 136.198 L 140.145 136.251 140.475 135.469 C 147.836 118.055,137.505 95.777,118.750 88.623 C 118.005 88.339,116.927 87.927,116.354 87.708 C 112.312 86.164,103.728 85.077,99.271 85.544 M162.604 96.313 C 160.833 96.763,157.716 98.135,157.286 98.653 C 157.127 98.844,160.283 102.674,162.926 105.498 C 163.025 105.603,163.379 105.449,163.747 105.139 C 166.670 102.679,170.589 104.312,171.787 108.490 C 171.844 108.688,173.027 108.750,176.793 108.750 L 181.724 108.750 181.586 107.572 C 180.952 102.178,177.354 97.929,172.083 96.346 C 170.084 95.745,164.908 95.727,162.604 96.313 M332.083 102.198 L 332.083 107.728 331.322 106.989 C 328.567 104.313,322.524 104.297,319.449 106.956 C 314.623 111.131,314.550 121.949,319.316 126.753 C 322.447 129.908,328.367 130.370,331.275 127.685 C 332.353 126.690,332.292 126.682,332.292 127.813 L 332.292 128.750 336.667 128.750 L 341.042 128.750 341.042 112.708 L 341.042 96.667 336.563 96.667 L 332.083 96.667 332.083 102.198 M155.189 100.581 C 150.423 105.664,149.345 114.872,152.740 121.486 C 154.108 124.150,157.001 127.208,157.728 126.758 C 157.883 126.663,157.927 126.690,157.842 126.827 C 157.501 127.378,161.202 129.026,163.628 129.403 C 172.930 130.848,180.887 125.742,181.673 117.822 C 181.877 115.770,182.024 115.833,176.991 115.836 C 171.716 115.840,172.022 115.746,171.449 117.528 C 170.123 121.653,165.777 122.838,163.045 119.818 C 162.829 119.580,162.557 119.444,162.440 119.516 C 162.323 119.589,162.285 119.555,162.355 119.441 C 162.425 119.328,162.187 118.540,161.827 117.690 C 160.574 114.740,160.956 108.365,162.503 106.398 L 162.896 105.898 160.072 102.689 C 158.519 100.923,157.133 99.357,156.991 99.207 C 156.781 98.986,156.442 99.245,155.189 100.581 M103.960 99.896 C 114.786 102.173,118.860 114.648,111.275 122.293 C 102.695 130.942,87.706 125.635,87.145 113.750 C 86.724 104.838,95.008 98.013,103.960 99.896 M193.958 105.145 C 185.589 106.556,181.613 117.105,186.659 124.513 C 191.484 131.595,204.977 130.869,208.574 123.333 C 211.734 116.714,209.512 108.968,203.672 106.242 C 201.282 105.126,196.962 104.638,193.958 105.145 M226.563 105.280 C 225.283 105.704,224.081 106.375,223.525 106.974 C 222.631 107.937,222.367 107.986,222.462 107.172 C 222.508 106.780,222.486 106.223,222.414 105.934 L 222.282 105.408 217.964 105.465 L 213.646 105.521 213.592 117.135 L 213.538 128.750 218.111 128.750 L 222.683 128.750 222.748 121.615 C 222.827 112.890,223.037 112.297,226.047 112.293 C 228.597 112.290,228.625 112.384,228.750 121.250 L 228.854 128.646 233.385 128.702 L 237.917 128.758 237.917 119.937 C 237.917 109.288,237.824 108.822,235.281 106.750 C 233.304 105.140,229.117 104.434,226.563 105.280 M250.560 105.298 C 248.996 105.718,248.995 105.701,250.807 108.861 L 252.463 111.747 254.131 111.759 C 256.067 111.773,256.648 112.132,257.145 113.623 L 257.430 114.479 261.637 114.536 C 266.442 114.600,266.221 114.693,265.830 112.773 C 264.673 107.100,257.294 103.487,250.560 105.298 M277.813 105.222 C 271.852 106.686,268.867 110.682,268.874 117.188 C 268.883 125.990,276.173 131.282,285.195 129.034 C 296.713 126.165,297.575 109.599,286.413 105.611 C 284.933 105.082,279.401 104.832,277.813 105.222 M309.559 105.679 C 308.700 106.123,308.004 106.680,307.538 107.293 C 306.584 108.550,306.563 108.542,306.563 106.927 L 306.563 105.521 302.188 105.521 L 297.813 105.521 297.813 117.083 L 297.813 128.646 302.327 128.702 L 306.841 128.758 306.926 122.869 C 307.034 115.436,307.430 114.160,309.923 113.208 C 310.821 112.865,314.037 112.876,315.128 113.226 C 315.751 113.426,315.827 112.977,315.830 109.101 C 315.834 104.803,315.964 105.000,313.136 105.000 C 310.985 105.000,310.803 105.035,309.559 105.679 M246.979 106.815 C 239.678 111.548,239.671 123.088,246.966 127.478 C 248.303 128.283,250.855 129.235,251.064 129.006 C 251.140 128.923,251.533 127.401,251.937 125.625 L 252.671 122.396 252.089 121.931 C 250.818 120.916,250.276 116.290,251.154 113.950 C 251.698 112.499,251.663 112.366,249.896 109.223 C 248.066 105.969,248.162 106.048,246.979 106.815 M198.908 112.082 C 200.426 113.007,200.971 115.157,200.609 118.781 C 200.290 121.961,198.465 123.251,195.666 122.275 C 193.083 121.374,193.049 113.418,195.622 112.052 C 196.582 111.542,198.045 111.556,198.908 112.082 M283.217 112.139 C 285.510 113.439,285.733 120.035,283.549 121.979 C 282.805 122.641,280.027 122.585,279.290 121.893 C 277.867 120.556,277.424 115.884,278.494 113.501 C 279.271 111.771,281.457 111.141,283.217 112.139 M330.591 112.268 C 332.910 113.919,332.862 120.653,330.521 122.128 C 329.587 122.716,327.106 122.582,326.384 121.903 C 324.179 119.831,324.409 113.607,326.744 112.174 C 327.851 111.495,329.564 111.536,330.591 112.268 M257.760 119.302 C 257.617 119.361,257.500 119.594,257.500 119.820 C 257.500 121.110,256.261 122.285,254.698 122.476 L 253.646 122.604 252.976 125.521 C 252.607 127.125,252.251 128.660,252.184 128.931 L 252.063 129.425 254.729 129.319 C 259.321 129.137,262.380 127.564,264.642 124.221 C 265.495 122.961,266.309 120.695,266.212 119.851 L 266.146 119.271 262.083 119.233 C 259.849 119.212,257.904 119.243,257.760 119.302 M99.088 160.583 C 99.032 160.675,99.315 160.772,99.718 160.799 C 100.181 160.831,100.402 160.769,100.317 160.633 C 100.160 160.379,99.238 160.342,99.088 160.583 M100.992 160.772 C 101.251 160.822,101.626 160.820,101.825 160.768 C 102.025 160.716,101.813 160.675,101.354 160.678 C 100.896 160.680,100.733 160.723,100.992 160.772 M103.385 160.769 C 103.586 160.821,103.914 160.821,104.115 160.769 C 104.315 160.716,104.151 160.673,103.750 160.673 C 103.349 160.673,103.185 160.716,103.385 160.769 " stroke="none" fill="#54d3e3" fill-rule="evenodd"></path><path id="path2" d="M97.292 84.570 C 94.967 84.896,91.976 85.481,91.875 85.631 C 91.818 85.715,91.208 85.896,90.521 86.032 C 89.250 86.283,87.667 86.820,86.123 87.526 C 85.652 87.741,85.193 87.917,85.102 87.917 C 84.846 87.917,80.969 89.866,80.676 90.143 C 80.532 90.278,80.227 90.449,79.999 90.521 C 79.770 90.594,79.583 90.725,79.583 90.814 C 79.583 90.902,79.336 91.087,79.035 91.225 C 77.072 92.119,71.435 97.201,69.322 99.982 C 68.835 100.622,68.320 101.270,68.177 101.421 C 68.034 101.573,67.917 101.777,67.917 101.875 C 67.917 101.973,67.788 102.182,67.631 102.339 C 67.474 102.496,67.186 102.901,66.992 103.239 C 66.797 103.578,66.412 104.229,66.136 104.688 C 65.859 105.146,65.528 105.755,65.399 106.042 C 65.269 106.328,65.080 106.703,64.977 106.875 C 64.875 107.047,64.691 107.420,64.569 107.705 C 64.448 107.990,64.219 108.506,64.062 108.851 C 63.905 109.197,63.659 109.901,63.515 110.417 C 63.371 110.932,63.141 111.542,63.005 111.771 C 62.869 112.000,62.695 112.605,62.620 113.115 C 62.544 113.625,62.383 114.161,62.263 114.306 C 62.142 114.451,61.944 115.604,61.821 116.868 C 61.698 118.132,61.519 119.167,61.424 119.167 C 61.184 119.167,61.204 126.378,61.445 126.826 C 61.553 127.025,61.742 128.167,61.866 129.365 C 61.990 130.563,62.186 131.601,62.301 131.673 C 62.417 131.744,62.568 132.287,62.639 132.879 C 62.709 133.471,62.894 134.061,63.050 134.191 C 63.206 134.320,63.335 134.579,63.336 134.765 C 63.338 134.952,63.482 135.479,63.656 135.938 C 63.831 136.396,64.026 136.928,64.091 137.121 C 64.243 137.576,64.792 137.790,64.792 137.394 C 64.792 137.132,69.788 137.092,102.930 137.092 C 142.000 137.092,141.458 137.100,141.458 136.495 C 141.458 136.300,141.641 135.798,141.865 135.380 C 142.089 134.963,142.336 134.144,142.413 133.560 C 142.490 132.977,142.623 132.500,142.707 132.500 C 142.791 132.500,142.971 131.914,143.107 131.198 C 143.244 130.482,143.458 129.568,143.583 129.167 C 144.400 126.549,143.718 114.014,142.722 113.333 C 142.638 113.276,142.460 112.672,142.325 111.991 C 142.191 111.310,142.001 110.700,141.904 110.637 C 141.807 110.573,141.610 110.029,141.468 109.427 C 141.325 108.826,141.124 108.333,141.021 108.333 C 140.918 108.333,140.833 108.238,140.833 108.122 C 140.833 107.933,139.706 105.563,139.094 104.467 C 138.548 103.489,136.759 100.925,136.514 100.771 C 136.369 100.679,136.250 100.505,136.250 100.384 C 136.250 100.146,135.924 99.760,134.219 97.974 C 133.617 97.344,133.125 96.746,133.125 96.644 C 133.125 96.542,133.047 96.458,132.952 96.458 C 132.857 96.458,132.316 96.013,131.750 95.469 C 130.366 94.138,129.162 93.125,128.964 93.125 C 128.874 93.125,128.682 92.982,128.537 92.807 C 128.208 92.410,126.503 91.250,126.250 91.250 C 126.147 91.250,125.987 91.133,125.896 90.989 C 125.804 90.846,125.448 90.588,125.104 90.417 C 124.760 90.245,124.432 90.051,124.375 89.984 C 124.318 89.918,123.240 89.375,121.979 88.777 C 120.719 88.179,119.422 87.554,119.098 87.387 C 118.773 87.220,118.351 87.083,118.160 87.082 C 117.969 87.081,117.531 86.934,117.188 86.754 C 116.844 86.575,115.859 86.283,115.000 86.106 C 114.141 85.929,113.391 85.716,113.333 85.633 C 113.276 85.550,112.432 85.332,111.458 85.148 C 110.484 84.964,109.453 84.753,109.167 84.679 C 108.379 84.477,98.602 84.387,97.292 84.570 M106.667 85.408 C 110.482 85.931,111.531 86.123,113.542 86.672 C 134.542 92.406,146.880 111.871,141.948 131.487 C 141.376 133.762,140.690 135.812,140.372 136.198 C 140.045 136.595,65.151 136.579,64.821 136.181 C 62.706 133.633,61.602 121.171,62.985 115.455 C 66.454 101.115,76.814 90.696,91.591 86.689 C 93.638 86.134,94.624 85.949,98.333 85.425 C 99.947 85.197,105.052 85.186,106.667 85.408 M93.638 105.222 C 90.233 106.212,88.646 111.848,90.738 115.521 C 93.417 120.223,99.350 118.771,100.406 113.154 C 101.347 108.148,97.814 104.007,93.638 105.222 " stroke="none" fill="#272839" fill-rule="evenodd"></path><path id="path3" d="M100.999 85.363 C 101.950 85.402,103.450 85.402,104.333 85.363 C 105.215 85.324,104.438 85.292,102.604 85.293 C 100.771 85.293,100.049 85.325,100.999 85.363 M74.466 95.885 L 73.854 96.563 74.531 95.951 C 75.162 95.380,75.304 95.208,75.143 95.208 C 75.107 95.208,74.803 95.513,74.466 95.885 M130.000 95.274 C 130.000 95.309,130.305 95.614,130.677 95.951 L 131.354 96.563 130.742 95.885 C 130.172 95.254,130.000 95.113,130.000 95.274 M71.667 98.646 C 71.161 99.161,70.793 99.583,70.851 99.583 C 70.908 99.583,71.369 99.161,71.875 98.646 C 72.381 98.130,72.748 97.708,72.691 97.708 C 72.634 97.708,72.173 98.130,71.667 98.646 M89.872 109.467 C 89.808 109.632,89.793 109.937,89.838 110.144 C 89.889 110.379,89.960 110.267,90.028 109.844 C 90.141 109.134,90.068 108.956,89.872 109.467 M89.792 113.425 C 89.792 113.705,89.868 113.981,89.962 114.039 C 90.056 114.097,90.092 113.868,90.043 113.531 C 89.934 112.786,89.792 112.727,89.792 113.425 M91.042 116.315 C 91.042 116.351,91.346 116.656,91.719 116.992 L 92.396 117.604 91.784 116.927 C 91.214 116.296,91.042 116.154,91.042 116.315 M142.983 122.917 C 142.983 123.661,143.021 123.966,143.067 123.594 C 143.114 123.221,143.114 122.612,143.067 122.240 C 143.021 121.867,142.983 122.172,142.983 122.917 M83.681 136.406 C 94.013 136.436,110.982 136.436,121.390 136.406 C 131.797 136.376,123.344 136.352,102.604 136.352 C 81.865 136.352,73.349 136.376,83.681 136.406 " stroke="none" fill="#3b747c" fill-rule="evenodd"></path><path id="path4" d="M98.909 85.564 C 99.168 85.614,99.543 85.612,99.742 85.560 C 99.941 85.508,99.729 85.467,99.271 85.469 C 98.813 85.472,98.650 85.514,98.909 85.564 M105.575 85.564 C 105.834 85.614,106.209 85.612,106.409 85.560 C 106.608 85.508,106.396 85.467,105.938 85.469 C 105.479 85.472,105.316 85.514,105.575 85.564 M129.375 94.857 C 129.375 94.893,129.680 95.197,130.052 95.534 L 130.729 96.146 130.117 95.469 C 129.547 94.838,129.375 94.696,129.375 94.857 M135.208 101.042 C 135.571 101.500,135.915 101.875,135.973 101.875 C 136.030 101.875,135.780 101.500,135.417 101.042 C 135.054 100.583,134.710 100.208,134.652 100.208 C 134.595 100.208,134.845 100.583,135.208 101.042 M93.646 105.000 C 93.115 105.228,93.663 105.228,94.375 105.000 C 94.794 104.866,94.814 104.832,94.479 104.827 C 94.250 104.824,93.875 104.902,93.646 105.000 M66.771 105.625 C 66.593 105.969,66.495 106.250,66.552 106.250 C 66.609 106.250,66.801 105.969,66.979 105.625 C 67.157 105.281,67.255 105.000,67.198 105.000 C 67.141 105.000,66.949 105.281,66.771 105.625 M100.212 109.080 C 100.213 109.299,100.310 109.620,100.426 109.792 C 100.581 110.020,100.600 109.936,100.498 109.479 C 100.327 108.713,100.207 108.547,100.212 109.080 M100.687 111.667 C 100.687 112.297,100.726 112.555,100.774 112.240 C 100.822 111.924,100.822 111.409,100.774 111.094 C 100.726 110.779,100.687 111.036,100.687 111.667 M142.790 122.917 C 142.790 124.464,142.823 125.096,142.863 124.323 C 142.903 123.549,142.903 122.284,142.863 121.510 C 142.823 120.737,142.790 121.370,142.790 122.917 M101.667 160.575 C 102.153 160.670,102.160 160.688,101.771 160.845 C 101.482 160.961,101.706 161.016,102.500 161.024 C 103.240 161.031,103.543 160.970,103.355 160.851 C 103.122 160.703,103.142 160.647,103.459 160.566 C 103.676 160.510,103.245 160.467,102.500 160.469 C 101.755 160.472,101.380 160.519,101.667 160.575 " stroke="none" fill="#438390" fill-rule="evenodd"></path></g></svg>