<svg id="svg" version="1.1" xmlns="http://www.w3.org/2000/svg" xmlns:xlink="http://www.w3.org/1999/xlink" width="400" height="225" viewBox="0, 0, 400,225"><g id="svgg"><path id="path0" d="M109.313 98.110 C 99.602 100.292,95.283 111.508,101.205 119.167 C 107.502 127.312,120.704 126.155,125.185 117.065 C 130.269 106.756,120.857 95.515,109.313 98.110 M108.605 103.318 C 111.365 104.585,112.905 108.409,112.009 111.771 C 109.970 119.422,101.042 117.708,101.042 109.665 C 101.042 104.902,104.937 101.634,108.605 103.318 M115.792 158.792 C 115.986 158.986,116.097 158.986,116.292 158.792 C 116.486 158.597,116.431 158.542,116.042 158.542 C 115.653 158.542,115.597 158.597,115.792 158.792 " stroke="none" fill="#fafbfb" fill-rule="evenodd"></path><path id="path1" d="M110.729 83.669 C 105.884 84.177,102.715 84.955,97.263 86.976 C 93.734 88.284,87.000 92.905,84.163 95.964 C 74.245 106.662,71.331 120.198,76.096 133.438 L 76.396 134.271 113.999 134.323 L 151.603 134.376 151.933 133.594 C 154.994 126.353,154.931 115.711,151.780 108.021 C 150.907 105.889,148.715 101.791,147.880 100.729 C 142.197 93.499,136.881 89.293,130.208 86.748 C 129.464 86.464,128.385 86.051,127.813 85.832 C 127.240 85.612,126.396 85.340,125.938 85.228 C 125.479 85.115,124.729 84.925,124.271 84.804 C 121.050 83.956,113.796 83.348,110.729 83.669 M205.126 90.121 C 204.961 90.552,204.961 132.781,205.126 133.212 C 205.320 133.716,235.097 133.716,235.290 133.212 C 235.454 132.785,235.450 123.792,235.286 123.179 L 235.161 122.713 225.758 122.658 L 216.354 122.604 216.354 119.583 L 216.354 116.563 225.000 116.458 L 233.646 116.354 233.646 111.667 L 233.646 106.979 225.000 106.875 L 216.354 106.771 216.354 103.646 L 216.354 100.521 225.833 100.417 L 235.313 100.313 235.368 95.338 C 235.408 91.844,235.354 90.279,235.187 90.078 C 234.801 89.613,205.305 89.655,205.126 90.121 M279.417 90.042 C 279.083 90.375,279.056 119.742,279.388 121.210 C 279.852 123.261,280.070 124.069,280.212 124.271 C 280.293 124.385,280.416 124.718,280.485 125.009 C 281.380 128.768,286.912 132.689,293.089 133.942 C 294.522 134.232,299.180 134.232,300.288 133.942 C 300.760 133.818,301.521 133.622,301.979 133.507 C 307.107 132.213,311.233 128.829,312.904 124.544 C 313.988 121.763,313.984 121.840,313.917 105.313 L 313.854 89.896 308.333 89.896 L 302.813 89.896 302.708 104.896 C 302.594 121.397,302.655 120.645,301.300 122.064 C 299.130 124.335,294.123 124.318,291.889 122.032 C 290.608 120.723,290.625 120.953,290.625 104.980 C 290.625 96.989,290.568 90.302,290.499 90.121 C 290.334 89.692,279.842 89.617,279.417 90.042 M165.833 111.670 L 165.833 133.340 171.406 133.285 L 176.979 133.229 177.083 126.563 L 177.188 119.896 177.917 119.896 C 178.627 119.896,178.748 120.032,182.538 125.104 C 184.678 127.969,186.553 130.472,186.704 130.667 C 186.855 130.863,187.351 131.542,187.806 132.178 L 188.633 133.333 195.450 133.333 C 199.199 133.333,202.308 133.263,202.359 133.177 C 202.432 133.052,196.555 125.531,193.287 121.567 C 190.973 118.759,190.815 118.333,192.087 118.333 C 193.208 118.333,196.395 115.300,197.445 113.234 C 201.439 105.372,199.072 95.411,192.383 91.934 C 188.910 90.129,187.815 90.000,175.990 90.000 L 165.833 90.000 165.833 111.670 M240.833 111.667 L 240.833 133.333 249.010 133.360 C 261.153 133.401,261.130 133.402,264.583 132.283 C 267.715 131.268,271.153 128.436,272.426 125.823 C 273.879 122.843,273.854 123.084,273.854 111.667 L 273.854 101.354 273.273 99.688 C 271.790 95.437,268.195 92.150,263.646 90.886 C 260.464 90.002,260.436 90.000,250.518 90.000 L 240.833 90.000 240.833 111.667 M316.667 90.231 C 316.667 90.483,317.791 92.705,318.342 93.542 C 318.531 93.828,319.013 94.672,319.415 95.417 C 320.213 96.897,320.211 96.893,323.750 103.229 C 325.094 105.635,326.441 108.049,326.743 108.594 C 327.045 109.138,327.526 110.000,327.813 110.509 C 328.402 111.557,328.456 112.020,328.053 112.610 C 327.899 112.836,327.492 113.536,327.149 114.167 C 326.805 114.797,325.728 116.719,324.755 118.438 C 323.781 120.156,322.702 122.078,322.356 122.708 C 321.768 123.779,321.129 124.924,320.145 126.667 C 319.918 127.068,319.496 127.818,319.207 128.333 C 318.918 128.849,318.496 129.599,318.268 130.000 C 317.078 132.102,316.667 132.899,316.667 133.105 C 316.667 133.266,318.581 133.333,323.113 133.333 L 329.560 133.333 333.060 126.354 C 334.984 122.516,336.654 119.378,336.769 119.381 C 336.885 119.384,337.498 120.439,338.133 121.725 C 338.768 123.011,340.360 126.148,341.673 128.698 L 344.058 133.333 350.454 133.333 C 353.972 133.333,356.897 133.259,356.953 133.167 C 357.009 133.076,356.663 132.329,356.184 131.506 C 354.984 129.447,354.184 128.018,347.812 116.563 C 347.493 115.990,346.965 115.052,346.638 114.479 C 346.312 113.906,345.846 113.051,345.603 112.579 L 345.162 111.721 345.998 110.183 C 346.856 108.605,348.237 106.113,349.274 104.271 C 349.895 103.167,352.593 98.314,353.559 96.563 C 353.875 95.990,354.791 94.349,355.593 92.917 C 356.396 91.484,356.984 90.241,356.899 90.153 C 356.813 90.065,353.892 90.019,350.406 90.049 L 344.069 90.104 343.569 91.042 C 343.295 91.557,341.684 94.695,339.990 98.015 C 338.296 101.335,336.832 104.073,336.736 104.101 C 336.641 104.129,334.979 100.968,333.043 97.076 L 329.524 90.000 323.095 90.000 C 318.524 90.000,316.667 90.067,316.667 90.231 M115.418 98.021 C 126.244 100.298,130.318 112.773,122.733 120.418 C 114.153 129.067,99.164 123.760,98.603 111.875 C 98.182 102.971,106.475 96.140,115.418 98.021 M185.784 101.000 C 189.023 102.713,189.084 107.642,185.890 109.520 C 184.911 110.095,184.835 110.105,180.990 110.176 L 177.083 110.247 177.083 105.313 L 177.083 100.378 180.990 100.454 C 184.559 100.523,184.973 100.571,185.784 101.000 M260.231 100.971 C 262.536 102.022,262.706 102.758,262.706 111.667 C 262.706 122.470,262.534 122.743,255.729 122.789 L 252.188 122.813 252.133 111.875 C 252.104 105.859,252.128 100.811,252.187 100.656 C 252.379 100.155,259.011 100.415,260.231 100.971 M110.547 158.708 C 110.490 158.800,110.773 158.897,111.176 158.924 C 111.639 158.956,111.860 158.894,111.776 158.758 C 111.619 158.504,110.696 158.467,110.547 158.708 M112.450 158.897 C 112.709 158.947,113.084 158.945,113.284 158.893 C 113.483 158.841,113.271 158.800,112.813 158.803 C 112.354 158.805,112.191 158.848,112.450 158.897 M114.844 158.894 C 115.044 158.946,115.372 158.946,115.573 158.894 C 115.773 158.841,115.609 158.798,115.208 158.798 C 114.807 158.798,114.643 158.841,114.844 158.894 " stroke="none" fill="#54d3e3" fill-rule="evenodd"></path><path id="path2" d="M108.750 82.695 C 106.426 83.021,103.434 83.606,103.333 83.756 C 103.276 83.840,102.667 84.021,101.979 84.157 C 100.708 84.408,99.125 84.945,97.581 85.651 C 97.110 85.866,96.651 86.042,96.561 86.042 C 96.304 86.042,92.427 87.991,92.134 88.268 C 91.990 88.403,91.686 88.574,91.457 88.646 C 91.229 88.719,91.042 88.850,91.042 88.939 C 91.042 89.027,90.795 89.212,90.493 89.350 C 88.530 90.244,82.893 95.326,80.780 98.107 C 80.294 98.747,79.779 99.395,79.635 99.546 C 79.492 99.698,79.375 99.902,79.375 100.000 C 79.375 100.098,79.247 100.307,79.090 100.464 C 78.932 100.621,78.645 101.026,78.450 101.364 C 78.256 101.703,77.870 102.354,77.594 102.813 C 77.318 103.271,76.986 103.880,76.857 104.167 C 76.728 104.453,76.538 104.828,76.436 105.000 C 76.333 105.172,76.149 105.545,76.028 105.830 C 75.906 106.115,75.678 106.631,75.521 106.976 C 75.363 107.322,75.117 108.026,74.973 108.542 C 74.829 109.057,74.600 109.667,74.464 109.896 C 74.327 110.125,74.154 110.730,74.078 111.240 C 74.002 111.750,73.842 112.286,73.721 112.431 C 73.601 112.576,73.402 113.729,73.279 114.993 C 73.156 116.257,72.978 117.292,72.882 117.292 C 72.642 117.292,72.662 124.503,72.904 124.951 C 73.011 125.150,73.200 126.292,73.324 127.490 C 73.448 128.688,73.644 129.726,73.759 129.798 C 73.875 129.869,74.027 130.412,74.097 131.004 C 74.167 131.596,74.352 132.186,74.508 132.316 C 74.664 132.445,74.793 132.704,74.795 132.890 C 74.797 133.077,74.941 133.604,75.115 134.063 C 75.289 134.521,75.484 135.053,75.549 135.246 C 75.701 135.701,76.250 135.915,76.250 135.519 C 76.250 135.257,81.247 135.217,114.388 135.217 C 153.458 135.217,152.917 135.225,152.917 134.620 C 152.917 134.425,153.100 133.923,153.324 133.505 C 153.548 133.088,153.794 132.269,153.871 131.685 C 153.949 131.102,154.081 130.625,154.165 130.625 C 154.249 130.625,154.430 130.039,154.566 129.323 C 154.702 128.607,154.916 127.693,155.041 127.292 C 155.858 124.674,155.177 112.139,154.181 111.458 C 154.097 111.401,153.918 110.797,153.784 110.116 C 153.649 109.435,153.460 108.825,153.362 108.762 C 153.265 108.698,153.069 108.154,152.926 107.552 C 152.783 106.951,152.582 106.458,152.479 106.458 C 152.376 106.458,152.292 106.363,152.292 106.247 C 152.292 106.058,151.164 103.688,150.552 102.592 C 150.006 101.614,148.217 99.050,147.972 98.896 C 147.827 98.804,147.708 98.630,147.708 98.509 C 147.708 98.271,147.383 97.885,145.677 96.099 C 145.076 95.469,144.583 94.871,144.583 94.769 C 144.583 94.667,144.506 94.583,144.410 94.583 C 144.315 94.583,143.774 94.138,143.209 93.594 C 141.824 92.263,140.621 91.250,140.422 91.250 C 140.333 91.250,140.141 91.107,139.995 90.932 C 139.666 90.535,137.962 89.375,137.708 89.375 C 137.605 89.375,137.446 89.258,137.354 89.114 C 137.262 88.971,136.906 88.713,136.563 88.542 C 136.219 88.370,135.891 88.176,135.833 88.109 C 135.776 88.043,134.698 87.500,133.438 86.902 C 132.177 86.304,130.880 85.679,130.556 85.512 C 130.232 85.345,129.810 85.208,129.619 85.207 C 129.427 85.206,128.990 85.059,128.646 84.879 C 128.302 84.700,127.318 84.408,126.458 84.231 C 125.599 84.054,124.849 83.841,124.792 83.758 C 124.734 83.675,123.891 83.457,122.917 83.273 C 121.943 83.089,120.911 82.878,120.625 82.804 C 119.838 82.602,110.060 82.512,108.750 82.695 M118.125 83.533 C 121.941 84.056,122.989 84.248,125.000 84.797 C 146.000 90.531,158.338 109.996,153.406 129.612 C 152.834 131.887,152.149 133.937,151.830 134.323 C 151.503 134.720,76.609 134.704,76.279 134.306 C 74.164 131.758,73.060 119.296,74.443 113.580 C 77.912 99.240,88.273 88.821,103.049 84.814 C 105.096 84.259,106.083 84.074,109.792 83.550 C 111.405 83.322,116.510 83.311,118.125 83.533 M105.096 103.347 C 101.691 104.337,100.104 109.973,102.196 113.646 C 104.875 118.348,110.809 116.896,111.864 111.279 C 112.805 106.273,109.272 102.132,105.096 103.347 " stroke="none" fill="#272939" fill-rule="evenodd"></path><path id="path3" d="M112.458 83.488 C 113.409 83.527,114.909 83.527,115.791 83.488 C 116.674 83.449,115.896 83.417,114.063 83.418 C 112.229 83.418,111.507 83.450,112.458 83.488 M85.924 94.010 L 85.313 94.688 85.990 94.076 C 86.621 93.505,86.762 93.333,86.601 93.333 C 86.566 93.333,86.261 93.638,85.924 94.010 M141.458 93.399 C 141.458 93.434,141.763 93.739,142.135 94.076 L 142.813 94.688 142.201 94.010 C 141.630 93.379,141.458 93.238,141.458 93.399 M83.125 96.771 C 82.619 97.286,82.252 97.708,82.309 97.708 C 82.366 97.708,82.827 97.286,83.333 96.771 C 83.839 96.255,84.207 95.833,84.149 95.833 C 84.092 95.833,83.631 96.255,83.125 96.771 M101.330 107.592 C 101.267 107.757,101.251 108.062,101.296 108.269 C 101.347 108.504,101.419 108.392,101.486 107.969 C 101.600 107.259,101.526 107.081,101.330 107.592 M101.250 111.550 C 101.250 111.830,101.327 112.106,101.421 112.164 C 101.514 112.222,101.551 111.993,101.501 111.656 C 101.392 110.911,101.250 110.852,101.250 111.550 M102.500 114.440 C 102.500 114.476,102.805 114.781,103.177 115.117 L 103.854 115.729 103.242 115.052 C 102.672 114.421,102.500 114.279,102.500 114.440 M154.442 121.042 C 154.442 121.786,154.479 122.091,154.526 121.719 C 154.572 121.346,154.572 120.737,154.526 120.365 C 154.479 119.992,154.442 120.297,154.442 121.042 M95.140 134.531 C 105.472 134.561,122.441 134.561,132.848 134.531 C 143.256 134.501,134.802 134.477,114.063 134.477 C 93.323 134.477,84.808 134.501,95.140 134.531 " stroke="none" fill="#3c747c" fill-rule="evenodd"></path><path id="path4" d="M110.367 83.689 C 110.626 83.739,111.001 83.737,111.200 83.685 C 111.400 83.633,111.188 83.592,110.729 83.594 C 110.271 83.597,110.108 83.639,110.367 83.689 M117.034 83.689 C 117.293 83.739,117.668 83.737,117.867 83.685 C 118.066 83.633,117.854 83.592,117.396 83.594 C 116.938 83.597,116.775 83.639,117.034 83.689 M140.833 92.982 C 140.833 93.018,141.138 93.322,141.510 93.659 L 142.188 94.271 141.576 93.594 C 141.005 92.963,140.833 92.821,140.833 92.982 M146.539 99.020 C 146.981 99.559,147.385 100.000,147.438 100.000 C 147.580 100.000,146.261 98.365,145.978 98.190 C 145.845 98.107,146.097 98.481,146.539 99.020 M105.104 103.125 C 104.842 103.238,104.803 103.304,105.000 103.304 C 105.172 103.304,105.500 103.223,105.729 103.125 C 105.992 103.012,106.030 102.946,105.833 102.946 C 105.661 102.946,105.333 103.027,105.104 103.125 M78.229 103.750 C 78.051 104.094,77.953 104.375,78.010 104.375 C 78.067 104.375,78.260 104.094,78.438 103.750 C 78.615 103.406,78.714 103.125,78.657 103.125 C 78.599 103.125,78.407 103.406,78.229 103.750 M111.670 107.205 C 111.672 107.424,111.768 107.745,111.885 107.917 C 112.039 108.145,112.058 108.061,111.956 107.604 C 111.785 106.838,111.666 106.672,111.670 107.205 M112.146 109.792 C 112.146 110.422,112.185 110.680,112.233 110.365 C 112.280 110.049,112.280 109.534,112.233 109.219 C 112.185 108.904,112.146 109.161,112.146 109.792 M154.248 121.042 C 154.248 122.589,154.281 123.221,154.321 122.448 C 154.361 121.674,154.361 120.409,154.321 119.635 C 154.281 118.862,154.248 119.495,154.248 121.042 M113.125 158.700 C 113.611 158.795,113.618 158.813,113.229 158.970 C 112.940 159.086,113.164 159.141,113.958 159.149 C 114.698 159.156,115.001 159.095,114.814 158.976 C 114.580 158.828,114.600 158.772,114.918 158.691 C 115.135 158.635,114.703 158.592,113.958 158.594 C 113.214 158.597,112.839 158.644,113.125 158.700 " stroke="none" fill="#418391" fill-rule="evenodd"></path></g></svg>