<svg id="svg" version="1.1" xmlns="http://www.w3.org/2000/svg" xmlns:xlink="http://www.w3.org/1999/xlink" width="400" height="225" viewBox="0, 0, 400,225"><g id="svgg"><path id="path0" d="M16.335 85.621 C 14.299 86.050,14.097 86.232,12.816 88.782 C 12.163 90.082,11.555 91.240,11.466 91.354 C 10.870 92.117,7.436 102.159,6.478 105.938 C 6.246 106.854,5.718 108.729,5.305 110.104 C 2.652 118.934,2.951 133.452,5.870 137.551 C 6.651 138.648,9.385 137.763,13.703 135.015 C 17.382 132.674,18.490 131.842,20.815 129.671 L 22.984 127.646 50.331 127.760 C 65.371 127.822,77.774 127.932,77.892 128.005 C 78.009 128.078,79.212 129.121,80.563 130.322 C 81.915 131.523,83.677 132.935,84.479 133.458 C 91.641 138.134,94.088 139.000,95.175 137.242 C 97.935 132.775,97.984 119.250,95.276 109.479 C 93.323 102.435,92.214 98.835,90.978 95.521 C 89.770 92.280,87.400 87.417,86.661 86.661 C 85.890 85.872,84.750 85.595,81.875 85.499 C 77.665 85.358,76.893 85.633,76.403 87.447 C 76.071 88.677,77.381 88.620,53.032 88.472 C 41.109 88.399,29.848 88.338,28.007 88.337 L 24.659 88.333 24.305 87.210 C 24.111 86.592,23.798 85.960,23.611 85.804 C 23.208 85.470,17.709 85.331,16.335 85.621 M121.574 87.482 C 121.515 87.577,121.090 87.611,120.629 87.558 C 120.116 87.499,119.792 87.547,119.792 87.682 C 119.792 87.804,119.656 87.851,119.489 87.788 C 119.323 87.724,119.073 87.742,118.934 87.828 C 118.795 87.913,118.415 88.005,118.089 88.030 C 117.763 88.056,117.369 88.183,117.212 88.313 C 117.056 88.443,116.790 88.496,116.622 88.432 C 116.454 88.367,116.197 88.459,116.050 88.636 C 115.903 88.813,115.608 88.958,115.395 88.958 C 114.912 88.958,113.273 89.593,113.102 89.847 C 113.032 89.951,112.913 90.026,112.839 90.014 C 112.529 89.965,110.211 91.601,110.359 91.764 C 110.448 91.862,110.394 91.869,110.239 91.779 C 109.935 91.603,107.295 94.256,107.293 94.740 C 107.292 94.883,107.192 95.000,107.071 95.000 C 106.950 95.000,106.908 95.094,106.979 95.208 C 107.050 95.323,107.009 95.417,106.887 95.417 C 106.766 95.417,106.667 95.564,106.667 95.744 C 106.667 95.924,106.530 96.208,106.363 96.375 C 106.196 96.542,106.118 96.832,106.190 97.019 C 106.271 97.230,106.237 97.308,106.101 97.224 C 105.977 97.148,105.773 97.383,105.632 97.763 C 105.494 98.134,105.300 98.594,105.200 98.785 C 105.099 98.977,105.056 99.331,105.102 99.572 C 105.149 99.814,105.108 99.962,105.011 99.903 C 104.698 99.709,104.639 101.396,104.604 111.595 C 104.577 119.583,104.625 121.649,104.837 121.735 C 105.044 121.818,105.045 121.846,104.844 121.859 C 104.701 121.868,104.583 122.021,104.583 122.200 C 104.583 122.378,104.654 122.481,104.740 122.428 C 104.827 122.374,104.914 122.580,104.935 122.884 C 105.007 123.931,105.370 125.259,105.628 125.419 C 105.770 125.507,105.822 125.683,105.744 125.810 C 105.665 125.937,105.681 126.042,105.779 126.042 C 105.878 126.042,106.077 126.370,106.222 126.771 C 106.367 127.172,106.579 127.500,106.692 127.500 C 106.806 127.500,106.841 127.594,106.770 127.710 C 106.699 127.825,106.786 127.976,106.965 128.044 C 107.143 128.113,107.237 128.254,107.173 128.357 C 107.108 128.461,107.343 128.834,107.695 129.185 C 108.046 129.536,108.333 129.866,108.333 129.918 C 108.333 130.010,108.913 130.557,110.402 131.870 C 110.795 132.216,111.233 132.500,111.374 132.500 C 111.516 132.500,111.663 132.587,111.701 132.693 C 111.740 132.799,111.909 132.916,112.078 132.953 C 112.373 133.018,112.508 133.107,113.218 133.702 C 113.391 133.848,113.559 133.962,113.590 133.955 C 113.621 133.949,113.974 134.058,114.375 134.198 C 114.776 134.338,115.141 134.427,115.185 134.396 C 115.230 134.365,115.323 134.423,115.393 134.524 C 115.601 134.824,117.488 135.466,117.806 135.344 C 117.966 135.282,118.128 135.310,118.164 135.405 C 118.200 135.500,119.307 135.649,120.625 135.736 C 123.643 135.936,123.366 135.935,125.208 135.743 C 126.068 135.653,127.029 135.567,127.344 135.551 C 127.659 135.535,127.917 135.446,127.917 135.353 C 127.917 135.260,128.015 135.244,128.134 135.318 C 128.254 135.392,128.484 135.343,128.646 135.208 C 128.808 135.074,129.038 135.025,129.158 135.099 C 129.277 135.172,129.375 135.144,129.375 135.035 C 129.375 134.927,129.492 134.847,129.635 134.859 C 130.030 134.891,131.667 134.147,131.667 133.936 C 131.667 133.834,131.843 133.750,132.058 133.750 C 132.273 133.750,132.566 133.609,132.708 133.438 C 132.851 133.266,133.101 133.125,133.265 133.125 C 133.428 133.125,133.807 132.867,134.107 132.552 C 134.406 132.237,134.573 132.120,134.477 132.292 C 134.281 132.645,134.879 132.181,136.087 131.042 C 136.514 130.641,137.008 130.190,137.186 130.040 C 137.364 129.889,137.446 129.664,137.368 129.539 C 137.287 129.407,137.323 129.370,137.454 129.450 C 137.709 129.608,138.375 128.777,138.208 128.508 C 138.149 128.412,138.247 128.333,138.425 128.333 C 138.604 128.333,138.750 128.193,138.750 128.021 C 138.750 127.849,138.844 127.708,138.958 127.708 C 139.073 127.708,139.167 127.597,139.167 127.461 C 139.167 127.325,139.359 127.010,139.594 126.759 C 139.829 126.509,140.037 126.104,140.055 125.860 C 140.074 125.616,140.186 125.415,140.305 125.413 C 140.424 125.412,140.385 125.324,140.218 125.219 C 140.052 125.114,139.841 125.074,139.750 125.130 C 139.658 125.187,139.583 125.154,139.583 125.057 C 139.583 124.960,139.381 124.865,139.133 124.846 C 138.886 124.828,138.628 124.736,138.560 124.642 C 138.403 124.423,137.237 123.874,137.031 123.922 C 136.945 123.942,136.875 123.868,136.875 123.757 C 136.875 123.646,136.734 123.609,136.563 123.675 C 136.391 123.741,136.250 123.705,136.250 123.596 C 136.250 123.434,134.808 122.655,134.382 122.586 C 134.098 122.540,133.426 122.201,133.325 122.053 C 132.912 121.446,129.454 120.404,129.663 120.948 C 129.734 121.134,129.699 121.217,129.581 121.144 C 129.398 121.031,129.274 121.472,129.355 121.943 C 129.372 122.037,129.289 122.055,129.172 121.982 C 129.054 121.910,128.958 121.962,128.958 122.099 C 128.958 122.312,128.360 122.932,127.604 123.502 C 127.085 123.894,125.138 124.601,124.865 124.496 C 124.698 124.432,124.613 124.463,124.676 124.564 C 124.819 124.797,123.095 124.991,122.809 124.774 C 122.692 124.685,122.059 124.583,121.402 124.547 C 120.746 124.511,120.208 124.422,120.208 124.348 C 120.208 124.216,119.394 123.899,119.133 123.930 C 118.849 123.963,117.438 122.204,117.056 121.340 C 116.645 120.411,116.318 102.805,116.716 103.051 C 116.800 103.103,116.836 102.862,116.796 102.515 C 116.756 102.169,116.794 101.929,116.881 101.983 C 116.968 102.037,117.102 101.917,117.177 101.718 C 117.432 101.042,118.227 100.003,118.490 100.001 C 118.633 100.001,118.750 99.925,118.750 99.834 C 118.750 99.742,119.078 99.548,119.479 99.403 C 119.880 99.258,120.208 99.042,120.208 98.923 C 120.208 98.803,120.326 98.750,120.469 98.805 C 120.612 98.859,120.964 98.812,121.250 98.699 C 121.644 98.545,125.104 98.409,125.104 98.548 C 125.104 98.574,125.584 98.698,126.125 98.811 C 126.285 98.845,126.543 98.971,126.698 99.091 C 126.977 99.309,127.685 99.635,127.951 99.670 C 128.124 99.692,129.641 101.276,130.053 101.866 C 130.346 102.283,131.042 102.278,131.042 101.859 C 131.042 101.761,131.182 101.734,131.354 101.800 C 131.526 101.866,131.667 101.826,131.667 101.712 C 131.667 101.597,131.924 101.431,132.240 101.342 C 132.913 101.151,132.901 101.155,133.438 100.952 C 134.338 100.610,134.494 100.560,134.896 100.484 C 135.125 100.440,135.344 100.313,135.382 100.201 C 135.421 100.089,135.531 100.046,135.627 100.106 C 135.854 100.246,136.875 99.781,136.875 99.538 C 136.875 99.435,136.952 99.398,137.046 99.456 C 137.140 99.514,137.479 99.426,137.799 99.260 C 138.119 99.094,138.511 98.958,138.670 98.958 C 138.828 98.958,138.958 98.885,138.958 98.794 C 138.958 98.704,139.160 98.615,139.406 98.597 C 140.069 98.547,140.255 98.262,139.999 97.690 C 139.547 96.682,138.474 95.098,137.878 94.562 C 137.674 94.379,137.558 94.178,137.619 94.117 C 137.680 94.056,137.478 93.808,137.170 93.565 C 136.862 93.323,136.685 93.125,136.775 93.125 C 136.866 93.125,136.772 92.940,136.567 92.713 C 136.362 92.487,136.099 92.361,135.982 92.433 C 135.865 92.505,135.829 92.467,135.903 92.347 C 136.051 92.108,135.555 91.598,135.362 91.791 C 135.296 91.857,135.089 91.678,134.902 91.393 C 134.716 91.108,134.288 90.761,133.951 90.622 C 133.614 90.482,133.383 90.296,133.438 90.207 C 133.493 90.118,133.187 89.890,132.759 89.699 C 132.330 89.508,131.721 89.211,131.406 89.039 C 131.090 88.867,130.747 88.779,130.642 88.843 C 130.538 88.908,130.421 88.869,130.382 88.757 C 130.344 88.645,130.125 88.525,129.896 88.490 C 129.667 88.454,129.362 88.352,129.219 88.263 C 129.076 88.174,128.865 88.158,128.750 88.229 C 128.635 88.300,128.542 88.274,128.542 88.172 C 128.542 88.070,128.424 87.971,128.281 87.953 C 127.471 87.851,127.153 87.776,126.918 87.631 C 126.553 87.405,121.705 87.270,121.574 87.482 M250.337 87.441 C 250.258 87.520,249.577 87.609,248.825 87.639 C 248.073 87.668,247.350 87.781,247.219 87.889 C 247.087 87.997,246.698 88.137,246.354 88.199 C 245.113 88.422,244.669 88.542,243.542 88.956 C 242.911 89.188,242.366 89.465,242.330 89.573 C 242.294 89.680,242.115 89.711,241.932 89.640 C 241.712 89.556,241.649 89.595,241.747 89.754 C 241.844 89.909,241.786 89.953,241.587 89.876 C 241.405 89.807,241.083 89.980,240.809 90.295 C 240.552 90.591,240.232 90.833,240.097 90.833 C 239.963 90.833,239.558 91.115,239.198 91.460 C 238.837 91.805,238.542 92.025,238.542 91.950 C 238.542 91.875,238.260 92.108,237.917 92.467 C 237.573 92.827,237.292 93.221,237.292 93.344 C 237.292 93.466,237.213 93.518,237.116 93.458 C 236.959 93.361,236.042 94.403,236.042 94.679 C 236.042 94.741,235.878 94.972,235.677 95.193 C 234.998 95.942,234.816 96.205,234.913 96.302 C 234.967 96.355,234.867 96.518,234.693 96.662 C 234.311 96.979,234.268 97.370,234.635 97.184 C 234.779 97.112,234.744 97.178,234.559 97.331 C 234.268 97.572,233.891 98.610,233.855 99.271 C 233.848 99.385,233.761 99.611,233.660 99.772 C 233.531 99.978,233.552 100.018,233.733 99.906 C 233.924 99.788,233.938 99.846,233.788 100.134 C 233.106 101.443,232.892 121.885,233.556 122.305 C 233.811 122.467,233.809 122.495,233.542 122.500 C 233.358 122.504,233.315 122.569,233.438 122.659 C 233.552 122.744,233.662 123.000,233.683 123.229 C 233.720 123.656,233.902 124.479,233.958 124.479 C 233.975 124.479,234.032 124.714,234.084 125.000 C 234.136 125.286,234.264 125.550,234.369 125.586 C 234.474 125.622,234.510 125.783,234.448 125.944 C 234.291 126.354,235.488 128.367,236.518 129.424 C 236.994 129.913,237.386 130.377,237.390 130.457 C 237.399 130.679,238.289 131.458,238.533 131.458 C 238.652 131.458,238.750 131.553,238.750 131.669 C 238.750 131.955,241.004 133.381,241.233 133.240 C 241.333 133.178,241.468 133.267,241.534 133.439 C 241.600 133.610,241.896 133.750,242.193 133.750 C 242.496 133.750,242.677 133.840,242.606 133.956 C 242.533 134.074,242.616 134.109,242.802 134.038 C 242.980 133.970,243.125 134.007,243.125 134.122 C 243.125 134.320,244.097 134.690,244.427 134.618 C 244.513 134.599,244.583 134.666,244.583 134.767 C 244.583 135.197,249.014 135.876,251.979 135.902 C 252.527 135.907,255.272 135.655,256.458 135.491 C 256.974 135.420,257.771 135.169,258.229 134.933 C 258.688 134.696,259.194 134.481,259.354 134.453 C 259.515 134.425,259.713 134.295,259.794 134.163 C 259.876 134.031,260.002 133.931,260.075 133.941 C 260.544 134.003,260.795 133.901,261.282 133.450 C 261.583 133.170,261.887 132.998,261.957 133.068 C 262.026 133.137,262.083 133.095,262.083 132.974 C 262.083 132.853,262.435 132.612,262.865 132.438 C 263.692 132.104,266.612 129.225,266.493 128.860 C 266.455 128.742,266.493 128.715,266.578 128.800 C 266.767 128.989,267.327 128.559,267.188 128.333 C 267.133 128.245,267.228 128.056,267.398 127.915 C 267.569 127.773,267.708 127.568,267.708 127.460 C 267.708 127.351,267.850 127.120,268.023 126.947 C 268.196 126.775,268.287 126.552,268.225 126.452 C 268.164 126.352,268.303 126.169,268.536 126.045 C 269.190 125.695,268.945 124.954,268.198 125.023 C 268.126 125.030,268.005 124.934,267.928 124.810 C 267.852 124.687,267.537 124.564,267.228 124.539 C 266.919 124.513,266.667 124.430,266.667 124.354 C 266.667 124.277,266.128 123.999,265.469 123.735 C 264.810 123.471,264.224 123.200,264.167 123.134 C 264.017 122.960,262.851 122.416,262.604 122.405 C 262.490 122.400,262.271 122.278,262.119 122.134 C 261.966 121.989,261.755 121.924,261.650 121.990 C 261.545 122.055,261.458 121.993,261.458 121.853 C 261.458 121.712,261.399 121.656,261.327 121.729 C 261.254 121.801,260.997 121.751,260.754 121.617 C 260.511 121.484,260.129 121.344,259.905 121.307 C 259.681 121.270,259.439 121.146,259.369 121.032 C 259.196 120.752,258.333 120.597,258.333 120.845 C 258.333 120.953,258.353 121.065,258.376 121.094 C 258.399 121.122,258.188 121.381,257.907 121.668 C 257.626 121.956,257.161 122.494,256.875 122.864 C 256.589 123.235,256.247 123.539,256.116 123.540 C 255.985 123.541,255.830 123.668,255.770 123.822 C 255.409 124.763,250.265 124.971,248.522 124.115 C 247.880 123.799,247.247 123.542,247.115 123.542 C 246.983 123.542,246.875 123.408,246.875 123.244 C 246.875 123.081,246.653 122.772,246.382 122.559 C 246.111 122.346,245.824 121.964,245.743 121.711 C 245.663 121.457,245.533 121.250,245.455 121.250 C 245.252 121.250,245.251 121.208,245.174 111.615 C 245.136 106.831,245.180 102.917,245.273 102.917 C 245.365 102.917,245.381 102.819,245.307 102.699 C 245.233 102.580,245.266 102.369,245.381 102.230 C 245.496 102.092,245.611 101.885,245.638 101.771 C 245.727 101.381,246.670 100.001,246.825 100.034 C 247.141 100.100,247.701 99.741,247.582 99.548 C 247.514 99.437,247.585 99.368,247.740 99.393 C 247.894 99.418,248.391 99.275,248.843 99.075 C 250.164 98.489,252.148 98.299,253.542 98.624 C 253.828 98.691,254.344 98.808,254.688 98.884 C 255.031 98.959,255.870 99.382,256.552 99.823 C 257.233 100.264,257.872 100.625,257.970 100.625 C 258.069 100.625,258.098 100.708,258.035 100.810 C 257.973 100.911,258.079 101.122,258.271 101.278 C 258.569 101.520,258.595 101.519,258.445 101.270 C 258.326 101.071,258.346 101.025,258.509 101.126 C 258.642 101.208,258.750 101.462,258.750 101.691 C 258.750 101.920,258.836 102.055,258.941 101.990 C 259.045 101.925,259.163 101.968,259.202 102.085 C 259.243 102.208,259.492 102.145,259.792 101.934 C 260.078 101.734,260.406 101.566,260.521 101.560 C 260.635 101.554,261.092 101.388,261.536 101.191 C 261.980 100.994,262.425 100.833,262.525 100.833 C 262.626 100.833,262.708 100.734,262.708 100.613 C 262.708 100.491,262.785 100.440,262.880 100.498 C 262.974 100.556,263.312 100.468,263.630 100.303 C 263.949 100.138,264.294 100.054,264.397 100.118 C 264.499 100.181,264.583 100.154,264.583 100.057 C 264.583 99.960,264.772 99.866,265.002 99.849 C 265.232 99.831,265.563 99.675,265.737 99.501 C 265.911 99.327,266.177 99.232,266.327 99.289 C 266.477 99.347,266.719 99.250,266.865 99.074 C 267.011 98.898,267.207 98.802,267.301 98.860 C 267.395 98.918,267.530 98.870,267.602 98.753 C 267.674 98.637,267.903 98.542,268.111 98.542 C 268.375 98.542,268.490 98.385,268.490 98.025 C 268.490 97.740,268.421 97.550,268.338 97.601 C 268.254 97.653,268.078 97.458,267.946 97.168 C 267.808 96.867,267.794 96.695,267.913 96.768 C 268.032 96.842,268.068 96.760,267.997 96.575 C 267.929 96.397,267.789 96.304,267.687 96.368 C 267.584 96.431,267.500 96.384,267.500 96.262 C 267.500 95.818,267.465 95.723,267.188 95.417 C 267.032 95.245,266.900 95.033,266.894 94.945 C 266.869 94.584,265.960 93.568,265.768 93.686 C 265.653 93.757,265.625 93.710,265.707 93.578 C 266.026 93.061,262.613 90.284,260.365 89.232 C 259.820 88.977,259.375 88.810,259.375 88.860 C 259.375 88.910,259.057 88.773,258.669 88.555 C 258.281 88.336,257.601 88.101,257.158 88.031 C 256.716 87.961,256.026 87.822,255.625 87.723 C 254.804 87.519,254.940 87.533,252.376 87.397 C 251.334 87.342,250.416 87.362,250.337 87.441 M159.718 87.643 C 159.657 87.704,159.156 87.795,158.606 87.846 C 158.055 87.896,157.575 88.021,157.539 88.124 C 157.503 88.226,157.346 88.261,157.190 88.201 C 157.035 88.142,156.726 88.190,156.503 88.309 C 156.281 88.428,155.781 88.580,155.393 88.647 C 155.005 88.714,154.306 88.952,153.840 89.176 C 153.375 89.400,152.850 89.583,152.674 89.583 C 152.371 89.583,151.831 89.958,150.958 90.775 C 150.688 91.027,150.616 91.046,150.733 90.833 C 150.923 90.487,150.283 90.974,149.300 91.922 C 148.972 92.238,148.635 92.454,148.551 92.401 C 148.337 92.269,147.253 93.434,147.428 93.608 C 147.506 93.686,147.436 93.750,147.272 93.750 C 146.970 93.750,146.334 94.560,146.414 94.844 C 146.438 94.930,146.359 95.000,146.238 95.000 C 146.116 95.000,146.084 95.108,146.166 95.241 C 146.255 95.386,146.223 95.425,146.084 95.339 C 145.833 95.183,145.350 95.905,145.563 96.118 C 145.635 96.191,145.569 96.250,145.417 96.250 C 145.264 96.250,145.197 96.308,145.268 96.379 C 145.339 96.450,145.260 96.645,145.092 96.812 C 144.925 96.980,144.837 97.197,144.897 97.294 C 144.958 97.391,144.910 97.531,144.792 97.604 C 144.673 97.677,144.630 97.824,144.696 97.931 C 144.762 98.038,144.728 98.125,144.620 98.125 C 144.512 98.125,144.376 98.289,144.319 98.490 C 144.261 98.690,144.140 99.034,144.051 99.253 C 143.924 99.564,143.953 99.613,144.183 99.478 C 144.346 99.382,144.304 99.503,144.090 99.748 C 143.789 100.091,143.732 100.371,143.837 100.981 C 143.918 101.451,143.900 101.662,143.793 101.502 C 143.595 101.210,143.485 120.700,143.675 122.344 C 143.738 122.888,143.865 123.287,143.958 123.229 C 144.052 123.172,144.075 123.327,144.010 123.574 C 143.940 123.844,143.975 123.972,144.099 123.896 C 144.220 123.821,144.306 124.067,144.306 124.492 C 144.306 124.939,144.444 125.317,144.667 125.480 C 144.867 125.626,145.012 125.835,144.990 125.945 C 144.887 126.469,145.018 126.889,145.241 126.751 C 145.382 126.663,145.425 126.693,145.344 126.824 C 145.163 127.117,145.408 127.738,145.647 127.591 C 145.749 127.527,145.833 127.655,145.833 127.874 C 145.833 128.227,146.211 128.712,147.116 129.521 C 147.270 129.659,147.500 129.893,147.628 130.042 C 147.756 130.191,148.056 130.447,148.294 130.611 C 148.533 130.775,148.683 130.981,148.629 131.069 C 148.574 131.157,148.727 131.335,148.968 131.464 C 149.209 131.593,149.587 131.879,149.807 132.099 C 150.028 132.320,150.349 132.500,150.521 132.500 C 150.693 132.500,150.833 132.587,150.833 132.694 C 150.833 132.854,151.431 133.158,151.875 133.224 C 151.932 133.233,152.222 133.403,152.520 133.602 C 153.220 134.071,156.380 135.232,157.188 135.317 C 157.531 135.353,158.375 135.474,159.063 135.585 C 160.772 135.862,166.014 135.871,167.348 135.599 C 167.947 135.477,168.578 135.380,168.750 135.383 C 169.405 135.396,171.042 134.950,171.042 134.759 C 171.042 134.649,171.140 134.619,171.259 134.693 C 171.379 134.767,171.623 134.706,171.801 134.558 C 171.979 134.410,172.271 134.268,172.448 134.242 C 172.626 134.216,172.845 134.074,172.937 133.926 C 173.028 133.779,173.166 133.721,173.244 133.799 C 173.424 133.980,175.000 133.184,175.000 132.912 C 175.000 132.800,175.070 132.727,175.156 132.750 C 175.509 132.843,176.247 132.455,176.117 132.244 C 176.038 132.117,176.074 132.078,176.198 132.155 C 176.319 132.230,176.779 131.984,177.220 131.608 C 178.062 130.889,179.792 129.167,179.673 129.167 C 179.635 129.167,179.837 128.915,180.122 128.607 C 180.407 128.300,180.593 127.926,180.536 127.777 C 180.479 127.628,180.623 127.404,180.857 127.279 C 181.108 127.144,181.234 126.926,181.164 126.744 C 181.098 126.571,181.137 126.492,181.252 126.564 C 181.366 126.634,181.458 126.504,181.458 126.275 C 181.458 126.045,181.560 125.795,181.685 125.718 C 181.809 125.641,181.865 125.401,181.808 125.185 C 181.752 124.968,181.791 124.844,181.894 124.908 C 182.065 125.013,182.182 124.548,182.101 124.093 C 182.083 123.995,182.169 123.794,182.292 123.646 C 182.414 123.498,182.496 123.297,182.474 123.199 C 182.452 123.101,182.506 122.855,182.595 122.653 C 182.683 122.450,182.711 122.052,182.657 121.767 C 182.602 121.483,182.640 121.250,182.740 121.250 C 182.953 121.250,182.862 102.082,182.645 101.146 C 182.565 100.802,182.445 100.193,182.377 99.792 C 182.310 99.391,182.158 98.945,182.039 98.802 C 181.921 98.659,181.881 98.542,181.950 98.542 C 182.019 98.542,181.890 98.211,181.663 97.806 C 181.436 97.402,181.250 96.923,181.250 96.742 C 181.250 96.458,180.534 95.400,179.647 94.375 C 179.499 94.203,179.134 93.758,178.837 93.385 C 178.539 93.013,178.202 92.708,178.086 92.708 C 177.970 92.708,177.615 92.451,177.296 92.135 C 176.493 91.340,176.096 91.042,175.842 91.042 C 175.723 91.042,175.625 90.942,175.625 90.821 C 175.625 90.700,175.541 90.652,175.438 90.716 C 175.336 90.779,175.196 90.685,175.127 90.506 C 175.059 90.328,174.909 90.240,174.793 90.312 C 174.678 90.383,174.583 90.362,174.583 90.266 C 174.583 90.042,173.466 89.377,172.911 89.270 C 172.679 89.225,171.705 88.944,170.745 88.645 C 169.785 88.346,168.776 88.077,168.502 88.048 C 168.228 88.019,167.867 87.908,167.700 87.802 C 167.381 87.599,159.911 87.450,159.718 87.643 M287.903 87.720 C 285.927 88.034,284.583 88.369,284.583 88.550 C 284.583 88.653,284.443 88.683,284.271 88.617 C 284.099 88.551,283.958 88.611,283.958 88.750 C 283.958 88.889,283.821 88.950,283.653 88.886 C 283.484 88.821,283.296 88.850,283.235 88.949 C 283.173 89.049,282.748 89.194,282.291 89.271 C 281.833 89.348,281.458 89.503,281.458 89.614 C 281.458 89.725,281.375 89.765,281.274 89.702 C 281.172 89.639,280.973 89.728,280.831 89.898 C 280.690 90.069,280.412 90.208,280.215 90.208 C 280.018 90.208,279.689 90.394,279.484 90.620 C 279.279 90.847,279.030 90.982,278.930 90.920 C 278.831 90.859,278.750 90.955,278.750 91.134 C 278.750 91.312,278.616 91.458,278.453 91.458 C 278.289 91.458,277.984 91.669,277.776 91.927 C 277.567 92.185,277.133 92.532,276.812 92.697 C 276.299 92.962,274.375 95.362,274.375 95.736 C 274.375 95.814,274.141 96.156,273.854 96.496 C 273.568 96.837,273.333 97.275,273.333 97.470 C 273.333 97.665,273.204 98.009,273.047 98.235 C 272.738 98.678,272.422 100.456,272.429 101.719 C 272.431 102.148,272.361 102.500,272.273 102.500 C 271.988 102.500,272.164 122.126,272.454 122.644 C 272.607 122.917,272.631 123.148,272.513 123.221 C 272.269 123.372,272.635 124.529,273.102 125.088 C 273.379 125.418,273.383 125.461,273.125 125.333 C 272.881 125.212,272.885 125.238,273.143 125.453 C 273.325 125.605,273.435 125.846,273.386 125.990 C 273.338 126.133,273.400 126.250,273.524 126.250 C 273.648 126.250,273.750 126.443,273.750 126.679 C 273.750 126.915,273.844 127.050,273.958 126.979 C 274.073 126.908,274.167 126.990,274.167 127.160 C 274.167 127.331,274.311 127.614,274.487 127.790 C 274.663 127.966,274.797 128.137,274.786 128.170 C 274.703 128.405,275.087 128.929,275.262 128.821 C 275.390 128.742,275.419 128.786,275.332 128.927 C 275.161 129.204,277.465 131.504,277.742 131.334 C 277.838 131.274,277.917 131.362,277.917 131.528 C 277.917 131.793,278.357 132.116,278.792 132.170 C 278.872 132.179,279.055 132.305,279.198 132.448 C 279.341 132.591,279.569 132.708,279.704 132.708 C 279.839 132.708,280.066 132.849,280.208 133.021 C 280.351 133.193,280.644 133.333,280.859 133.333 C 281.074 133.333,281.250 133.421,281.250 133.528 C 281.250 133.725,281.868 133.994,282.114 133.904 C 282.187 133.876,282.422 134.001,282.634 134.180 C 283.117 134.588,285.992 135.536,286.178 135.349 C 286.254 135.274,286.442 135.317,286.597 135.445 C 287.162 135.914,297.280 135.754,298.542 135.256 C 298.828 135.142,299.109 135.047,299.167 135.044 C 299.461 135.028,301.163 134.274,301.273 134.111 C 301.343 134.008,301.461 133.931,301.534 133.941 C 302.005 134.004,302.267 133.890,302.904 133.345 C 303.298 133.008,303.686 132.773,303.765 132.822 C 303.844 132.871,304.146 132.725,304.435 132.497 C 304.725 132.270,305.063 132.083,305.187 132.083 C 305.312 132.083,305.530 131.896,305.673 131.667 C 305.816 131.438,306.037 131.250,306.164 131.250 C 306.445 131.250,307.224 130.422,306.959 130.403 C 306.856 130.396,306.988 130.303,307.253 130.197 C 307.543 130.081,307.675 129.907,307.585 129.761 C 307.492 129.610,307.527 129.575,307.678 129.669 C 307.818 129.755,307.977 129.659,308.056 129.440 C 308.130 129.233,308.366 128.893,308.580 128.685 C 308.793 128.478,308.904 128.206,308.827 128.080 C 308.748 127.953,308.781 127.911,308.902 127.986 C 309.115 128.118,309.734 126.934,309.628 126.599 C 309.598 126.505,309.659 126.481,309.765 126.546 C 310.007 126.696,310.256 126.079,310.073 125.782 C 309.992 125.652,310.034 125.622,310.176 125.709 C 310.399 125.847,310.435 125.763,310.500 124.948 C 310.511 124.805,310.593 124.634,310.682 124.568 C 310.771 124.502,310.885 124.268,310.936 124.047 C 310.988 123.826,311.116 123.294,311.222 122.865 C 311.360 122.305,311.347 122.082,311.176 122.080 C 311.042 122.078,311.070 121.993,311.240 121.886 C 311.525 121.705,311.663 103.867,311.395 101.771 C 311.351 101.427,311.301 100.929,311.283 100.665 C 311.265 100.400,311.157 100.241,311.044 100.311 C 310.923 100.386,310.893 100.296,310.970 100.094 C 311.045 99.899,310.976 99.670,310.812 99.565 C 310.569 99.412,310.568 99.381,310.807 99.378 C 311.045 99.376,311.047 99.320,310.816 99.041 C 310.664 98.858,310.517 98.555,310.489 98.368 C 310.462 98.181,310.340 97.995,310.218 97.955 C 310.097 97.914,310.050 97.795,310.115 97.691 C 310.180 97.586,310.160 97.383,310.070 97.240 C 309.981 97.096,309.891 96.873,309.872 96.743 C 309.786 96.183,308.311 94.156,308.089 94.293 C 307.937 94.387,307.910 94.346,308.014 94.178 C 308.175 93.917,305.890 91.541,305.680 91.751 C 305.625 91.805,305.352 91.621,305.073 91.342 C 304.793 91.062,304.391 90.833,304.179 90.833 C 303.968 90.833,303.741 90.693,303.675 90.521 C 303.609 90.349,303.374 90.208,303.154 90.208 C 302.933 90.208,302.700 90.069,302.634 89.899 C 302.569 89.729,302.381 89.642,302.216 89.705 C 302.052 89.768,301.854 89.718,301.778 89.594 C 301.701 89.470,301.551 89.422,301.444 89.488 C 301.337 89.554,301.250 89.509,301.250 89.387 C 301.250 89.266,301.083 89.167,300.880 89.167 C 300.676 89.167,300.301 89.021,300.046 88.842 C 299.791 88.664,299.479 88.582,299.351 88.660 C 299.224 88.739,299.053 88.695,298.972 88.563 C 298.890 88.431,298.502 88.272,298.109 88.211 C 297.717 88.149,297.208 88.059,296.979 88.011 C 296.750 87.962,296.145 87.837,295.634 87.732 C 294.551 87.508,289.288 87.501,287.903 87.720 M317.708 111.667 L 317.708 135.417 323.854 135.417 L 330.000 135.417 330.000 127.813 L 330.000 120.208 330.935 120.208 C 331.885 120.208,332.708 120.665,332.708 121.192 C 332.708 121.339,332.802 121.458,332.917 121.458 C 333.031 121.458,333.125 121.640,333.125 121.863 C 333.125 122.085,333.219 122.325,333.333 122.396 C 333.641 122.586,335.944 125.667,336.107 126.107 C 336.188 126.326,336.349 126.422,336.489 126.335 C 336.640 126.242,336.675 126.277,336.581 126.428 C 336.498 126.563,336.575 126.724,336.756 126.794 C 336.935 126.863,337.036 126.991,336.982 127.079 C 336.927 127.167,337.111 127.485,337.390 127.786 C 337.669 128.087,337.852 128.333,337.797 128.333 C 337.685 128.333,340.352 132.006,340.833 132.514 C 341.156 132.854,341.598 133.430,342.500 134.682 L 343.021 135.405 350.476 135.411 C 357.868 135.417,357.929 135.413,357.708 135.000 C 357.586 134.771,357.436 134.583,357.376 134.583 C 357.316 134.583,357.333 134.701,357.414 134.844 C 357.514 135.021,357.491 135.038,357.342 134.896 C 357.222 134.781,357.086 134.500,357.039 134.271 C 356.993 134.042,356.846 133.876,356.714 133.904 C 356.582 133.931,356.523 133.824,356.584 133.665 C 356.645 133.506,356.523 133.250,356.312 133.095 C 356.102 132.939,355.764 132.552,355.560 132.233 C 355.352 131.907,355.089 131.716,354.959 131.796 C 354.822 131.881,354.786 131.845,354.871 131.707 C 354.951 131.578,354.606 131.061,354.093 130.541 C 353.586 130.027,353.224 129.554,353.287 129.491 C 353.351 129.427,353.288 129.375,353.147 129.375 C 353.007 129.375,352.943 129.292,353.006 129.190 C 353.160 128.941,351.781 127.455,351.581 127.655 C 351.495 127.742,351.455 127.717,351.493 127.600 C 351.592 127.298,350.714 126.234,350.515 126.413 C 350.424 126.495,350.409 126.460,350.480 126.334 C 350.552 126.208,350.426 125.907,350.201 125.665 C 349.976 125.424,349.792 125.176,349.792 125.116 C 349.792 124.886,347.461 122.113,347.175 122.003 C 347.010 121.940,346.875 121.698,346.875 121.465 C 346.875 121.228,346.738 121.042,346.562 121.042 C 346.391 121.042,346.273 120.971,346.300 120.885 C 346.371 120.668,345.716 119.770,345.584 119.902 C 345.525 119.962,345.357 119.867,345.212 119.692 C 344.987 119.421,345.083 119.310,345.860 118.940 C 347.457 118.180,347.917 117.899,347.917 117.685 C 347.917 117.570,348.011 117.534,348.126 117.605 C 348.242 117.676,348.393 117.588,348.461 117.409 C 348.530 117.230,348.685 117.083,348.805 117.083 C 349.182 117.083,350.431 116.024,350.301 115.815 C 350.233 115.705,350.302 115.640,350.453 115.672 C 350.605 115.703,350.707 115.615,350.679 115.475 C 350.652 115.335,350.816 115.121,351.044 114.999 C 351.272 114.877,351.458 114.640,351.458 114.472 C 351.458 114.304,351.552 114.167,351.667 114.167 C 351.781 114.167,351.875 114.002,351.875 113.800 C 351.875 113.599,352.070 113.312,352.309 113.162 C 352.565 113.003,352.694 112.763,352.624 112.581 C 352.558 112.410,352.591 112.323,352.696 112.388 C 352.943 112.541,353.198 111.744,353.002 111.428 C 352.914 111.286,352.943 111.241,353.071 111.321 C 353.340 111.487,353.465 111.144,353.449 110.280 C 353.443 109.919,353.520 109.674,353.622 109.737 C 353.723 109.800,353.763 109.561,353.712 109.207 C 353.660 108.853,353.694 108.611,353.788 108.669 C 353.882 108.727,353.966 108.558,353.974 108.294 C 353.983 108.029,354.031 107.625,354.080 107.396 C 354.236 106.671,354.277 102.529,354.126 102.773 C 354.047 102.902,354.019 102.541,354.064 101.972 C 354.143 100.993,353.852 98.889,353.577 98.438 C 353.507 98.323,353.423 98.058,353.390 97.849 C 353.358 97.639,353.191 97.328,353.020 97.157 C 352.848 96.985,352.708 96.740,352.708 96.612 C 352.708 96.484,352.856 96.561,353.036 96.783 C 353.216 97.006,353.151 96.787,352.891 96.297 C 352.631 95.808,352.225 95.201,351.990 94.948 C 351.755 94.696,351.563 94.440,351.563 94.380 C 351.563 94.320,351.492 94.294,351.406 94.323 C 351.320 94.352,351.270 94.305,351.294 94.219 C 351.377 93.927,350.814 93.113,350.615 93.236 C 350.506 93.303,350.417 93.228,350.417 93.069 C 350.417 92.911,350.167 92.554,349.862 92.276 C 349.557 91.998,349.377 91.911,349.461 92.083 C 349.553 92.271,349.495 92.251,349.315 92.031 C 349.151 91.831,348.904 91.667,348.767 91.667 C 348.629 91.667,348.571 91.580,348.637 91.473 C 348.702 91.367,348.567 91.220,348.336 91.147 C 348.106 91.074,347.917 90.932,347.917 90.833 C 347.917 90.733,347.589 90.533,347.188 90.388 C 346.786 90.243,346.458 90.059,346.458 89.979 C 346.458 89.791,343.101 88.705,342.959 88.847 C 342.899 88.906,342.742 88.864,342.609 88.754 C 341.942 88.200,337.373 87.961,327.031 87.938 L 317.708 87.917 317.708 111.667 M360.903 88.243 C 360.834 88.423,360.884 88.676,361.014 88.806 C 361.144 88.935,361.243 89.187,361.235 89.365 C 361.225 89.593,361.169 89.566,361.042 89.271 C 360.915 88.977,360.863 89.223,360.863 90.104 C 360.863 90.986,360.915 91.231,361.042 90.938 C 361.188 90.598,361.223 90.586,361.235 90.873 C 361.243 91.067,361.156 91.283,361.042 91.354 C 360.927 91.425,360.840 91.782,360.848 92.148 C 360.860 92.708,360.891 92.747,361.042 92.396 C 361.213 91.998,361.221 92.001,361.235 92.448 C 361.243 92.706,361.156 92.917,361.042 92.917 C 360.927 92.917,360.840 93.268,360.848 93.698 C 360.860 94.325,360.898 94.397,361.042 94.063 C 361.140 93.833,361.227 93.764,361.235 93.909 C 361.243 94.054,361.135 94.356,360.995 94.581 C 360.793 94.903,360.793 95.043,360.995 95.245 C 361.135 95.385,361.243 95.645,361.235 95.823 C 361.225 96.052,361.169 96.024,361.042 95.729 C 360.898 95.395,360.860 95.467,360.848 96.094 C 360.840 96.523,360.927 96.875,361.042 96.875 C 361.156 96.875,361.243 97.086,361.235 97.344 C 361.221 97.791,361.213 97.793,361.042 97.396 C 360.891 97.045,360.860 97.084,360.848 97.644 C 360.840 98.010,360.927 98.367,361.042 98.438 C 361.156 98.508,361.243 98.725,361.235 98.919 C 361.223 99.206,361.188 99.194,361.042 98.854 C 360.915 98.560,360.863 98.806,360.863 99.688 C 360.863 100.569,360.915 100.815,361.042 100.521 C 361.140 100.292,361.227 100.223,361.235 100.367 C 361.243 100.512,361.133 100.829,360.990 101.072 C 360.781 101.425,360.781 101.532,360.990 101.607 C 361.298 101.719,361.344 102.500,361.042 102.500 C 360.927 102.500,360.833 102.688,360.833 102.917 C 360.833 103.146,360.927 103.333,361.042 103.333 C 361.344 103.333,361.298 104.115,360.990 104.226 C 360.781 104.302,360.781 104.409,360.990 104.762 C 361.133 105.004,361.243 105.321,361.235 105.466 C 361.227 105.611,361.140 105.542,361.042 105.313 C 360.898 104.978,360.860 105.050,360.848 105.677 C 360.840 106.107,360.927 106.458,361.042 106.458 C 361.156 106.458,361.243 106.669,361.235 106.927 C 361.221 107.374,361.213 107.377,361.042 106.979 C 360.925 106.708,360.863 107.254,360.863 108.542 C 360.863 109.830,360.925 110.375,361.042 110.104 C 361.140 109.875,361.227 109.806,361.235 109.951 C 361.243 110.096,361.133 110.412,360.990 110.655 C 360.781 111.008,360.781 111.115,360.990 111.190 C 361.298 111.302,361.344 112.083,361.042 112.083 C 360.927 112.083,360.833 112.271,360.833 112.500 C 360.833 112.729,360.927 112.917,361.042 112.917 C 361.344 112.917,361.298 113.698,360.990 113.810 C 360.781 113.885,360.781 113.992,360.990 114.345 C 361.133 114.588,361.243 114.904,361.235 115.049 C 361.227 115.194,361.140 115.125,361.042 114.896 C 360.925 114.625,360.863 115.170,360.863 116.458 C 360.863 117.746,360.925 118.292,361.042 118.021 C 361.213 117.623,361.221 117.626,361.235 118.073 C 361.243 118.331,361.156 118.542,361.042 118.542 C 360.927 118.542,360.840 118.893,360.848 119.323 C 360.860 119.950,360.898 120.022,361.042 119.688 C 361.140 119.458,361.227 119.389,361.235 119.534 C 361.243 119.679,361.133 119.996,360.990 120.238 C 360.781 120.591,360.781 120.698,360.990 120.774 C 361.298 120.885,361.344 121.667,361.042 121.667 C 360.927 121.667,360.833 121.854,360.833 122.083 C 360.833 122.313,360.927 122.500,361.042 122.500 C 361.344 122.500,361.298 123.281,360.990 123.393 C 360.781 123.468,360.781 123.575,360.990 123.928 C 361.133 124.171,361.243 124.488,361.235 124.633 C 361.227 124.777,361.140 124.708,361.042 124.479 C 360.915 124.185,360.863 124.431,360.863 125.313 C 360.863 126.194,360.915 126.440,361.042 126.146 C 361.188 125.806,361.223 125.794,361.235 126.081 C 361.243 126.275,361.156 126.492,361.042 126.563 C 360.927 126.633,360.840 126.990,360.848 127.356 C 360.860 127.916,360.891 127.955,361.042 127.604 C 361.213 127.207,361.221 127.209,361.235 127.656 C 361.243 127.914,361.156 128.125,361.042 128.125 C 360.927 128.125,360.840 128.477,360.848 128.906 C 360.860 129.533,360.898 129.605,361.042 129.271 C 361.169 128.976,361.225 128.948,361.235 129.177 C 361.243 129.355,361.135 129.615,360.995 129.755 C 360.793 129.957,360.793 130.097,360.995 130.419 C 361.135 130.644,361.243 130.946,361.235 131.091 C 361.227 131.236,361.140 131.167,361.042 130.938 C 360.898 130.603,360.860 130.675,360.848 131.302 C 360.840 131.732,360.927 132.083,361.042 132.083 C 361.156 132.083,361.243 132.294,361.235 132.552 C 361.221 132.999,361.213 133.002,361.042 132.604 C 360.891 132.253,360.860 132.292,360.848 132.852 C 360.840 133.218,360.927 133.575,361.042 133.646 C 361.156 133.717,361.243 133.933,361.235 134.127 C 361.223 134.414,361.188 134.402,361.042 134.063 C 360.903 133.740,360.859 133.847,360.848 134.535 L 360.833 135.424 371.510 135.354 C 377.383 135.316,382.516 135.222,382.917 135.145 C 384.535 134.836,385.632 134.532,385.736 134.363 C 385.797 134.265,385.984 134.238,386.153 134.302 C 386.321 134.367,386.458 134.310,386.458 134.177 C 386.458 134.043,386.557 133.995,386.678 134.069 C 386.884 134.197,389.150 133.222,389.375 132.909 C 389.432 132.830,389.690 132.699,389.948 132.618 C 390.206 132.538,390.417 132.379,390.417 132.265 C 390.417 132.152,390.502 132.112,390.606 132.176 C 390.711 132.241,391.047 132.082,391.353 131.824 C 392.993 130.442,393.958 129.493,393.958 129.262 C 393.958 129.120,394.099 128.949,394.271 128.883 C 394.443 128.817,394.583 128.620,394.583 128.444 C 394.583 128.269,394.774 127.934,395.008 127.701 C 395.241 127.467,395.376 127.186,395.308 127.076 C 395.240 126.965,395.289 126.875,395.417 126.875 C 395.545 126.875,395.592 126.781,395.521 126.667 C 395.450 126.552,395.476 126.458,395.579 126.458 C 395.852 126.458,396.280 125.425,396.116 125.161 C 396.028 125.018,396.076 124.997,396.248 125.103 C 396.452 125.229,396.493 125.135,396.414 124.725 C 396.357 124.425,396.390 124.229,396.488 124.289 C 396.586 124.350,396.676 124.277,396.687 124.127 C 396.765 123.104,396.825 122.750,396.957 122.535 C 397.040 122.401,396.997 122.292,396.862 122.292 C 396.681 122.292,396.676 122.219,396.845 122.015 C 397.073 121.741,397.225 102.780,397.002 102.557 C 396.948 102.503,396.958 102.318,397.024 102.146 C 397.090 101.974,397.013 101.750,396.853 101.649 C 396.628 101.506,396.624 101.464,396.835 101.462 C 396.985 101.460,397.063 101.386,397.009 101.298 C 396.954 101.209,396.850 100.717,396.778 100.204 C 396.594 98.904,396.459 98.517,396.237 98.654 C 396.132 98.719,396.102 98.626,396.171 98.448 C 396.239 98.270,396.186 98.125,396.052 98.125 C 395.918 98.125,395.859 98.044,395.921 97.944 C 396.188 97.511,393.998 93.780,393.669 94.109 C 393.599 94.179,393.542 94.089,393.542 93.910 C 393.542 93.526,391.292 91.408,391.045 91.560 C 390.953 91.617,390.823 91.524,390.758 91.353 C 390.692 91.182,390.518 91.041,390.371 91.041 C 390.224 91.040,389.689 90.764,389.181 90.427 C 388.672 90.090,388.180 89.862,388.087 89.919 C 387.993 89.977,387.917 89.936,387.917 89.827 C 387.917 89.719,387.565 89.556,387.135 89.466 C 386.211 89.273,386.306 89.302,385.521 88.978 C 385.177 88.837,384.605 88.695,384.250 88.663 C 383.895 88.631,383.500 88.540,383.373 88.462 C 382.409 87.866,361.127 87.659,360.903 88.243 M189.262 111.771 L 189.264 135.417 195.257 135.417 L 201.250 135.417 201.225 134.740 L 201.201 134.063 201.042 134.688 L 200.883 135.313 200.858 134.737 C 200.844 134.420,200.950 133.975,201.092 133.747 C 201.297 133.418,201.297 133.249,201.092 132.919 C 200.759 132.387,200.757 130.784,201.089 130.453 C 201.290 130.252,201.290 130.112,201.089 129.789 C 200.758 129.261,200.760 127.820,201.092 127.289 C 201.297 126.959,201.297 126.791,201.092 126.461 C 200.950 126.234,200.833 125.717,200.833 125.313 C 200.833 124.908,200.950 124.391,201.092 124.164 C 201.297 123.834,201.297 123.666,201.092 123.336 C 200.759 122.804,200.757 121.201,201.089 120.870 C 201.290 120.668,201.290 120.528,201.089 120.206 C 200.758 119.677,200.760 118.236,201.092 117.706 C 201.297 117.376,201.297 117.207,201.092 116.878 C 200.770 116.363,200.762 116.181,201.068 116.370 C 201.236 116.474,201.244 116.410,201.095 116.145 C 200.981 115.941,200.933 115.600,200.989 115.387 C 201.045 115.172,200.981 115.000,200.845 115.000 C 200.711 115.000,200.657 114.908,200.727 114.796 C 200.796 114.683,200.742 114.003,200.605 113.285 C 200.469 112.567,200.365 111.817,200.374 111.619 C 200.383 111.420,200.302 111.204,200.195 111.138 C 200.088 111.071,200.000 110.923,200.000 110.809 C 200.000 110.694,200.098 110.661,200.217 110.734 C 200.429 110.866,200.403 110.598,200.070 109.219 C 199.994 108.904,199.946 108.579,199.963 108.497 C 199.981 108.415,199.907 108.115,199.798 107.830 C 199.639 107.411,199.660 107.334,199.905 107.428 C 200.072 107.492,200.208 107.728,200.208 107.951 C 200.208 108.206,200.298 108.302,200.449 108.209 C 200.599 108.117,200.633 108.152,200.540 108.303 C 200.329 108.644,200.607 109.410,200.881 109.242 C 201.008 109.163,201.047 109.199,200.969 109.324 C 200.775 109.638,201.041 110.233,201.304 110.071 C 201.424 109.996,201.464 110.031,201.392 110.147 C 201.193 110.469,201.894 112.094,202.165 111.940 C 202.292 111.867,202.336 111.875,202.263 111.957 C 202.053 112.192,202.667 113.983,203.071 114.314 C 203.273 114.479,203.320 114.555,203.177 114.482 C 203.034 114.410,202.917 114.450,202.917 114.571 C 202.917 114.692,203.016 114.792,203.137 114.792 C 203.259 114.792,203.305 114.878,203.240 114.983 C 203.174 115.089,203.246 115.299,203.398 115.452 C 203.686 115.739,203.750 115.888,203.750 116.262 C 203.750 116.384,203.846 116.424,203.963 116.351 C 204.081 116.278,204.151 116.310,204.120 116.422 C 204.026 116.754,205.708 119.975,205.983 119.988 C 206.133 119.995,206.182 120.142,206.104 120.347 C 206.014 120.580,206.051 120.644,206.215 120.543 C 206.359 120.453,206.458 120.518,206.458 120.702 C 206.458 120.872,206.602 121.156,206.778 121.332 C 206.954 121.508,207.095 121.702,207.091 121.763 C 207.054 122.312,207.115 122.505,207.292 122.396 C 207.406 122.325,207.500 122.413,207.500 122.592 C 207.500 122.771,207.609 122.917,207.743 122.917 C 207.877 122.917,207.925 122.978,207.850 123.052 C 207.776 123.127,207.877 123.321,208.076 123.484 C 208.275 123.647,208.313 123.717,208.162 123.639 C 207.933 123.522,207.933 123.573,208.160 123.937 C 208.310 124.178,208.510 124.375,208.604 124.375 C 208.698 124.375,208.717 124.469,208.646 124.583 C 208.575 124.698,208.616 124.792,208.738 124.792 C 208.859 124.792,208.940 124.862,208.917 124.948 C 208.824 125.300,209.212 126.038,209.422 125.908 C 209.546 125.832,209.590 125.862,209.520 125.976 C 209.377 126.207,211.133 129.324,211.649 129.755 C 211.907 129.971,211.911 129.997,211.667 129.875 C 211.410 129.748,211.415 129.792,211.691 130.120 C 211.876 130.341,212.089 130.779,212.163 131.094 C 212.238 131.409,212.380 131.667,212.479 131.667 C 212.577 131.667,212.774 131.947,212.916 132.289 C 213.057 132.631,213.246 132.867,213.334 132.812 C 213.463 132.732,213.777 133.427,213.689 133.599 C 213.607 133.758,214.482 134.958,214.619 134.874 C 214.711 134.817,214.731 134.916,214.663 135.093 C 214.552 135.381,215.208 135.417,220.603 135.417 C 226.231 135.417,226.668 135.390,226.687 135.052 C 226.760 133.763,226.772 89.347,226.700 88.799 L 226.611 88.119 220.858 88.174 L 215.104 88.229 215.068 99.583 C 215.044 106.887,215.108 111.185,215.246 111.632 C 215.364 112.014,215.488 112.670,215.522 113.090 C 215.655 114.734,215.858 115.928,216.021 116.034 C 216.208 116.155,216.193 117.001,216.001 117.193 C 215.937 117.258,215.822 117.068,215.748 116.772 C 215.674 116.476,215.523 116.289,215.413 116.356 C 215.302 116.425,215.268 116.337,215.337 116.158 C 215.409 115.969,215.323 115.784,215.126 115.709 C 214.942 115.638,214.792 115.491,214.792 115.382 C 214.792 115.273,214.909 115.243,215.052 115.316 C 215.195 115.388,215.150 115.314,214.951 115.151 C 214.752 114.988,214.651 114.794,214.725 114.719 C 214.800 114.644,214.752 114.583,214.618 114.583 C 214.484 114.583,214.375 114.343,214.375 114.050 C 214.375 113.757,214.290 113.570,214.186 113.634 C 214.082 113.698,214.050 113.548,214.115 113.301 C 214.202 112.966,214.163 112.895,213.959 113.020 C 213.788 113.126,213.736 113.108,213.821 112.971 C 213.974 112.722,213.450 111.347,213.125 111.146 C 213.007 111.073,212.964 110.925,213.031 110.817 C 213.220 110.511,212.913 109.769,212.661 109.925 C 212.528 110.008,212.496 109.967,212.583 109.826 C 212.754 109.550,212.131 108.125,211.839 108.125 C 211.731 108.125,211.689 108.048,211.747 107.955 C 211.805 107.861,211.640 107.554,211.379 107.273 C 211.119 106.993,210.940 106.658,210.983 106.531 C 211.025 106.403,210.930 106.168,210.770 106.008 C 210.610 105.848,210.364 105.369,210.224 104.942 C 210.083 104.516,209.891 104.167,209.798 104.167 C 209.705 104.167,209.569 103.928,209.496 103.637 C 209.417 103.325,209.269 103.166,209.134 103.250 C 208.998 103.334,208.943 103.274,209.000 103.104 C 209.053 102.946,208.995 102.701,208.871 102.561 C 208.273 101.884,208.125 101.668,208.125 101.475 C 208.125 101.360,207.914 101.061,207.656 100.811 C 207.398 100.560,207.314 100.427,207.469 100.515 C 207.696 100.645,207.705 100.591,207.513 100.233 C 207.383 99.990,207.187 99.792,207.076 99.792 C 206.965 99.792,206.886 99.721,206.900 99.635 C 206.913 99.549,206.906 99.432,206.884 99.375 C 206.861 99.318,206.812 99.110,206.774 98.914 C 206.737 98.717,206.509 98.281,206.270 97.944 C 206.030 97.607,205.833 97.229,205.833 97.103 C 205.833 96.978,205.741 96.875,205.629 96.875 C 205.517 96.875,205.365 96.638,205.293 96.349 C 205.220 96.059,204.976 95.723,204.750 95.603 C 204.524 95.482,204.394 95.328,204.462 95.260 C 204.529 95.193,204.420 94.956,204.219 94.735 C 204.018 94.513,203.897 94.318,203.949 94.301 C 204.164 94.232,202.404 91.042,202.151 91.042 C 201.999 91.042,201.886 90.971,201.900 90.885 C 201.974 90.415,201.848 89.992,201.667 90.104 C 201.552 90.175,201.458 90.063,201.458 89.856 C 201.457 89.649,201.271 89.174,201.044 88.802 L 200.631 88.125 194.945 88.125 L 189.259 88.125 189.262 111.771 M164.939 98.450 C 165.080 98.396,165.245 98.433,165.307 98.533 C 165.398 98.679,166.463 98.941,167.237 99.008 C 167.324 99.015,167.505 99.171,167.639 99.354 C 167.773 99.537,167.943 99.627,168.016 99.553 C 168.090 99.479,168.375 99.644,168.649 99.918 C 168.923 100.192,169.293 100.417,169.470 100.417 C 169.647 100.417,169.792 100.512,169.792 100.629 C 169.792 100.746,170.027 101.215,170.315 101.671 C 170.603 102.127,170.797 102.500,170.746 102.500 C 170.696 102.500,170.735 102.781,170.833 103.125 C 170.932 103.469,170.944 103.750,170.860 103.750 C 170.775 103.750,170.720 107.570,170.736 112.240 L 170.766 120.729 170.286 121.587 C 170.022 122.059,169.873 122.512,169.955 122.594 C 170.037 122.676,169.964 122.712,169.792 122.674 C 169.619 122.635,169.505 122.727,169.536 122.880 C 169.568 123.032,169.498 123.097,169.380 123.024 C 169.263 122.951,169.167 122.991,169.167 123.113 C 169.167 123.234,169.026 123.333,168.854 123.333 C 168.682 123.333,168.542 123.427,168.542 123.542 C 168.542 123.656,168.401 123.750,168.229 123.750 C 168.057 123.750,167.917 123.849,167.917 123.971 C 167.917 124.092,167.826 124.135,167.714 124.066 C 167.603 123.998,167.252 124.075,166.933 124.238 C 163.717 125.884,156.042 123.939,156.042 121.478 C 156.042 121.353,155.956 121.250,155.850 121.250 C 155.737 121.250,155.649 117.667,155.634 112.521 C 155.620 107.720,155.571 103.593,155.524 103.349 C 155.469 103.063,155.520 102.956,155.668 103.048 C 155.827 103.146,155.857 102.984,155.765 102.522 C 155.691 102.154,155.714 101.905,155.815 101.968 C 155.915 102.030,156.054 101.936,156.122 101.759 C 156.203 101.547,156.157 101.481,155.987 101.567 C 155.845 101.639,155.892 101.564,156.091 101.401 C 156.289 101.238,156.383 101.029,156.299 100.936 C 156.215 100.843,156.254 100.829,156.387 100.905 C 156.521 100.981,156.869 100.758,157.169 100.401 C 157.465 100.048,157.708 99.828,157.708 99.912 C 157.708 99.996,157.872 99.922,158.073 99.747 C 158.586 99.299,160.787 98.517,161.725 98.448 C 162.158 98.417,162.559 98.344,162.617 98.286 C 162.674 98.228,163.163 98.264,163.703 98.365 C 164.242 98.465,164.799 98.504,164.939 98.450 M292.732 98.429 C 294.268 98.575,294.300 98.583,296.198 99.391 C 296.685 99.599,297.086 99.703,297.090 99.624 C 297.093 99.544,297.193 99.645,297.311 99.848 C 297.429 100.051,297.637 100.153,297.773 100.075 C 297.909 99.997,297.956 100.005,297.877 100.093 C 297.798 100.181,297.927 100.454,298.163 100.699 C 299.388 101.972,299.410 102.167,299.414 111.898 C 299.416 118.502,299.352 120.922,299.170 121.142 C 299.034 121.306,298.992 121.552,299.077 121.690 C 299.166 121.833,299.143 121.885,299.024 121.811 C 298.806 121.677,297.917 122.735,297.917 123.129 C 297.917 123.255,297.822 123.300,297.707 123.228 C 297.591 123.157,297.441 123.245,297.373 123.423 C 297.304 123.602,297.164 123.696,297.062 123.632 C 296.959 123.569,296.875 123.599,296.875 123.700 C 296.875 123.801,296.400 124.012,295.820 124.170 C 295.240 124.328,294.723 124.527,294.670 124.611 C 294.618 124.695,294.261 124.713,293.877 124.651 C 293.492 124.588,293.124 124.625,293.057 124.733 C 292.985 124.850,292.381 124.861,291.545 124.760 C 290.779 124.668,290.088 124.633,290.008 124.683 C 289.928 124.732,289.378 124.645,288.785 124.488 C 288.193 124.332,287.707 124.266,287.705 124.342 C 287.703 124.417,287.633 124.380,287.549 124.260 C 287.327 123.942,285.760 123.013,285.557 123.079 C 285.463 123.110,285.445 123.039,285.519 122.920 C 285.592 122.802,285.505 122.649,285.326 122.580 C 285.147 122.512,285.000 122.337,285.000 122.193 C 285.000 122.049,284.807 121.686,284.571 121.386 C 284.088 120.771,283.905 103.377,284.374 102.503 C 284.654 101.978,284.638 101.818,284.323 102.007 C 283.928 102.244,284.575 101.454,285.414 100.675 C 285.817 100.302,286.297 99.853,286.482 99.679 C 286.667 99.505,287.019 99.323,287.264 99.276 C 287.509 99.229,287.825 99.119,287.966 99.032 C 288.107 98.945,288.364 98.851,288.538 98.824 C 289.958 98.597,290.563 98.474,290.929 98.335 C 291.163 98.246,291.412 98.207,291.482 98.248 C 291.552 98.289,292.114 98.370,292.732 98.429 M339.041 99.431 C 339.110 99.362,339.167 99.420,339.167 99.561 C 339.167 99.701,339.260 99.758,339.375 99.688 C 339.490 99.617,339.583 99.657,339.583 99.777 C 339.583 99.896,339.888 100.124,340.260 100.283 C 340.826 100.524,342.086 101.619,341.933 101.736 C 341.794 101.841,342.159 102.686,342.304 102.596 C 342.400 102.537,342.442 102.677,342.398 102.907 C 342.353 103.137,342.406 103.379,342.513 103.446 C 342.635 103.521,342.630 103.716,342.501 103.957 C 342.255 104.416,342.225 104.858,342.448 104.720 C 342.626 104.610,342.596 105.521,342.400 106.146 C 342.329 106.375,342.283 106.646,342.299 106.748 C 342.314 106.849,342.248 106.990,342.151 107.060 C 342.055 107.130,341.742 107.538,341.456 107.967 C 341.171 108.396,340.835 108.748,340.709 108.749 C 340.584 108.749,340.215 108.979,339.890 109.258 C 339.565 109.538,339.246 109.756,339.181 109.743 C 339.116 109.730,338.547 109.787,337.917 109.871 C 335.674 110.166,329.775 110.134,329.893 109.827 C 329.952 109.674,330.000 107.262,330.000 104.467 L 330.000 99.384 334.010 99.327 C 336.216 99.296,338.222 99.335,338.468 99.414 C 338.714 99.492,338.972 99.500,339.041 99.431 M380.833 99.380 C 380.833 99.449,381.302 99.625,381.875 99.772 C 382.448 99.918,382.917 100.129,382.917 100.240 C 382.917 100.351,383.010 100.383,383.125 100.313 C 383.240 100.242,383.333 100.289,383.333 100.417 C 383.333 100.545,383.404 100.607,383.490 100.555 C 383.660 100.452,384.177 100.935,384.174 101.194 C 384.169 101.606,384.425 102.077,384.596 101.971 C 384.701 101.906,384.725 102.014,384.650 102.211 C 384.555 102.459,384.590 102.521,384.765 102.413 C 384.948 102.300,384.980 102.401,384.885 102.783 C 384.812 103.073,384.809 103.402,384.879 103.515 C 385.065 103.815,385.133 119.587,384.947 119.303 C 384.860 119.171,384.805 119.343,384.824 119.688 C 384.842 120.031,384.706 120.666,384.521 121.098 C 384.336 121.529,384.184 121.931,384.183 121.990 C 384.179 122.262,382.218 123.788,381.694 123.927 C 381.507 123.977,379.456 124.058,377.135 124.107 L 372.917 124.197 372.917 111.791 L 372.917 99.385 376.510 99.328 C 378.487 99.296,380.268 99.267,380.469 99.263 C 380.669 99.259,380.833 99.312,380.833 99.380 M39.063 101.573 C 47.358 105.526,44.392 118.302,35.280 117.866 C 28.387 117.537,25.048 109.010,29.691 103.592 C 31.917 100.996,36.003 100.116,39.063 101.573 M67.020 101.146 C 71.258 102.405,73.998 106.769,73.145 110.900 C 71.427 119.217,60.981 120.522,57.504 112.854 C 54.651 106.563,60.603 99.241,67.020 101.146 M201.101 119.063 C 201.103 119.635,201.143 119.845,201.191 119.528 C 201.239 119.212,201.238 118.743,201.188 118.487 C 201.139 118.230,201.100 118.490,201.101 119.063 M201.104 122.083 C 201.104 122.714,201.143 122.971,201.191 122.656 C 201.239 122.341,201.239 121.826,201.191 121.510 C 201.143 121.195,201.104 121.453,201.104 122.083 M201.098 125.208 C 201.098 125.724,201.139 125.935,201.189 125.677 C 201.238 125.419,201.238 124.997,201.189 124.740 C 201.139 124.482,201.098 124.693,201.098 125.208 M201.101 128.646 C 201.103 129.219,201.143 129.428,201.191 129.112 C 201.239 128.795,201.238 128.326,201.188 128.070 C 201.139 127.814,201.100 128.073,201.101 128.646 M201.101 131.563 C 201.103 132.135,201.143 132.345,201.191 132.028 C 201.239 131.712,201.238 131.243,201.188 130.987 C 201.139 130.730,201.100 130.990,201.101 131.563 " stroke="none" fill="#1ce383" fill-rule="evenodd"></path><path id="path1" d="M122.969 87.233 C 123.284 87.280,123.799 87.280,124.115 87.233 C 124.430 87.185,124.172 87.146,123.542 87.146 C 122.911 87.146,122.654 87.185,122.969 87.233 M248.432 87.415 C 247.398 87.575,245.757 87.989,244.786 88.335 C 242.770 89.054,243.039 89.031,245.729 88.254 C 246.760 87.956,248.589 87.582,249.792 87.423 C 250.995 87.263,251.604 87.131,251.146 87.128 C 250.688 87.126,249.466 87.255,248.432 87.415 M253.646 87.290 C 253.990 87.381,255.110 87.613,256.135 87.804 C 257.160 87.996,258.411 88.340,258.916 88.570 C 259.420 88.799,259.880 88.939,259.939 88.881 C 260.246 88.574,256.237 87.446,254.063 87.228 C 253.314 87.152,253.197 87.170,253.646 87.290 M118.958 87.535 C 117.603 87.823,114.526 88.762,114.622 88.858 C 114.667 88.903,115.417 88.720,116.289 88.451 C 117.654 88.030,119.091 87.732,121.250 87.423 C 121.536 87.382,121.349 87.346,120.833 87.342 C 120.318 87.339,119.474 87.426,118.958 87.535 M126.330 87.521 C 127.005 87.620,128.317 87.942,129.247 88.238 C 131.645 89.000,131.658 89.003,130.674 88.532 C 129.494 87.967,126.787 87.285,125.852 87.317 C 125.285 87.336,125.400 87.386,126.330 87.521 M161.728 87.447 C 162.622 87.486,164.028 87.486,164.853 87.446 C 165.679 87.407,164.948 87.375,163.229 87.375 C 161.510 87.375,160.835 87.408,161.728 87.447 M286.622 87.704 C 284.528 88.145,282.630 88.741,282.794 88.905 C 282.857 88.968,283.308 88.867,283.797 88.682 C 285.276 88.123,287.492 87.673,289.583 87.508 L 291.563 87.352 290.000 87.337 C 289.141 87.328,287.620 87.493,286.622 87.704 M293.871 87.496 C 295.621 87.645,298.749 88.285,300.521 88.856 C 300.868 88.967,300.882 88.953,300.602 88.772 C 299.808 88.255,296.074 87.486,293.958 87.403 L 291.771 87.317 293.871 87.496 M156.979 87.913 C 155.384 88.340,153.732 88.922,154.063 88.941 C 154.177 88.948,154.880 88.758,155.625 88.519 C 156.370 88.281,157.635 87.962,158.438 87.811 C 159.409 87.629,159.653 87.535,159.167 87.530 C 158.766 87.526,157.781 87.698,156.979 87.913 M166.719 87.644 C 166.919 87.696,167.247 87.696,167.448 87.644 C 167.648 87.591,167.484 87.548,167.083 87.548 C 166.682 87.548,166.518 87.591,166.719 87.644 M168.229 87.851 C 168.458 87.903,169.429 88.180,170.386 88.465 C 171.343 88.751,172.164 88.947,172.210 88.901 C 172.341 88.770,168.699 87.700,168.229 87.730 L 167.813 87.757 168.229 87.851 M328.750 87.932 C 338.995 88.065,340.056 88.112,341.875 88.515 C 344.301 89.052,344.780 89.058,342.813 88.527 C 340.479 87.897,336.560 87.707,326.771 87.748 L 317.604 87.787 328.750 87.932 M360.721 87.969 C 360.667 88.112,360.646 98.870,360.676 111.875 L 360.731 135.521 360.782 111.696 L 360.833 87.871 371.302 87.974 C 380.944 88.070,381.927 88.112,383.750 88.515 C 386.177 89.052,386.654 89.058,384.688 88.527 C 381.764 87.738,360.993 87.254,360.721 87.969 M189.010 111.719 L 189.061 135.521 189.115 111.817 L 189.168 88.113 195.085 88.171 C 198.340 88.203,200.959 88.159,200.905 88.073 C 200.852 87.987,198.142 87.917,194.884 87.917 L 188.958 87.917 189.010 111.719 M220.780 88.073 L 226.873 88.131 226.927 111.826 L 226.981 135.521 227.032 111.719 L 227.083 87.917 220.885 87.965 L 214.688 88.014 220.780 88.073 M201.045 88.568 C 201.040 88.752,202.100 90.625,202.210 90.625 C 202.259 90.625,202.114 90.273,201.887 89.844 C 201.395 88.912,201.049 88.388,201.045 88.568 M263.324 90.922 C 263.730 91.257,264.663 92.148,265.398 92.901 C 266.480 94.011,266.583 94.082,265.942 93.276 C 265.233 92.386,263.784 91.068,262.907 90.515 C 262.730 90.404,262.918 90.587,263.324 90.922 M134.167 90.487 C 134.167 90.542,134.659 90.989,135.260 91.481 C 135.938 92.036,136.156 92.155,135.833 91.793 C 135.302 91.198,134.167 90.308,134.167 90.487 M175.417 90.481 C 175.417 90.591,177.167 91.879,177.708 92.167 C 178.141 92.398,176.733 91.233,176.007 90.761 C 175.683 90.549,175.417 90.423,175.417 90.481 M238.986 91.268 C 237.559 92.403,237.616 92.532,239.063 91.440 C 240.104 90.654,240.352 90.417,240.131 90.417 C 240.089 90.417,239.573 90.800,238.986 91.268 M110.000 91.534 C 109.370 92.034,108.620 92.712,108.333 93.041 C 108.047 93.370,108.282 93.219,108.856 92.705 C 109.429 92.191,110.226 91.517,110.627 91.208 C 111.027 90.898,111.307 90.640,111.250 90.635 C 111.193 90.630,110.630 91.034,110.000 91.534 M149.242 91.535 C 148.570 92.036,147.693 92.807,147.292 93.249 C 146.757 93.838,146.868 93.772,147.708 93.001 C 148.339 92.423,149.253 91.686,149.740 91.364 C 150.544 90.832,150.769 90.625,150.544 90.625 C 150.499 90.625,149.913 91.035,149.242 91.535 M304.479 90.763 C 305.011 91.267,306.319 92.120,306.004 91.757 C 305.811 91.536,305.342 91.177,304.962 90.960 C 304.582 90.743,304.365 90.655,304.479 90.763 M347.917 90.674 C 347.974 90.736,348.490 91.139,349.063 91.569 C 349.676 92.029,349.917 92.145,349.648 91.852 C 349.397 91.578,348.881 91.176,348.502 90.957 C 348.123 90.739,347.859 90.611,347.917 90.674 M390.000 90.718 C 390.000 90.776,390.286 90.971,390.636 91.152 C 390.986 91.332,391.994 92.145,392.876 92.957 L 394.479 94.433 392.886 92.858 C 391.516 91.504,390.000 90.380,390.000 90.718 M277.527 91.684 C 276.939 92.152,276.458 92.586,276.458 92.647 C 276.458 92.708,276.904 92.403,277.448 91.969 C 278.739 90.938,278.856 90.833,278.715 90.833 C 278.649 90.833,278.115 91.216,277.527 91.684 M307.083 92.813 C 307.472 93.214,307.837 93.542,307.894 93.542 C 307.952 93.542,307.680 93.214,307.292 92.813 C 306.903 92.411,306.538 92.083,306.481 92.083 C 306.423 92.083,306.695 92.411,307.083 92.813 M351.170 93.646 C 352.161 94.955,352.401 95.216,352.127 94.688 C 352.008 94.458,351.567 93.896,351.147 93.438 L 350.382 92.604 351.170 93.646 M137.219 93.348 C 137.590 94.034,138.653 95.408,138.816 95.412 C 138.998 95.417,138.478 94.671,137.586 93.646 C 137.287 93.302,137.122 93.168,137.219 93.348 M179.366 93.906 C 179.753 94.393,180.107 94.792,180.153 94.792 C 180.300 94.792,179.408 93.619,179.028 93.315 C 178.827 93.153,178.979 93.419,179.366 93.906 M236.208 94.010 C 235.425 94.978,235.134 95.417,235.275 95.417 C 235.325 95.417,235.756 94.901,236.232 94.271 C 237.253 92.918,237.237 92.740,236.208 94.010 M204.167 94.014 C 204.166 94.220,205.428 96.458,205.546 96.458 C 205.595 96.458,205.484 96.166,205.300 95.808 C 204.785 94.813,204.168 93.836,204.167 94.014 M274.306 95.156 C 273.629 96.234,273.287 96.899,273.369 96.975 C 273.406 97.011,273.782 96.440,274.203 95.707 C 275.032 94.263,275.102 93.889,274.306 95.156 M309.834 96.558 C 310.083 97.071,310.323 97.455,310.366 97.411 C 310.461 97.317,309.619 95.625,309.478 95.625 C 309.424 95.625,309.584 96.045,309.834 96.558 M105.610 97.221 C 105.268 97.984,105.016 98.693,105.050 98.796 C 105.085 98.900,105.405 98.275,105.761 97.409 C 106.562 95.463,106.457 95.333,105.610 97.221 M267.711 95.892 C 267.710 95.982,267.943 96.518,268.229 97.083 C 268.878 98.363,268.896 98.246,267.969 98.736 C 267.039 99.227,267.154 99.290,268.189 98.857 C 269.215 98.429,269.222 98.377,268.423 96.975 C 268.033 96.290,267.712 95.803,267.711 95.892 M395.208 95.899 C 395.208 95.934,395.425 96.427,395.689 96.992 C 395.954 97.558,396.275 98.255,396.404 98.542 C 396.533 98.828,396.645 98.950,396.653 98.811 C 396.667 98.549,395.421 95.833,395.286 95.833 C 395.243 95.833,395.208 95.863,395.208 95.899 M144.257 98.022 C 142.719 101.704,142.959 124.293,144.554 125.887 C 144.647 125.980,144.481 125.373,144.185 124.539 L 143.646 123.021 143.646 111.667 L 143.646 100.313 144.182 98.802 C 144.740 97.229,144.786 96.756,144.257 98.022 M139.271 98.765 C 138.813 98.985,138.672 99.107,138.958 99.036 C 139.548 98.889,140.631 98.346,140.313 98.357 C 140.198 98.361,139.729 98.545,139.271 98.765 M161.281 98.556 C 160.668 98.664,160.012 98.853,159.823 98.975 C 159.519 99.172,159.524 99.184,159.864 99.077 C 161.762 98.480,164.871 98.524,166.577 99.172 C 166.887 99.290,167.184 99.344,167.237 99.291 C 167.698 98.830,163.011 98.252,161.281 98.556 M182.104 98.407 C 182.093 98.505,182.247 99.162,182.448 99.866 C 183.089 102.115,182.993 121.822,182.331 123.928 C 182.066 124.771,181.889 125.500,181.936 125.548 C 182.086 125.697,182.725 123.437,182.925 122.052 C 183.182 120.278,183.176 102.934,182.918 101.354 C 182.719 100.131,182.145 98.054,182.104 98.407 M289.410 98.671 C 287.606 99.114,287.897 99.235,289.806 98.837 C 291.466 98.490,293.094 98.572,294.792 99.086 C 296.150 99.498,296.332 99.411,295.059 98.958 C 293.491 98.401,291.024 98.275,289.410 98.671 M120.759 98.881 C 120.203 99.052,119.784 99.229,119.829 99.274 C 119.874 99.319,120.413 99.208,121.027 99.028 C 121.809 98.799,122.677 98.729,123.925 98.794 C 124.904 98.846,125.523 98.817,125.301 98.729 C 124.614 98.461,121.825 98.554,120.759 98.881 M249.583 98.785 C 249.182 98.898,248.760 99.091,248.646 99.214 C 248.500 99.369,248.563 99.389,248.854 99.279 C 250.339 98.718,252.726 98.619,254.583 99.041 C 254.870 99.106,254.729 99.028,254.271 98.867 C 253.311 98.529,250.653 98.483,249.583 98.785 M353.777 98.646 C 353.767 98.760,353.894 99.604,354.059 100.521 C 354.507 102.998,354.465 105.037,353.884 109.063 C 353.788 109.725,353.830 109.662,354.090 108.750 C 354.545 107.150,354.561 101.186,354.115 99.583 C 353.940 98.953,353.788 98.531,353.777 98.646 M233.311 100.255 C 232.849 102.335,232.919 121.958,233.393 123.542 C 233.678 124.494,233.716 124.547,233.616 123.854 C 233.550 123.396,233.415 122.411,233.317 121.667 C 232.986 119.152,233.084 102.997,233.444 100.936 C 233.816 98.800,233.731 98.362,233.311 100.255 M330.031 100.052 C 330.059 100.663,330.071 100.675,330.148 100.169 C 330.205 99.796,330.386 99.579,330.690 99.520 C 331.065 99.447,331.045 99.427,330.573 99.403 C 330.054 99.378,330.003 99.439,330.031 100.052 M333.177 99.519 C 333.378 99.571,333.706 99.571,333.906 99.519 C 334.107 99.466,333.943 99.423,333.542 99.423 C 333.141 99.423,332.977 99.466,333.177 99.519 M336.409 99.522 C 336.668 99.572,337.043 99.570,337.242 99.518 C 337.441 99.466,337.229 99.425,336.771 99.428 C 336.313 99.430,336.150 99.473,336.409 99.522 M373.018 111.667 L 373.021 124.063 377.083 124.053 C 381.229 124.044,382.698 123.776,383.219 122.934 C 383.423 122.602,383.284 122.648,382.162 123.281 C 381.167 123.842,381.063 123.856,377.137 123.925 L 373.128 123.997 373.072 111.634 L 373.016 99.271 373.018 111.667 M377.760 99.519 C 377.961 99.571,378.289 99.571,378.490 99.519 C 378.690 99.466,378.526 99.423,378.125 99.423 C 377.724 99.423,377.560 99.466,377.760 99.519 M207.292 99.700 C 207.292 99.950,208.736 102.292,208.890 102.292 C 208.949 102.292,208.740 101.846,208.425 101.302 C 207.637 99.941,207.292 99.453,207.292 99.700 M169.063 100.625 C 169.510 101.083,169.923 101.458,169.980 101.458 C 170.038 101.458,169.718 101.083,169.271 100.625 C 168.823 100.167,168.410 99.792,168.353 99.792 C 168.296 99.792,168.615 100.167,169.063 100.625 M156.966 100.677 L 156.354 101.354 157.031 100.742 C 157.404 100.406,157.708 100.101,157.708 100.065 C 157.708 99.904,157.536 100.046,156.966 100.677 M246.627 100.573 C 246.020 101.223,245.541 102.069,245.693 102.221 C 245.749 102.277,245.859 102.122,245.937 101.877 C 246.015 101.632,246.361 101.109,246.707 100.715 C 247.454 99.864,247.392 99.753,246.627 100.573 M132.604 101.363 C 131.917 101.645,131.152 101.980,130.905 102.108 C 130.658 102.236,130.330 102.269,130.176 102.182 C 129.958 102.058,129.950 102.081,130.140 102.287 C 130.347 102.511,133.591 101.396,134.149 100.909 C 134.377 100.711,133.738 100.899,132.604 101.363 M257.892 101.198 C 258.128 101.631,258.926 102.500,259.088 102.500 C 259.151 102.500,258.905 102.125,258.542 101.667 C 257.849 100.792,257.556 100.581,257.892 101.198 M260.988 101.504 C 260.099 101.859,259.407 102.185,259.451 102.229 C 259.528 102.306,262.725 101.092,262.899 100.919 C 263.106 100.715,262.497 100.901,260.988 101.504 M284.959 101.296 C 284.215 102.450,284.167 103.086,284.171 111.750 C 284.176 120.376,284.327 122.083,285.084 122.083 C 285.141 122.083,285.007 121.685,284.786 121.198 C 284.410 120.370,284.384 119.757,284.380 111.750 C 284.375 103.073,284.438 102.248,285.167 101.405 C 285.341 101.204,285.434 100.990,285.374 100.930 C 285.314 100.870,285.127 101.034,284.959 101.296 M341.042 101.157 C 341.042 101.220,341.276 101.617,341.563 102.039 C 342.180 102.947,342.264 102.694,341.669 101.719 C 341.288 101.095,341.042 100.874,341.042 101.157 M330.062 102.917 C 330.062 103.547,330.101 103.805,330.149 103.490 C 330.197 103.174,330.197 102.659,330.149 102.344 C 330.101 102.029,330.062 102.286,330.062 102.917 M299.116 109.434 C 299.146 113.354,299.197 117.453,299.229 118.542 C 299.261 119.630,299.301 116.583,299.317 111.771 C 299.333 106.958,299.282 102.860,299.204 102.663 C 299.126 102.466,299.087 105.513,299.116 109.434 M116.715 103.750 C 116.715 104.151,116.758 104.315,116.810 104.115 C 116.863 103.914,116.863 103.586,116.810 103.385 C 116.758 103.185,116.715 103.349,116.715 103.750 M116.737 106.042 C 116.737 106.901,116.773 107.253,116.818 106.823 C 116.863 106.393,116.863 105.690,116.818 105.260 C 116.773 104.831,116.737 105.182,116.737 106.042 M384.862 106.042 C 384.862 106.901,384.898 107.253,384.943 106.823 C 384.988 106.393,384.988 105.690,384.943 105.260 C 384.898 104.831,384.862 105.182,384.862 106.042 M211.156 106.615 C 211.856 107.886,212.474 108.784,212.266 108.229 C 212.095 107.774,210.583 105.208,210.485 105.208 C 210.428 105.208,210.730 105.841,211.156 106.615 M330.060 106.146 C 330.061 106.719,330.102 106.928,330.149 106.612 C 330.197 106.295,330.196 105.826,330.147 105.570 C 330.097 105.314,330.058 105.573,330.060 106.146 M271.928 106.146 C 271.930 106.604,271.973 106.767,272.022 106.508 C 272.072 106.249,272.070 105.874,272.018 105.675 C 271.966 105.475,271.925 105.688,271.928 106.146 M341.667 107.011 C 341.667 107.124,341.319 107.632,340.894 108.140 C 340.469 108.647,340.338 108.875,340.604 108.646 C 341.261 108.079,341.949 107.088,341.794 106.932 C 341.724 106.863,341.667 106.898,341.667 107.011 M116.735 109.271 C 116.736 110.073,116.774 110.376,116.819 109.943 C 116.864 109.511,116.863 108.855,116.817 108.485 C 116.771 108.115,116.734 108.469,116.735 109.271 M384.862 109.375 C 384.862 110.234,384.898 110.586,384.943 110.156 C 384.988 109.727,384.988 109.023,384.943 108.594 C 384.898 108.164,384.862 108.516,384.862 109.375 M330.035 109.115 L 330.000 110.000 334.010 109.953 L 338.021 109.906 334.127 109.844 L 330.233 109.783 330.151 109.006 L 330.070 108.229 330.035 109.115 M200.218 108.610 C 200.203 108.872,201.926 112.518,202.020 112.424 C 202.065 112.379,201.680 111.464,201.165 110.390 C 200.650 109.316,200.224 108.515,200.218 108.610 M271.928 109.271 C 271.930 109.729,271.973 109.892,272.022 109.633 C 272.072 109.374,272.070 108.999,272.018 108.800 C 271.966 108.600,271.925 108.813,271.928 109.271 M116.737 112.500 C 116.737 113.359,116.773 113.711,116.818 113.281 C 116.863 112.852,116.863 112.148,116.818 111.719 C 116.773 111.289,116.737 111.641,116.737 112.500 M384.862 112.500 C 384.862 113.359,384.898 113.711,384.943 113.281 C 384.988 112.852,384.988 112.148,384.943 111.719 C 384.898 111.289,384.862 111.641,384.862 112.500 M271.923 112.500 C 271.923 112.901,271.966 113.065,272.019 112.865 C 272.071 112.664,272.071 112.336,272.019 112.135 C 271.966 111.935,271.923 112.099,271.923 112.500 M213.768 112.143 C 213.741 112.388,215.256 115.646,215.352 115.550 C 215.398 115.505,215.064 114.683,214.610 113.724 C 214.157 112.764,213.778 112.053,213.768 112.143 M351.304 114.820 C 350.818 115.492,350.464 116.042,350.516 116.042 C 350.666 116.042,352.360 113.747,352.269 113.668 C 352.224 113.630,351.790 114.148,351.304 114.820 M384.862 115.625 C 384.862 116.484,384.898 116.836,384.943 116.406 C 384.988 115.977,384.988 115.273,384.943 114.844 C 384.898 114.414,384.862 114.766,384.862 115.625 M116.735 115.729 C 116.736 116.531,116.774 116.834,116.819 116.402 C 116.864 115.969,116.863 115.313,116.817 114.943 C 116.771 114.573,116.734 114.927,116.735 115.729 M201.201 123.872 C 201.231 128.789,201.283 133.422,201.316 134.167 C 201.350 134.911,201.390 131.255,201.406 126.042 C 201.421 120.828,201.369 116.195,201.290 115.747 C 201.211 115.298,201.171 118.954,201.201 123.872 M271.928 115.729 C 271.930 116.188,271.973 116.350,272.022 116.091 C 272.072 115.832,272.070 115.457,272.018 115.258 C 271.966 115.059,271.925 115.271,271.928 115.729 M203.543 116.327 C 203.541 116.545,204.991 118.958,205.123 118.958 C 205.246 118.958,204.512 117.567,203.970 116.771 C 203.736 116.427,203.544 116.227,203.543 116.327 M348.392 117.549 C 347.679 118.026,347.135 118.455,347.183 118.502 C 347.288 118.608,348.416 117.898,349.271 117.188 C 350.179 116.433,349.869 116.561,348.392 117.549 M116.737 118.958 C 116.737 119.818,116.773 120.169,116.818 119.740 C 116.863 119.310,116.863 118.607,116.818 118.177 C 116.773 117.747,116.737 118.099,116.737 118.958 M384.844 118.229 C 384.847 118.688,384.889 118.850,384.939 118.591 C 384.989 118.332,384.987 117.957,384.935 117.758 C 384.883 117.559,384.842 117.771,384.844 118.229 M271.928 118.854 C 271.930 119.313,271.973 119.475,272.022 119.216 C 272.072 118.957,272.070 118.582,272.018 118.383 C 271.966 118.184,271.925 118.396,271.928 118.854 M330.729 120.363 C 331.188 120.409,331.750 120.605,331.979 120.797 C 332.393 121.143,332.393 121.142,331.999 120.677 C 331.694 120.317,331.404 120.216,330.749 120.243 L 329.896 120.278 330.729 120.363 M130.000 120.625 C 130.712 120.853,131.260 120.853,130.729 120.625 C 130.500 120.527,130.125 120.449,129.896 120.452 C 129.561 120.457,129.581 120.491,130.000 120.625 M257.944 120.990 L 257.697 121.563 258.106 121.043 C 258.484 120.564,258.569 120.543,259.206 120.776 C 259.828 121.004,259.856 120.999,259.491 120.723 C 258.847 120.235,258.224 120.343,257.944 120.990 M245.626 121.265 C 245.623 122.023,248.470 124.516,248.876 124.110 C 248.924 124.062,248.593 123.857,248.142 123.654 C 247.217 123.237,246.431 122.486,245.952 121.563 C 245.774 121.219,245.627 121.085,245.626 121.265 M330.062 122.083 C 330.062 122.714,330.101 122.971,330.149 122.656 C 330.197 122.341,330.197 121.826,330.149 121.510 C 330.101 121.195,330.062 121.453,330.062 122.083 M207.092 122.656 C 207.879 124.058,208.333 124.739,208.333 124.519 C 208.333 124.317,206.630 121.458,206.510 121.458 C 206.460 121.458,206.721 121.997,207.092 122.656 M169.643 122.255 C 169.404 122.579,168.689 123.116,168.054 123.448 C 167.419 123.781,166.932 124.085,166.972 124.125 C 167.216 124.369,169.662 122.715,170.005 122.075 C 170.319 121.487,170.148 121.573,169.643 122.255 M347.460 121.979 C 347.581 122.208,347.976 122.724,348.338 123.125 L 348.996 123.854 348.315 122.917 C 347.481 121.769,347.169 121.426,347.460 121.979 M128.208 122.581 C 127.853 122.954,127.150 123.463,126.646 123.713 C 126.142 123.962,125.871 124.166,126.044 124.167 C 126.494 124.167,128.485 122.786,128.751 122.291 C 129.045 121.740,128.974 121.778,128.208 122.581 M118.229 122.884 C 118.573 123.266,119.107 123.711,119.417 123.873 C 120.314 124.341,120.388 124.200,119.524 123.669 C 119.091 123.403,118.481 122.960,118.170 122.687 C 117.661 122.239,117.667 122.258,118.229 122.884 M264.657 123.253 C 265.672 123.770,266.544 124.151,266.596 124.099 C 266.693 124.002,263.213 122.283,262.957 122.302 C 262.877 122.308,263.643 122.736,264.657 123.253 M285.729 122.813 C 286.073 123.112,286.729 123.540,287.188 123.764 C 288.050 124.185,287.962 124.116,286.169 122.957 C 285.331 122.416,285.237 122.385,285.729 122.813 M134.601 122.579 C 134.804 122.763,137.917 124.130,137.917 124.035 C 137.917 123.920,134.910 122.500,134.666 122.500 C 134.583 122.500,134.553 122.535,134.601 122.579 M157.281 122.984 C 157.607 123.403,158.997 124.169,159.419 124.162 C 159.567 124.160,159.267 123.967,158.754 123.734 C 158.240 123.501,157.632 123.152,157.403 122.957 C 157.006 122.621,157.000 122.622,157.281 122.984 M255.427 123.558 C 254.917 123.893,254.590 124.167,254.701 124.167 C 254.929 124.167,256.458 123.163,256.458 123.013 C 256.458 122.880,256.466 122.876,255.427 123.558 M297.177 123.104 C 297.068 123.207,296.606 123.488,296.149 123.729 C 295.692 123.970,295.439 124.167,295.586 124.167 C 295.970 124.167,296.963 123.626,297.280 123.243 C 297.572 122.892,297.502 122.797,297.177 123.104 M333.958 123.400 C 333.958 123.436,334.333 123.969,334.792 124.583 C 335.828 125.972,335.898 125.798,334.876 124.375 C 334.213 123.452,333.958 123.182,333.958 123.400 M105.014 124.463 C 104.999 124.896,106.258 127.769,106.401 127.627 C 106.448 127.579,106.278 127.133,106.022 126.635 C 105.766 126.137,105.437 125.354,105.292 124.896 C 105.147 124.438,105.022 124.243,105.014 124.463 M330.060 125.313 C 330.061 125.885,330.102 126.095,330.149 125.778 C 330.197 125.462,330.196 124.993,330.147 124.737 C 330.097 124.480,330.058 124.740,330.060 125.313 M396.475 124.829 C 396.466 125.021,396.137 125.794,395.745 126.547 C 395.352 127.300,395.104 127.917,395.193 127.917 C 395.442 127.917,396.715 125.032,396.596 124.738 C 396.532 124.579,396.485 124.614,396.475 124.829 M310.517 125.453 C 310.436 125.719,310.094 126.393,309.756 126.950 C 309.419 127.507,309.187 128.006,309.240 128.060 C 309.357 128.177,310.297 126.602,310.618 125.752 C 310.743 125.421,310.804 125.110,310.754 125.060 C 310.704 125.010,310.597 125.187,310.517 125.453 M268.661 126.178 C 268.363 126.711,268.152 127.180,268.192 127.220 C 268.233 127.261,268.521 126.825,268.833 126.251 C 269.146 125.678,269.356 125.208,269.302 125.208 C 269.247 125.208,268.959 125.644,268.661 126.178 M350.625 125.995 C 350.625 126.192,351.801 127.500,351.977 127.500 C 352.046 127.500,351.802 127.125,351.433 126.667 C 350.748 125.814,350.625 125.712,350.625 125.995 M274.293 128.087 C 274.510 128.467,274.869 128.936,275.091 129.129 C 275.325 129.332,275.243 129.131,274.894 128.646 C 274.059 127.486,273.828 127.271,274.293 128.087 M330.060 128.438 C 330.061 129.010,330.102 129.220,330.149 128.903 C 330.197 128.587,330.196 128.118,330.147 127.862 C 330.097 127.605,330.058 127.865,330.060 128.438 M235.353 128.356 C 235.560 128.712,236.245 129.541,236.875 130.199 C 237.505 130.857,237.636 130.959,237.166 130.426 C 236.695 129.894,236.050 129.064,235.732 128.583 C 235.057 127.564,234.804 127.412,235.353 128.356 M337.798 128.760 C 338.974 130.403,339.393 130.758,338.327 129.208 C 337.830 128.485,337.325 127.833,337.205 127.759 C 337.084 127.684,337.351 128.135,337.798 128.760 M210.750 128.959 C 211.062 129.533,211.350 129.969,211.391 129.929 C 211.481 129.839,210.421 127.917,210.282 127.917 C 210.227 127.917,210.438 128.386,210.750 128.959 M138.025 129.115 C 137.578 129.659,137.427 129.917,137.691 129.688 C 138.157 129.282,139.062 128.125,138.912 128.125 C 138.872 128.125,138.472 128.570,138.025 129.115 M178.972 130.061 C 177.908 131.252,177.836 131.369,178.624 130.625 C 179.486 129.811,180.574 128.525,180.379 128.550 C 180.342 128.555,179.709 129.235,178.972 130.061 M146.873 129.789 C 147.234 130.246,147.639 130.686,147.772 130.769 C 147.905 130.851,147.653 130.477,147.211 129.938 C 146.769 129.399,146.365 128.958,146.312 128.958 C 146.258 128.958,146.511 129.332,146.873 129.789 M307.180 130.469 L 306.146 131.563 307.240 130.529 C 307.841 129.960,308.333 129.468,308.333 129.435 C 308.333 129.279,308.140 129.452,307.180 130.469 M393.013 130.469 L 391.979 131.563 393.073 130.529 C 393.674 129.960,394.167 129.468,394.167 129.435 C 394.167 129.279,393.974 129.452,393.013 130.469 M265.316 130.413 C 264.871 130.869,264.553 131.289,264.610 131.346 C 264.667 131.403,265.126 131.030,265.629 130.516 C 266.133 130.003,266.451 129.583,266.336 129.583 C 266.220 129.583,265.762 129.957,265.316 130.413 M276.146 130.417 C 276.593 130.875,277.006 131.250,277.064 131.250 C 277.121 131.250,276.802 130.875,276.354 130.417 C 275.907 129.958,275.494 129.583,275.436 129.583 C 275.379 129.583,275.698 129.958,276.146 130.417 M354.167 130.417 C 354.530 130.875,354.874 131.250,354.931 131.250 C 354.988 131.250,354.738 130.875,354.375 130.417 C 354.012 129.958,353.668 129.583,353.611 129.583 C 353.554 129.583,353.804 129.958,354.167 130.417 M108.646 130.625 C 109.093 131.083,109.506 131.458,109.564 131.458 C 109.621 131.458,109.302 131.083,108.854 130.625 C 108.407 130.167,107.994 129.792,107.936 129.792 C 107.879 129.792,108.198 130.167,108.646 130.625 M330.060 131.771 C 330.061 132.344,330.102 132.553,330.149 132.237 C 330.197 131.920,330.196 131.451,330.147 131.195 C 330.097 130.939,330.058 131.198,330.060 131.771 M111.563 133.037 C 112.119 133.477,113.727 134.288,114.375 134.455 C 114.661 134.529,114.384 134.351,113.758 134.058 C 113.132 133.766,112.476 133.403,112.300 133.253 C 112.123 133.103,111.792 132.919,111.563 132.844 L 111.146 132.707 111.563 133.037 M132.658 133.521 C 130.858 134.522,130.562 134.823,132.188 134.000 C 133.306 133.433,134.440 132.706,134.167 132.731 C 134.109 132.736,133.431 133.092,132.658 133.521 M213.272 133.349 C 213.511 133.741,213.903 134.391,214.144 134.792 C 214.385 135.193,214.582 135.449,214.583 135.361 C 214.584 135.097,213.311 132.927,213.065 132.776 C 212.940 132.698,213.033 132.956,213.272 133.349 M280.011 133.290 C 280.907 133.852,282.935 134.792,283.254 134.792 C 283.340 134.792,282.479 134.324,281.341 133.752 C 278.974 132.563,278.703 132.468,280.011 133.290 M150.851 133.000 C 151.040 133.181,153.501 134.375,153.672 134.368 C 153.870 134.360,151.106 132.917,150.893 132.917 C 150.822 132.917,150.803 132.954,150.851 133.000 M173.884 133.649 C 172.366 134.394,171.832 134.748,172.752 134.398 C 173.585 134.081,175.417 133.132,175.417 133.017 C 175.417 132.888,175.531 132.840,173.884 133.649 M240.417 133.137 C 240.939 133.494,242.684 134.375,242.858 134.370 C 242.947 134.368,242.416 134.040,241.676 133.641 C 240.372 132.939,239.779 132.701,240.417 133.137 M260.938 133.763 C 259.333 134.658,259.229 134.879,260.788 134.079 C 261.698 133.612,262.741 132.918,262.500 132.939 C 262.443 132.944,261.740 133.315,260.938 133.763 M302.813 133.550 C 301.642 134.239,301.685 134.386,302.873 133.758 C 303.889 133.221,304.320 132.921,304.063 132.930 C 303.948 132.934,303.385 133.213,302.813 133.550 M341.247 133.537 C 341.858 134.396,342.225 134.575,341.760 133.787 C 341.549 133.430,341.248 133.089,341.092 133.029 C 340.918 132.962,340.978 133.159,341.247 133.537 M388.438 133.565 C 387.750 133.901,387.422 134.116,387.708 134.041 C 388.309 133.884,390.208 132.932,389.896 132.944 C 389.781 132.949,389.125 133.228,388.438 133.565 M357.312 134.375 C 357.689 134.891,358.026 135.352,358.061 135.399 C 358.096 135.447,358.124 135.400,358.122 135.295 C 358.120 135.190,357.783 134.729,357.373 134.271 L 356.627 133.438 357.312 134.375 M330.053 134.688 C 330.055 135.146,330.098 135.309,330.147 135.050 C 330.197 134.791,330.195 134.416,330.143 134.216 C 330.091 134.017,330.050 134.229,330.053 134.688 " stroke="none" fill="#149b58" fill-rule="evenodd"></path><path id="path2" d="M214.854 90.000 C 214.854 90.630,214.893 90.888,214.941 90.573 C 214.989 90.258,214.989 89.742,214.941 89.427 C 214.893 89.112,214.854 89.370,214.854 90.000 M214.854 93.333 C 214.854 93.964,214.893 94.221,214.941 93.906 C 214.989 93.591,214.989 93.076,214.941 92.760 C 214.893 92.445,214.854 92.703,214.854 93.333 M214.854 96.458 C 214.854 97.089,214.893 97.346,214.941 97.031 C 214.989 96.716,214.989 96.201,214.941 95.885 C 214.893 95.570,214.854 95.828,214.854 96.458 M214.854 99.792 C 214.854 100.422,214.893 100.680,214.941 100.365 C 214.989 100.049,214.989 99.534,214.941 99.219 C 214.893 98.904,214.854 99.161,214.854 99.792 M214.854 102.917 C 214.854 103.547,214.893 103.805,214.941 103.490 C 214.989 103.174,214.989 102.659,214.941 102.344 C 214.893 102.029,214.854 102.286,214.854 102.917 M271.935 104.479 C 271.936 105.052,271.977 105.262,272.024 104.945 C 272.072 104.628,272.071 104.160,272.022 103.903 C 271.972 103.647,271.933 103.906,271.935 104.479 M214.854 106.042 C 214.854 106.672,214.893 106.930,214.941 106.615 C 214.989 106.299,214.989 105.784,214.941 105.469 C 214.893 105.154,214.854 105.411,214.854 106.042 M245.261 106.146 C 245.263 106.604,245.306 106.767,245.356 106.508 C 245.406 106.249,245.404 105.874,245.351 105.675 C 245.299 105.475,245.259 105.688,245.261 106.146 M271.932 107.708 C 271.932 108.224,271.972 108.435,272.022 108.177 C 272.072 107.919,272.072 107.497,272.022 107.240 C 271.972 106.982,271.932 107.193,271.932 107.708 M214.851 109.271 C 214.853 109.844,214.893 110.053,214.941 109.737 C 214.989 109.420,214.988 108.951,214.938 108.695 C 214.889 108.439,214.850 108.698,214.851 109.271 M245.261 109.271 C 245.263 109.729,245.306 109.892,245.356 109.633 C 245.406 109.374,245.404 108.999,245.351 108.800 C 245.299 108.600,245.259 108.813,245.261 109.271 M271.935 110.938 C 271.936 111.510,271.977 111.720,272.024 111.403 C 272.072 111.087,272.071 110.618,272.022 110.362 C 271.972 110.105,271.933 110.365,271.935 110.938 M245.257 112.500 C 245.257 112.901,245.300 113.065,245.352 112.865 C 245.404 112.664,245.404 112.336,245.352 112.135 C 245.300 111.935,245.257 112.099,245.257 112.500 M271.935 114.063 C 271.936 114.635,271.977 114.845,272.024 114.528 C 272.072 114.212,272.071 113.743,272.022 113.487 C 271.972 113.230,271.933 113.490,271.935 114.063 M245.261 115.729 C 245.263 116.188,245.306 116.350,245.356 116.091 C 245.406 115.832,245.404 115.457,245.351 115.258 C 245.299 115.059,245.259 115.271,245.261 115.729 M271.932 117.292 C 271.932 117.807,271.972 118.018,272.022 117.760 C 272.072 117.503,272.072 117.081,272.022 116.823 C 271.972 116.565,271.932 116.776,271.932 117.292 M245.261 118.854 C 245.263 119.313,245.306 119.475,245.356 119.216 C 245.406 118.957,245.404 118.582,245.351 118.383 C 245.299 118.184,245.259 118.396,245.261 118.854 M271.923 120.208 C 271.923 120.609,271.966 120.773,272.019 120.573 C 272.071 120.372,272.071 120.044,272.019 119.844 C 271.966 119.643,271.923 119.807,271.923 120.208 M332.083 120.781 C 332.355 121.154,332.611 121.458,332.651 121.458 C 332.809 121.458,332.292 120.677,331.951 120.400 C 331.726 120.217,331.776 120.362,332.083 120.781 M272.136 121.771 C 272.138 122.229,272.181 122.392,272.231 122.133 C 272.281 121.874,272.279 121.499,272.226 121.300 C 272.174 121.100,272.134 121.313,272.136 121.771 M288.032 124.157 C 288.148 124.273,288.567 124.417,288.965 124.477 C 289.699 124.589,289.560 124.501,288.442 124.145 C 288.025 124.012,287.891 124.016,288.032 124.157 M120.777 135.984 C 121.146 136.030,121.803 136.030,122.235 135.985 C 122.667 135.940,122.365 135.903,121.563 135.902 C 120.760 135.901,120.407 135.938,120.777 135.984 M124.115 135.984 C 124.487 136.030,125.096 136.030,125.469 135.984 C 125.841 135.938,125.536 135.900,124.792 135.900 C 124.047 135.900,123.742 135.938,124.115 135.984 M161.624 135.988 C 162.575 136.027,164.075 136.027,164.958 135.988 C 165.840 135.949,165.063 135.917,163.229 135.918 C 161.396 135.918,160.674 135.950,161.624 135.988 M249.427 135.985 C 249.857 136.030,250.560 136.030,250.990 135.985 C 251.419 135.940,251.068 135.903,250.208 135.903 C 249.349 135.903,248.997 135.940,249.427 135.985 M252.868 135.984 C 253.243 136.031,253.805 136.030,254.118 135.982 C 254.431 135.935,254.125 135.897,253.438 135.898 C 252.750 135.899,252.494 135.938,252.868 135.984 M290.260 135.988 C 291.148 136.027,292.602 136.027,293.490 135.988 C 294.378 135.949,293.651 135.917,291.875 135.917 C 290.099 135.917,289.372 135.949,290.260 135.988 " stroke="none" fill="#16bc6a" fill-rule="evenodd"></path><path id="path3" d="M226.715 91.667 C 226.715 92.068,226.758 92.232,226.810 92.031 C 226.863 91.831,226.863 91.503,226.810 91.302 C 226.758 91.102,226.715 91.266,226.715 91.667 M149.010 91.863 C 148.753 92.078,148.542 92.310,148.542 92.379 C 148.542 92.586,149.359 92.008,149.469 91.723 C 149.598 91.385,149.575 91.393,149.010 91.863 M348.750 91.613 C 348.922 91.680,349.185 91.883,349.334 92.065 C 349.565 92.346,349.572 92.325,349.379 91.927 C 349.254 91.669,348.991 91.466,348.795 91.475 C 348.505 91.488,348.497 91.514,348.750 91.613 M226.719 94.896 C 226.722 95.354,226.764 95.517,226.814 95.258 C 226.864 94.999,226.862 94.624,226.810 94.425 C 226.758 94.225,226.717 94.438,226.719 94.896 M226.715 98.125 C 226.715 98.526,226.758 98.690,226.810 98.490 C 226.863 98.289,226.863 97.961,226.810 97.760 C 226.758 97.560,226.715 97.724,226.715 98.125 M340.625 100.482 C 340.625 100.518,340.930 100.822,341.302 101.159 L 341.979 101.771 341.367 101.094 C 340.797 100.463,340.625 100.321,340.625 100.482 M226.715 101.250 C 226.715 101.651,226.758 101.815,226.810 101.615 C 226.863 101.414,226.863 101.086,226.810 100.885 C 226.758 100.685,226.715 100.849,226.715 101.250 M284.482 101.608 L 284.116 102.188 284.599 101.725 C 284.864 101.470,285.029 101.209,284.965 101.145 C 284.901 101.081,284.683 101.289,284.482 101.608 M360.923 102.083 C 360.923 102.313,360.996 102.500,361.086 102.500 C 361.176 102.500,361.250 102.313,361.250 102.083 C 361.250 101.854,361.176 101.667,361.086 101.667 C 360.996 101.667,360.923 101.854,360.923 102.083 M354.096 102.240 C 354.044 102.326,354.075 102.958,354.165 103.646 L 354.329 104.896 354.309 103.490 C 354.289 102.071,354.269 101.955,354.096 102.240 M397.179 111.875 C 397.179 116.859,397.206 118.898,397.239 116.406 C 397.273 113.914,397.273 109.836,397.239 107.344 C 397.206 104.852,397.179 106.891,397.179 111.875 M360.923 103.750 C 360.923 103.979,360.996 104.167,361.086 104.167 C 361.176 104.167,361.250 103.979,361.250 103.750 C 361.250 103.521,361.176 103.333,361.086 103.333 C 360.996 103.333,360.923 103.521,360.923 103.750 M311.518 104.479 C 311.519 105.052,311.560 105.262,311.608 104.945 C 311.656 104.628,311.654 104.160,311.605 103.903 C 311.556 103.647,311.516 103.906,311.518 104.479 M233.182 104.583 C 233.182 105.099,233.222 105.310,233.272 105.052 C 233.322 104.794,233.322 104.372,233.272 104.115 C 233.222 103.857,233.182 104.068,233.182 104.583 M226.715 104.583 C 226.715 104.984,226.758 105.148,226.810 104.948 C 226.863 104.747,226.863 104.419,226.810 104.219 C 226.758 104.018,226.715 104.182,226.715 104.583 M233.182 107.708 C 233.182 108.224,233.222 108.435,233.272 108.177 C 233.322 107.919,233.322 107.497,233.272 107.240 C 233.222 106.982,233.182 107.193,233.182 107.708 M311.515 107.708 C 311.515 108.224,311.556 108.435,311.605 108.177 C 311.655 107.919,311.655 107.497,311.605 107.240 C 311.556 106.982,311.515 107.193,311.515 107.708 M226.715 107.708 C 226.715 108.109,226.758 108.273,226.810 108.073 C 226.863 107.872,226.863 107.544,226.810 107.344 C 226.758 107.143,226.715 107.307,226.715 107.708 M233.182 110.833 C 233.182 111.349,233.222 111.560,233.272 111.302 C 233.322 111.044,233.322 110.622,233.272 110.365 C 233.222 110.107,233.182 110.318,233.182 110.833 M311.518 110.938 C 311.519 111.510,311.560 111.720,311.608 111.403 C 311.656 111.087,311.654 110.618,311.605 110.362 C 311.556 110.105,311.516 110.365,311.518 110.938 M226.715 110.833 C 226.715 111.234,226.758 111.398,226.810 111.198 C 226.863 110.997,226.863 110.669,226.810 110.469 C 226.758 110.268,226.715 110.432,226.715 110.833 M360.923 111.667 C 360.923 111.896,360.996 112.083,361.086 112.083 C 361.176 112.083,361.250 111.896,361.250 111.667 C 361.250 111.438,361.176 111.250,361.086 111.250 C 360.996 111.250,360.923 111.438,360.923 111.667 M360.923 113.333 C 360.923 113.563,360.996 113.750,361.086 113.750 C 361.176 113.750,361.250 113.563,361.250 113.333 C 361.250 113.104,361.176 112.917,361.086 112.917 C 360.996 112.917,360.923 113.104,360.923 113.333 M311.518 114.063 C 311.519 114.635,311.560 114.845,311.608 114.528 C 311.656 114.212,311.654 113.743,311.605 113.487 C 311.556 113.230,311.516 113.490,311.518 114.063 M233.182 114.167 C 233.182 114.682,233.222 114.893,233.272 114.635 C 233.322 114.378,233.322 113.956,233.272 113.698 C 233.222 113.440,233.182 113.651,233.182 114.167 M226.715 114.167 C 226.715 114.568,226.758 114.732,226.810 114.531 C 226.863 114.331,226.863 114.003,226.810 113.802 C 226.758 113.602,226.715 113.766,226.715 114.167 M233.182 117.292 C 233.182 117.807,233.222 118.018,233.272 117.760 C 233.322 117.503,233.322 117.081,233.272 116.823 C 233.222 116.565,233.182 116.776,233.182 117.292 M311.515 117.292 C 311.515 117.807,311.556 118.018,311.605 117.760 C 311.655 117.503,311.655 117.081,311.605 116.823 C 311.556 116.565,311.515 116.776,311.515 117.292 M226.715 117.292 C 226.715 117.693,226.758 117.857,226.810 117.656 C 226.863 117.456,226.863 117.128,226.810 116.927 C 226.758 116.727,226.715 116.891,226.715 117.292 M200.972 117.847 C 200.781 118.038,200.796 119.953,200.990 120.071 C 201.076 120.124,201.146 119.614,201.146 118.938 C 201.146 118.261,201.138 117.708,201.128 117.708 C 201.119 117.708,201.049 117.771,200.972 117.847 M311.434 120.163 C 311.365 120.577,311.396 120.771,311.511 120.656 C 311.616 120.551,311.667 120.243,311.624 119.972 C 311.559 119.555,311.529 119.584,311.434 120.163 M226.715 120.417 C 226.715 120.818,226.758 120.982,226.810 120.781 C 226.863 120.581,226.863 120.253,226.810 120.052 C 226.758 119.852,226.715 120.016,226.715 120.417 M206.263 120.587 C 206.243 121.010,206.652 121.667,206.934 121.663 C 207.130 121.661,207.131 121.624,206.937 121.501 C 206.800 121.414,206.595 121.111,206.482 120.827 C 206.369 120.544,206.270 120.436,206.263 120.587 M200.972 120.972 C 200.781 121.163,200.796 123.077,200.990 123.197 C 201.076 123.250,201.146 122.740,201.146 122.063 C 201.146 121.387,201.138 120.833,201.128 120.833 C 201.119 120.833,201.049 120.896,200.972 120.972 M360.923 121.250 C 360.923 121.479,360.996 121.667,361.086 121.667 C 361.176 121.667,361.250 121.479,361.250 121.250 C 361.250 121.021,361.176 120.833,361.086 120.833 C 360.996 120.833,360.923 121.021,360.923 121.250 M256.875 122.604 C 256.606 122.891,256.472 123.122,256.578 123.118 C 256.756 123.112,257.615 122.083,257.442 122.083 C 257.399 122.083,257.144 122.318,256.875 122.604 M360.923 122.917 C 360.923 123.146,360.996 123.333,361.086 123.333 C 361.176 123.333,361.250 123.146,361.250 122.917 C 361.250 122.688,361.176 122.500,361.086 122.500 C 360.996 122.500,360.923 122.688,360.923 122.917 M226.715 123.750 C 226.715 124.151,226.758 124.315,226.810 124.115 C 226.863 123.914,226.863 123.586,226.810 123.385 C 226.758 123.185,226.715 123.349,226.715 123.750 M200.972 124.306 C 200.782 124.496,200.796 126.202,200.990 126.322 C 201.076 126.375,201.146 125.912,201.146 125.293 C 201.146 124.674,201.138 124.168,201.128 124.167 C 201.119 124.167,201.049 124.229,200.972 124.306 M226.715 126.875 C 226.715 127.276,226.758 127.440,226.810 127.240 C 226.863 127.039,226.863 126.711,226.810 126.510 C 226.758 126.310,226.715 126.474,226.715 126.875 M200.972 127.431 C 200.781 127.621,200.796 129.536,200.990 129.655 C 201.076 129.707,201.146 129.197,201.146 128.521 C 201.146 127.845,201.138 127.292,201.128 127.292 C 201.119 127.292,201.049 127.354,200.972 127.431 M226.719 130.104 C 226.722 130.563,226.764 130.725,226.814 130.466 C 226.864 130.207,226.862 129.832,226.810 129.633 C 226.758 129.434,226.717 129.646,226.719 130.104 M148.021 130.625 C 148.228 130.854,148.491 131.042,148.606 131.042 C 148.720 131.042,148.598 130.854,148.333 130.625 C 148.069 130.396,147.806 130.208,147.748 130.208 C 147.691 130.208,147.813 130.396,148.021 130.625 M200.972 130.556 C 200.781 130.746,200.796 132.661,200.990 132.780 C 201.076 132.834,201.146 132.324,201.146 131.647 C 201.146 130.971,201.138 130.418,201.128 130.417 C 201.119 130.417,201.049 130.479,200.972 130.556 M226.715 133.333 C 226.715 133.734,226.758 133.898,226.810 133.698 C 226.863 133.497,226.863 133.169,226.810 132.969 C 226.758 132.768,226.715 132.932,226.715 133.333 M200.972 133.889 C 200.896 133.965,200.843 134.317,200.855 134.670 L 200.876 135.313 201.047 134.585 C 201.225 133.827,201.207 133.654,200.972 133.889 M242.500 134.031 C 242.786 134.182,243.065 134.269,243.119 134.225 C 243.265 134.104,242.651 133.756,242.292 133.756 C 242.119 133.756,242.213 133.879,242.500 134.031 " stroke="none" fill="#1bec84" fill-rule="evenodd"></path><path id="path4" d="M214.840 91.667 C 214.840 92.068,214.883 92.232,214.935 92.031 C 214.988 91.831,214.988 91.503,214.935 91.302 C 214.883 91.102,214.840 91.266,214.840 91.667 M181.265 96.771 C 181.265 96.885,181.399 97.214,181.563 97.500 C 181.726 97.786,181.860 97.927,181.860 97.813 C 181.860 97.698,181.726 97.370,181.563 97.083 C 181.399 96.797,181.265 96.656,181.265 96.771 M214.840 98.125 C 214.840 98.526,214.883 98.690,214.935 98.490 C 214.988 98.289,214.988 97.961,214.935 97.760 C 214.883 97.560,214.840 97.724,214.840 98.125 M272.425 99.627 C 272.355 99.890,272.305 100.292,272.315 100.521 C 272.325 100.750,272.419 100.572,272.524 100.125 C 272.727 99.259,272.641 98.823,272.425 99.627 M168.958 100.274 C 168.958 100.309,169.263 100.614,169.635 100.951 L 170.313 101.563 169.701 100.885 C 169.130 100.254,168.958 100.113,168.958 100.274 M245.268 104.479 C 245.269 105.052,245.310 105.262,245.358 104.945 C 245.406 104.628,245.404 104.160,245.355 103.903 C 245.306 103.647,245.266 103.906,245.268 104.479 M342.340 105.417 C 342.340 105.818,342.383 105.982,342.435 105.781 C 342.488 105.581,342.488 105.253,342.435 105.052 C 342.383 104.852,342.340 105.016,342.340 105.417 M170.678 106.146 C 170.680 106.604,170.723 106.767,170.772 106.508 C 170.822 106.249,170.820 105.874,170.768 105.675 C 170.716 105.475,170.675 105.688,170.678 106.146 M245.265 107.708 C 245.265 108.224,245.306 108.435,245.355 108.177 C 245.405 107.919,245.405 107.497,245.355 107.240 C 245.306 106.982,245.265 107.193,245.265 107.708 M214.840 107.708 C 214.840 108.109,214.883 108.273,214.935 108.073 C 214.988 107.872,214.988 107.544,214.935 107.344 C 214.883 107.143,214.840 107.307,214.840 107.708 M170.678 109.271 C 170.680 109.729,170.723 109.892,170.772 109.633 C 170.822 109.374,170.820 108.999,170.768 108.800 C 170.716 108.600,170.675 108.813,170.678 109.271 M245.268 110.938 C 245.269 111.510,245.310 111.720,245.358 111.403 C 245.406 111.087,245.404 110.618,245.355 110.362 C 245.306 110.105,245.266 110.365,245.268 110.938 M170.682 112.500 C 170.682 113.016,170.722 113.227,170.772 112.969 C 170.822 112.711,170.822 112.289,170.772 112.031 C 170.722 111.773,170.682 111.984,170.682 112.500 M245.268 114.063 C 245.269 114.635,245.310 114.845,245.358 114.528 C 245.406 114.212,245.404 113.743,245.355 113.487 C 245.306 113.230,245.266 113.490,245.268 114.063 M170.678 115.729 C 170.680 116.188,170.723 116.350,170.772 116.091 C 170.822 115.832,170.820 115.457,170.768 115.258 C 170.716 115.059,170.675 115.271,170.678 115.729 M245.265 117.292 C 245.265 117.807,245.306 118.018,245.355 117.760 C 245.405 117.503,245.405 117.081,245.355 116.823 C 245.306 116.565,245.265 116.776,245.265 117.292 M170.678 118.854 C 170.680 119.313,170.723 119.475,170.772 119.216 C 170.822 118.957,170.820 118.582,170.768 118.383 C 170.716 118.184,170.675 118.396,170.678 118.854 M160.521 124.578 C 160.919 124.754,162.247 124.873,162.066 124.716 C 162.018 124.675,161.557 124.586,161.042 124.517 C 160.416 124.435,160.243 124.455,160.521 124.578 M249.792 124.576 C 250.308 124.749,251.816 124.862,251.649 124.716 C 251.602 124.674,251.047 124.586,250.417 124.521 C 249.677 124.445,249.455 124.464,249.792 124.576 M123.180 124.733 C 123.497 124.781,123.965 124.779,124.222 124.730 C 124.478 124.681,124.219 124.641,123.646 124.643 C 123.073 124.644,122.863 124.685,123.180 124.733 M164.427 124.727 C 164.628 124.779,164.956 124.779,165.156 124.727 C 165.357 124.675,165.193 124.632,164.792 124.632 C 164.391 124.632,164.227 124.675,164.427 124.727 M353.315 129.548 C 353.427 129.758,353.683 130.063,353.883 130.225 C 354.108 130.408,354.057 130.263,353.751 129.844 C 353.203 129.096,352.998 128.957,353.315 129.548 M178.841 130.052 L 178.229 130.729 178.906 130.117 C 179.279 129.781,179.583 129.476,179.583 129.440 C 179.583 129.279,179.411 129.421,178.841 130.052 " stroke="none" fill="#1cd074" fill-rule="evenodd"></path></g></svg>