<svg id="svg" version="1.1" xmlns="http://www.w3.org/2000/svg" xmlns:xlink="http://www.w3.org/1999/xlink" width="400" height="225" viewBox="0, 0, 400,225"><g id="svgg"><path id="path0" d="M142.171 62.183 C 139.731 62.516,138.101 62.901,137.708 63.237 C 137.536 63.384,137.164 63.536,136.881 63.575 C 136.193 63.670,134.947 65.829,132.573 71.042 C 132.286 71.672,131.821 72.525,131.540 72.937 C 131.013 73.709,130.783 74.253,129.473 77.813 C 129.051 78.958,128.249 81.068,127.690 82.500 C 126.296 86.074,125.661 87.938,125.172 89.896 C 124.943 90.813,124.474 92.359,124.130 93.333 C 123.248 95.833,122.635 98.003,121.600 102.292 C 121.115 104.301,120.303 107.071,119.339 110.000 C 118.358 112.980,118.068 114.320,117.489 118.542 C 117.261 120.203,116.964 122.125,116.830 122.813 C 116.485 124.582,116.502 143.042,116.850 144.479 C 116.989 145.052,117.191 146.458,117.300 147.604 C 117.413 148.792,117.762 150.539,118.112 151.667 C 118.450 152.755,118.828 154.161,118.953 154.792 C 119.245 156.261,120.913 159.708,121.479 160.011 C 122.242 160.419,123.583 160.265,125.208 159.581 C 126.068 159.220,127.310 158.697,127.969 158.420 C 128.628 158.143,129.726 157.690,130.410 157.414 C 131.094 157.138,132.101 156.542,132.649 156.091 C 133.197 155.641,134.490 154.824,135.521 154.277 C 140.264 151.759,146.381 147.069,149.792 143.333 C 150.536 142.517,151.543 141.613,152.027 141.324 L 152.909 140.798 204.007 140.868 C 247.436 140.927,255.182 140.981,255.625 141.230 C 255.911 141.392,257.538 142.869,259.240 144.513 C 263.572 148.699,268.651 152.473,272.915 154.675 C 273.915 155.192,275.192 155.994,275.752 156.457 C 276.313 156.921,277.052 157.384,277.396 157.487 C 277.740 157.589,279.052 158.114,280.313 158.652 C 284.847 160.588,285.648 160.774,286.598 160.108 C 287.486 159.486,289.167 155.670,289.167 154.278 C 289.167 153.976,289.296 153.476,289.454 153.167 C 289.935 152.227,290.624 149.249,290.755 147.545 C 290.823 146.661,291.009 145.536,291.169 145.045 C 291.660 143.530,291.565 125.998,291.045 122.188 C 290.061 114.983,289.747 113.223,289.135 111.491 C 288.785 110.499,288.183 108.563,287.799 107.188 C 287.414 105.813,286.861 103.904,286.571 102.947 C 286.280 101.990,285.944 100.591,285.824 99.838 C 285.704 99.086,285.547 98.375,285.475 98.259 C 285.403 98.143,285.136 97.339,284.881 96.472 C 284.626 95.605,284.215 94.380,283.969 93.750 C 283.722 93.120,283.342 91.787,283.124 90.789 C 282.906 89.790,282.489 88.376,282.197 87.647 C 281.905 86.918,281.667 86.206,281.667 86.065 C 281.667 85.924,281.234 84.759,280.706 83.477 C 280.177 82.195,279.465 80.302,279.123 79.271 C 278.430 77.181,277.292 74.444,276.653 73.333 C 276.259 72.647,275.709 71.529,274.196 68.333 C 272.905 65.607,271.764 63.882,271.141 63.716 C 270.819 63.630,270.501 63.485,270.434 63.394 C 269.839 62.588,264.911 62.008,259.896 62.153 C 254.376 62.312,253.806 62.513,253.247 64.499 C 253.089 65.061,252.782 65.990,252.565 66.563 L 252.169 67.604 250.616 67.751 C 247.925 68.005,155.959 67.683,155.788 67.418 C 155.706 67.291,155.436 66.531,155.189 65.729 C 154.474 63.414,154.337 63.110,153.874 62.807 C 152.585 61.962,146.260 61.625,142.171 62.183 M181.146 91.131 C 196.947 96.429,195.664 119.330,179.382 122.617 C 167.008 125.114,156.932 111.197,162.629 99.476 C 166.044 92.449,174.163 88.790,181.146 91.131 M234.904 90.939 C 242.716 92.913,248.061 100.932,246.892 108.927 C 244.543 124.991,223.841 128.176,217.110 113.509 C 211.638 101.586,222.502 87.805,234.904 90.939 " stroke="none" fill="#1ce484" fill-rule="evenodd"></path><path id="path1" d="" stroke="none" fill="#30e8b0" fill-rule="evenodd"></path><path id="path2" d="" stroke="none" fill="#30e8b0" fill-rule="evenodd"></path><path id="path3" d="" stroke="none" fill="#30e8b0" fill-rule="evenodd"></path></g></svg>