<svg id="svg" version="1.1" xmlns="http://www.w3.org/2000/svg" xmlns:xlink="http://www.w3.org/1999/xlink" width="400" height="225" viewBox="0, 0, 400,225"><g id="svgg"><path id="path0" d="M196.042 46.571 C 195.870 46.622,194.370 46.759,192.708 46.877 C 187.534 47.242,183.326 47.914,178.333 49.172 C 177.932 49.273,177.229 49.448,176.771 49.560 C 176.011 49.746,175.506 49.883,173.646 50.408 C 172.717 50.671,170.373 51.449,169.896 51.654 C 169.667 51.752,169.151 51.947,168.750 52.087 C 168.349 52.226,167.740 52.460,167.396 52.605 C 167.052 52.751,166.536 52.941,166.250 53.027 C 165.127 53.364,157.981 56.792,155.833 58.024 C 155.089 58.451,154.187 58.968,153.830 59.173 C 146.670 63.275,137.041 71.576,131.966 78.021 C 131.515 78.594,131.096 79.109,131.036 79.167 C 127.983 82.057,120.956 94.885,118.825 101.458 C 118.657 101.974,118.441 102.583,118.344 102.813 C 118.247 103.042,117.965 103.932,117.717 104.792 C 117.470 105.651,117.146 106.776,116.997 107.292 C 116.848 107.807,116.612 108.792,116.472 109.479 C 116.333 110.167,116.139 111.057,116.041 111.458 C 115.943 111.859,115.756 112.891,115.626 113.750 C 115.496 114.609,115.306 115.828,115.203 116.458 C 114.533 120.545,114.431 130.148,115.011 134.479 C 115.517 138.263,115.720 139.502,116.238 141.979 C 116.647 143.933,116.836 144.687,117.391 146.563 C 117.696 147.594,118.022 148.719,118.115 149.063 C 118.329 149.853,118.782 151.136,119.552 153.125 L 120.156 154.688 200.181 154.740 L 280.206 154.792 280.610 153.907 C 281.035 152.976,282.411 148.898,283.019 146.771 C 283.215 146.083,283.450 145.286,283.541 145.000 C 283.631 144.714,283.817 143.917,283.953 143.229 C 284.089 142.542,284.279 141.604,284.375 141.146 C 286.255 132.190,286.414 121.873,284.802 113.542 C 284.702 113.026,284.512 112.042,284.378 111.354 C 284.245 110.667,284.055 109.776,283.956 109.375 C 283.857 108.974,283.664 108.177,283.527 107.604 C 282.756 104.384,280.981 99.319,279.329 95.625 C 277.920 92.474,275.596 88.089,274.576 86.657 C 274.351 86.340,274.167 86.029,274.167 85.964 C 274.167 85.775,271.495 81.923,270.031 80.000 C 261.239 68.458,248.417 58.753,234.688 53.248 C 233.313 52.696,232.000 52.166,231.771 52.070 C 228.587 50.733,219.076 48.242,215.000 47.676 C 214.255 47.573,212.943 47.392,212.083 47.273 C 208.490 46.777,197.042 46.277,196.042 46.571 M201.859 76.888 C 203.518 77.096,203.618 77.121,206.771 78.117 C 217.012 81.351,224.613 89.791,226.667 100.209 C 227.410 103.978,227.080 110.730,226.042 113.021 C 225.938 113.250,225.765 113.766,225.657 114.167 C 224.489 118.521,219.625 125.249,215.783 127.828 C 215.295 128.156,214.547 128.690,214.120 129.017 C 207.545 134.043,194.096 135.502,185.938 132.072 C 185.708 131.976,185.005 131.686,184.375 131.428 C 171.612 126.198,163.990 110.781,167.858 98.021 C 172.338 83.244,185.814 74.868,201.859 76.888 M192.184 206.452 C 192.325 206.681,208.300 206.681,208.441 206.453 C 208.500 206.357,204.842 206.278,200.312 206.278 C 195.782 206.278,192.124 206.356,192.184 206.452 " stroke="none" fill="#54d3e3" fill-rule="evenodd"></path><path id="path1" d="M194.063 76.792 C 177.761 79.188,167.193 90.405,167.193 105.313 C 167.193 128.562,194.272 141.935,214.345 128.600 C 227.688 119.737,230.917 101.517,221.408 88.750 C 215.343 80.607,203.460 75.411,194.063 76.792 M187.337 88.122 C 199.099 91.755,199.099 112.829,187.337 116.461 C 176.830 119.707,168.596 105.550,174.438 94.284 C 177.111 89.129,182.407 86.599,187.337 88.122 " stroke="none" fill="#fbfbfb" fill-rule="evenodd"></path><path id="path2" d="M191.563 45.000 C 191.491 45.115,190.553 45.208,189.467 45.208 C 188.295 45.208,187.500 45.292,187.500 45.417 C 187.500 45.536,186.875 45.625,186.042 45.625 C 185.208 45.625,184.583 45.714,184.583 45.833 C 184.583 45.949,184.035 46.042,183.356 46.042 C 182.457 46.042,182.096 46.125,182.008 46.354 C 181.924 46.574,181.581 46.667,180.852 46.667 C 180.282 46.667,179.758 46.760,179.688 46.875 C 179.617 46.990,179.189 47.083,178.738 47.083 C 178.286 47.083,177.917 47.177,177.917 47.292 C 177.917 47.406,177.495 47.500,176.979 47.500 C 176.464 47.500,176.042 47.594,176.042 47.708 C 176.042 47.823,175.707 47.917,175.298 47.917 C 174.888 47.917,174.410 48.060,174.234 48.236 C 174.058 48.412,173.750 48.504,173.549 48.440 C 173.348 48.376,173.065 48.467,172.921 48.641 C 172.776 48.816,172.393 48.958,172.070 48.958 C 171.747 48.958,171.425 49.052,171.354 49.167 C 171.283 49.281,170.950 49.375,170.613 49.375 C 170.276 49.375,170.000 49.469,170.000 49.583 C 170.000 49.698,169.672 49.792,169.271 49.792 C 168.870 49.792,168.542 49.885,168.542 50.000 C 168.542 50.115,168.347 50.208,168.110 50.208 C 167.873 50.208,167.538 50.349,167.366 50.521 C 167.194 50.693,166.873 50.833,166.652 50.833 C 166.431 50.833,166.250 50.927,166.250 51.042 C 166.250 51.156,165.969 51.250,165.625 51.250 C 165.281 51.250,165.000 51.344,165.000 51.458 C 165.000 51.573,164.766 51.667,164.479 51.667 C 164.193 51.667,163.958 51.760,163.958 51.875 C 163.958 51.990,163.734 52.083,163.460 52.083 C 163.186 52.083,162.907 52.224,162.841 52.396 C 162.775 52.568,162.577 52.708,162.400 52.708 C 162.087 52.708,161.868 52.794,160.888 53.301 C 160.632 53.433,160.280 53.542,160.107 53.542 C 159.934 53.542,159.792 53.635,159.792 53.750 C 159.792 53.865,159.644 53.958,159.464 53.958 C 159.284 53.958,159.000 54.095,158.833 54.262 C 158.666 54.429,158.392 54.513,158.223 54.448 C 158.055 54.383,157.917 54.434,157.917 54.562 C 157.917 54.689,157.542 54.955,157.083 55.154 C 156.625 55.352,156.250 55.587,156.250 55.674 C 156.250 55.762,156.063 55.833,155.833 55.833 C 155.604 55.833,155.417 55.927,155.417 56.042 C 155.417 56.156,155.229 56.250,155.000 56.250 C 154.771 56.250,154.583 56.344,154.583 56.459 C 154.583 56.574,154.208 56.830,153.750 57.029 C 153.292 57.227,152.917 57.462,152.917 57.549 C 152.917 57.637,152.776 57.708,152.604 57.708 C 152.432 57.708,152.292 57.802,152.292 57.917 C 152.292 58.031,152.156 58.125,151.990 58.125 C 151.824 58.125,151.435 58.359,151.126 58.646 C 150.817 58.932,150.437 59.167,150.282 59.167 C 150.127 59.167,150.000 59.260,150.000 59.375 C 150.000 59.490,149.859 59.583,149.688 59.583 C 149.516 59.583,149.375 59.677,149.375 59.792 C 149.375 59.906,149.230 60.000,149.053 60.000 C 148.875 60.000,148.524 60.212,148.271 60.472 C 148.019 60.731,147.555 61.075,147.240 61.236 C 146.924 61.397,146.667 61.607,146.667 61.702 C 146.667 61.797,146.526 61.875,146.354 61.875 C 146.182 61.875,146.042 61.969,146.042 62.083 C 146.042 62.198,145.943 62.292,145.823 62.292 C 145.703 62.292,145.388 62.526,145.122 62.813 C 144.857 63.099,144.543 63.333,144.425 63.333 C 144.307 63.333,143.764 63.755,143.218 64.271 C 142.672 64.786,142.170 65.208,142.102 65.209 C 141.941 65.209,141.035 65.992,139.431 67.516 C 138.716 68.195,138.088 68.750,138.034 68.750 C 137.917 68.750,135.321 71.397,133.800 73.067 C 133.197 73.729,132.288 74.693,131.778 75.208 C 131.269 75.724,130.848 76.263,130.843 76.406 C 130.838 76.549,130.740 76.667,130.625 76.667 C 130.510 76.667,130.417 76.767,130.417 76.889 C 130.417 77.011,130.089 77.421,129.688 77.799 C 129.286 78.177,128.958 78.601,128.958 78.740 C 128.958 78.879,128.637 79.305,128.245 79.686 C 127.853 80.067,127.591 80.438,127.663 80.510 C 127.735 80.583,127.541 80.860,127.231 81.126 C 126.920 81.393,126.667 81.721,126.667 81.856 C 126.667 81.991,126.432 82.354,126.146 82.663 C 125.859 82.972,125.625 83.332,125.625 83.462 C 125.625 83.592,125.486 83.814,125.317 83.955 C 125.147 84.095,124.854 84.505,124.666 84.866 C 124.477 85.226,124.187 85.779,124.021 86.094 C 123.855 86.409,123.650 86.667,123.565 86.667 C 123.480 86.667,123.282 86.995,123.125 87.396 C 122.968 87.797,122.763 88.125,122.669 88.125 C 122.576 88.125,122.500 88.313,122.500 88.542 C 122.500 88.771,122.406 88.958,122.292 88.958 C 122.177 88.958,122.083 89.136,122.083 89.353 C 122.083 89.570,121.944 89.800,121.774 89.866 C 121.599 89.933,121.518 90.122,121.588 90.303 C 121.659 90.489,121.571 90.675,121.376 90.750 C 121.192 90.820,121.042 91.055,121.042 91.272 C 121.042 91.489,120.948 91.667,120.833 91.667 C 120.719 91.667,120.625 91.849,120.625 92.071 C 120.625 92.293,120.531 92.533,120.417 92.604 C 120.302 92.675,120.208 92.915,120.208 93.137 C 120.208 93.360,120.115 93.542,120.000 93.542 C 119.885 93.542,119.792 93.732,119.792 93.965 C 119.792 94.198,119.651 94.442,119.479 94.508 C 119.307 94.574,119.167 94.800,119.167 95.010 C 119.167 95.220,119.073 95.450,118.958 95.521 C 118.844 95.592,118.750 95.878,118.750 96.158 C 118.750 96.438,118.656 96.667,118.542 96.667 C 118.427 96.667,118.333 96.901,118.333 97.188 C 118.333 97.474,118.240 97.708,118.125 97.708 C 118.010 97.708,117.917 97.980,117.917 98.311 C 117.917 98.672,117.783 98.965,117.583 99.042 C 117.395 99.114,117.300 99.304,117.365 99.475 C 117.430 99.642,117.346 99.916,117.179 100.083 C 117.012 100.250,116.875 100.628,116.875 100.923 C 116.875 101.217,116.781 101.458,116.667 101.458 C 116.552 101.458,116.458 101.786,116.458 102.188 C 116.458 102.589,116.365 102.917,116.250 102.917 C 116.135 102.917,116.042 103.192,116.042 103.529 C 116.042 103.866,115.948 104.200,115.833 104.271 C 115.719 104.342,115.625 104.725,115.625 105.123 C 115.625 105.574,115.507 105.892,115.313 105.966 C 115.100 106.048,115.000 106.380,115.000 107.001 C 115.000 107.505,114.906 107.917,114.792 107.917 C 114.677 107.917,114.583 108.339,114.583 108.854 C 114.583 109.370,114.490 109.792,114.375 109.792 C 114.260 109.792,114.167 110.307,114.167 110.938 C 114.167 111.568,114.073 112.083,113.958 112.083 C 113.844 112.083,113.750 112.592,113.750 113.214 C 113.750 113.942,113.639 114.457,113.438 114.658 C 113.211 114.884,113.125 115.435,113.125 116.652 C 113.125 117.634,113.038 118.333,112.917 118.333 C 112.781 118.333,112.708 121.111,112.708 126.250 C 112.708 131.389,112.781 134.167,112.917 134.167 C 113.038 134.167,113.125 134.866,113.125 135.848 C 113.125 137.065,113.211 137.616,113.438 137.842 C 113.638 138.042,113.750 138.557,113.750 139.273 C 113.750 139.889,113.844 140.450,113.958 140.521 C 114.073 140.592,114.167 141.113,114.167 141.679 C 114.167 142.245,114.260 142.708,114.375 142.708 C 114.490 142.708,114.583 143.130,114.583 143.646 C 114.583 144.161,114.677 144.583,114.792 144.583 C 114.906 144.583,115.000 144.995,115.000 145.499 C 115.000 146.120,115.100 146.452,115.313 146.534 C 115.507 146.608,115.625 146.926,115.625 147.377 C 115.625 147.775,115.719 148.158,115.833 148.229 C 115.948 148.300,116.042 148.628,116.042 148.958 C 116.042 149.289,116.135 149.617,116.250 149.688 C 116.365 149.758,116.458 150.092,116.458 150.429 C 116.458 150.766,116.552 151.042,116.667 151.042 C 116.781 151.042,116.875 151.283,116.875 151.577 C 116.875 151.872,117.012 152.250,117.179 152.417 C 117.346 152.584,117.425 152.870,117.355 153.053 C 117.279 153.249,117.368 153.464,117.572 153.578 C 117.762 153.684,117.917 154.000,117.917 154.281 C 117.917 154.562,118.010 154.792,118.125 154.792 C 118.240 154.792,118.333 155.026,118.333 155.313 C 118.333 155.599,118.427 155.833,118.542 155.833 C 118.656 155.833,118.750 156.115,118.750 156.458 C 118.750 156.802,118.838 157.083,118.944 157.083 C 119.051 157.083,119.178 157.341,119.226 157.656 C 119.274 157.971,119.327 157.690,119.344 157.031 L 119.375 155.833 200.833 155.833 L 282.292 155.833 282.292 155.410 C 282.292 155.177,282.432 154.933,282.604 154.867 C 282.782 154.799,282.917 154.488,282.917 154.144 C 282.917 153.813,283.010 153.542,283.125 153.542 C 283.240 153.542,283.333 153.260,283.333 152.917 C 283.333 152.573,283.427 152.292,283.542 152.292 C 283.656 152.292,283.750 152.010,283.750 151.667 C 283.750 151.323,283.844 151.042,283.958 151.042 C 284.073 151.042,284.167 150.766,284.167 150.429 C 284.167 150.092,284.260 149.758,284.375 149.688 C 284.490 149.617,284.583 149.337,284.583 149.065 C 284.583 148.794,284.724 148.431,284.896 148.259 C 285.068 148.087,285.208 147.612,285.208 147.202 C 285.208 146.793,285.302 146.458,285.417 146.458 C 285.531 146.458,285.625 146.089,285.625 145.637 C 285.625 145.186,285.719 144.758,285.833 144.688 C 285.948 144.617,286.042 144.142,286.042 143.634 C 286.042 143.125,286.135 142.708,286.250 142.708 C 286.365 142.708,286.458 142.237,286.458 141.660 C 286.458 140.921,286.550 140.577,286.771 140.492 C 287.004 140.403,287.083 140.032,287.083 139.040 C 287.083 138.291,287.175 137.708,287.292 137.708 C 287.414 137.708,287.500 136.979,287.500 135.938 C 287.500 134.896,287.586 134.167,287.708 134.167 C 287.844 134.167,287.917 131.389,287.917 126.250 C 287.917 121.111,287.844 118.333,287.708 118.333 C 287.586 118.333,287.500 117.604,287.500 116.563 C 287.500 115.521,287.414 114.792,287.292 114.792 C 287.175 114.792,287.083 114.209,287.083 113.460 C 287.083 112.468,287.004 112.097,286.771 112.008 C 286.550 111.923,286.458 111.579,286.458 110.840 C 286.458 110.263,286.365 109.792,286.250 109.792 C 286.135 109.792,286.042 109.370,286.042 108.854 C 286.042 108.339,285.948 107.917,285.833 107.917 C 285.719 107.917,285.625 107.495,285.625 106.979 C 285.625 106.464,285.531 106.042,285.417 106.042 C 285.302 106.042,285.208 105.677,285.208 105.231 C 285.208 104.702,285.100 104.378,284.896 104.300 C 284.715 104.230,284.583 103.919,284.583 103.561 C 284.583 103.220,284.490 102.883,284.375 102.813 C 284.260 102.742,284.167 102.408,284.167 102.071 C 284.167 101.734,284.073 101.458,283.958 101.458 C 283.844 101.458,283.750 101.177,283.750 100.833 C 283.750 100.490,283.656 100.208,283.542 100.208 C 283.427 100.208,283.333 99.927,283.333 99.583 C 283.333 99.240,283.240 98.958,283.125 98.958 C 283.010 98.958,282.917 98.721,282.917 98.431 C 282.917 98.141,282.776 97.850,282.604 97.784 C 282.432 97.718,282.292 97.439,282.292 97.165 C 282.292 96.891,282.198 96.667,282.083 96.667 C 281.969 96.667,281.875 96.438,281.875 96.158 C 281.875 95.878,281.781 95.592,281.667 95.521 C 281.552 95.450,281.458 95.210,281.458 94.988 C 281.458 94.765,281.365 94.583,281.250 94.583 C 281.135 94.583,281.042 94.349,281.042 94.063 C 281.042 93.776,280.955 93.542,280.849 93.542 C 280.626 93.542,280.000 92.365,280.000 91.947 C 280.000 91.793,279.906 91.667,279.792 91.667 C 279.677 91.667,279.583 91.479,279.583 91.250 C 279.583 91.021,279.490 90.833,279.375 90.833 C 279.260 90.833,279.167 90.599,279.167 90.313 C 279.167 90.026,279.075 89.792,278.964 89.792 C 278.852 89.792,278.569 89.393,278.335 88.906 C 277.790 87.773,277.209 86.757,276.877 86.356 C 276.733 86.183,276.692 86.042,276.785 86.042 C 276.878 86.042,276.803 85.924,276.619 85.781 C 276.434 85.638,276.097 85.182,275.869 84.768 C 275.135 83.430,274.904 83.075,274.427 82.544 C 274.169 82.257,273.958 81.916,273.958 81.786 C 273.958 81.657,273.771 81.415,273.542 81.250 C 273.313 81.085,273.125 80.825,273.125 80.673 C 273.125 80.521,272.797 80.058,272.396 79.645 C 271.995 79.232,271.667 78.813,271.667 78.712 C 271.667 78.556,270.920 77.650,270.052 76.756 C 269.909 76.609,269.792 76.430,269.792 76.360 C 269.792 76.289,269.553 75.978,269.260 75.668 C 268.968 75.358,268.288 74.603,267.750 73.991 C 266.509 72.580,262.333 68.333,262.187 68.333 C 262.126 68.333,261.472 67.759,260.734 67.057 C 259.996 66.355,259.177 65.634,258.915 65.455 C 258.652 65.277,257.982 64.726,257.425 64.232 C 256.869 63.738,256.331 63.333,256.231 63.333 C 256.131 63.333,255.711 63.005,255.298 62.604 C 254.885 62.203,254.415 61.875,254.253 61.875 C 254.091 61.875,253.958 61.805,253.958 61.719 C 253.958 61.633,253.536 61.296,253.020 60.970 C 252.505 60.645,252.083 60.293,252.083 60.189 C 252.083 60.085,251.896 60.000,251.667 60.000 C 251.438 60.000,251.250 59.917,251.250 59.815 C 251.250 59.714,250.945 59.486,250.573 59.308 C 250.201 59.131,249.689 58.792,249.436 58.555 C 249.183 58.319,248.831 58.125,248.655 58.125 C 248.478 58.125,248.333 58.031,248.333 57.917 C 248.333 57.802,248.193 57.708,248.021 57.708 C 247.849 57.708,247.708 57.637,247.708 57.549 C 247.708 57.462,247.333 57.227,246.875 57.029 C 246.417 56.830,246.042 56.574,246.042 56.459 C 246.042 56.344,245.854 56.250,245.625 56.250 C 245.396 56.250,245.208 56.156,245.208 56.042 C 245.208 55.927,245.021 55.833,244.792 55.833 C 244.563 55.833,244.375 55.762,244.375 55.674 C 244.375 55.587,244.000 55.352,243.542 55.154 C 243.083 54.955,242.708 54.689,242.708 54.562 C 242.708 54.434,242.564 54.386,242.388 54.453 C 242.206 54.523,242.016 54.443,241.949 54.267 C 241.884 54.097,241.606 53.958,241.332 53.958 C 241.058 53.958,240.833 53.865,240.833 53.750 C 240.833 53.635,240.691 53.542,240.518 53.542 C 240.345 53.542,239.993 53.433,239.737 53.301 C 238.757 52.794,238.538 52.708,238.225 52.708 C 238.048 52.708,237.850 52.568,237.784 52.396 C 237.718 52.224,237.439 52.083,237.165 52.083 C 236.891 52.083,236.667 51.990,236.667 51.875 C 236.667 51.760,236.432 51.667,236.146 51.667 C 235.859 51.667,235.625 51.573,235.625 51.458 C 235.625 51.344,235.396 51.250,235.116 51.250 C 234.837 51.250,234.557 51.168,234.496 51.069 C 234.434 50.969,234.094 50.829,233.741 50.759 C 233.383 50.687,233.155 50.536,233.228 50.419 C 233.305 50.295,233.097 50.208,232.721 50.208 C 232.370 50.208,232.083 50.115,232.083 50.000 C 232.083 49.885,231.755 49.792,231.354 49.792 C 230.953 49.792,230.625 49.698,230.625 49.583 C 230.625 49.469,230.344 49.375,230.000 49.375 C 229.656 49.375,229.375 49.281,229.375 49.167 C 229.375 49.052,229.055 48.958,228.663 48.958 C 228.272 48.958,227.917 48.855,227.875 48.728 C 227.832 48.601,227.473 48.460,227.076 48.414 C 226.679 48.367,226.323 48.237,226.285 48.123 C 226.247 48.010,225.848 47.917,225.399 47.917 C 224.951 47.917,224.583 47.823,224.583 47.708 C 224.583 47.594,224.214 47.500,223.762 47.500 C 223.311 47.500,222.883 47.406,222.813 47.292 C 222.742 47.177,222.320 47.083,221.875 47.083 C 221.430 47.083,221.008 46.990,220.938 46.875 C 220.867 46.760,220.343 46.667,219.773 46.667 C 219.044 46.667,218.701 46.574,218.617 46.354 C 218.531 46.130,218.180 46.042,217.374 46.042 C 216.756 46.042,216.250 45.948,216.250 45.833 C 216.250 45.713,215.590 45.625,214.688 45.625 C 213.785 45.625,213.125 45.537,213.125 45.417 C 213.125 45.293,212.365 45.208,211.262 45.208 C 210.238 45.208,209.342 45.115,209.271 45.000 C 209.188 44.866,206.009 44.792,200.417 44.792 C 194.824 44.792,191.645 44.866,191.563 45.000 M207.188 46.457 C 208.219 46.569,210.000 46.762,211.146 46.885 C 230.361 48.941,249.074 57.875,262.832 71.562 C 273.230 81.906,279.430 92.434,283.628 106.875 C 286.868 118.018,286.906 133.117,283.725 145.198 C 283.006 147.931,281.906 151.341,281.085 153.383 L 280.521 154.787 200.207 154.789 L 119.894 154.792 119.442 153.594 C 118.953 152.296,117.611 148.406,117.304 147.396 C 116.938 146.189,115.676 140.714,115.443 139.323 C 114.550 133.974,114.371 131.772,114.373 126.146 C 114.374 121.480,114.450 120.286,115.020 115.938 C 115.778 110.155,118.105 101.695,120.263 96.875 C 121.807 93.428,123.924 89.326,125.372 86.979 C 125.726 86.406,126.273 85.516,126.588 85.000 C 130.631 78.388,138.785 69.612,145.729 64.398 C 146.531 63.796,147.371 63.153,147.596 62.970 C 152.180 59.233,163.768 53.330,171.250 50.919 C 172.109 50.643,173.234 50.279,173.750 50.112 C 174.999 49.707,178.645 48.746,179.688 48.546 C 180.146 48.459,181.224 48.242,182.083 48.065 C 185.051 47.454,187.195 47.103,189.375 46.871 C 190.578 46.743,192.219 46.563,193.021 46.471 C 195.142 46.226,204.996 46.216,207.188 46.457 M182.349 88.023 C 172.603 90.141,169.213 105.205,176.682 113.202 C 184.296 121.356,196.094 114.724,196.094 102.292 C 196.094 93.225,189.571 86.454,182.349 88.023 " stroke="none" fill="#252535" fill-rule="evenodd"></path><path id="path3" d="M192.917 46.480 C 187.534 47.086,185.580 47.344,185.063 47.515 C 184.438 47.721,185.708 47.629,188.333 47.276 C 191.673 46.827,195.879 46.581,200.208 46.581 C 204.538 46.581,208.744 46.827,212.083 47.276 C 214.677 47.624,215.975 47.720,215.368 47.519 C 214.834 47.341,211.932 46.964,207.256 46.465 C 204.903 46.214,195.189 46.224,192.917 46.480 M181.979 48.052 C 181.292 48.211,180.307 48.423,179.792 48.525 C 178.209 48.835,173.874 50.025,173.542 50.240 C 173.180 50.474,173.740 50.388,175.104 50.001 C 175.884 49.779,176.300 49.672,178.281 49.182 C 178.711 49.075,180.188 48.746,181.563 48.450 C 182.938 48.154,184.156 47.873,184.271 47.826 C 184.762 47.626,183.124 47.787,181.979 48.052 M216.283 47.811 C 216.339 47.867,217.503 48.147,218.870 48.434 C 221.246 48.933,223.063 49.373,225.679 50.086 C 226.938 50.429,231.056 51.770,231.771 52.070 C 232.000 52.166,233.313 52.696,234.688 53.248 C 248.417 58.753,261.239 68.458,270.031 80.000 C 271.495 81.923,274.167 85.775,274.167 85.964 C 274.167 86.029,274.351 86.340,274.576 86.657 C 275.228 87.572,277.147 91.024,278.067 92.936 C 280.058 97.073,281.138 99.767,282.319 103.542 C 283.064 105.921,283.299 106.503,283.319 106.012 C 283.369 104.817,280.295 96.830,278.082 92.404 C 267.087 70.415,244.508 53.319,219.896 48.348 C 219.208 48.209,218.307 48.009,217.892 47.902 C 217.091 47.696,216.113 47.640,216.283 47.811 M171.250 50.871 C 162.129 54.158,152.134 59.271,147.596 62.970 C 147.371 63.153,146.531 63.796,145.729 64.398 C 138.785 69.612,130.631 78.388,126.588 85.000 C 126.273 85.516,125.726 86.406,125.372 86.979 C 123.924 89.326,121.807 93.428,120.263 96.875 C 119.033 99.624,116.552 107.281,116.731 107.778 C 116.779 107.912,116.930 107.599,117.067 107.083 C 117.495 105.469,118.160 103.247,118.344 102.813 C 118.441 102.583,118.657 101.974,118.825 101.458 C 120.956 94.885,127.983 82.057,131.036 79.167 C 131.096 79.109,131.515 78.594,131.966 78.021 C 137.041 71.576,146.670 63.275,153.830 59.173 C 154.187 58.968,155.089 58.451,155.833 58.024 C 158.236 56.646,165.060 53.399,166.563 52.920 C 167.021 52.774,167.490 52.589,167.604 52.510 C 167.719 52.431,168.234 52.239,168.750 52.083 C 169.266 51.927,169.781 51.739,169.896 51.664 C 170.010 51.589,170.784 51.318,171.615 51.062 C 172.445 50.805,173.125 50.556,173.125 50.506 C 173.125 50.322,172.360 50.471,171.250 50.871 M176.761 91.094 L 175.938 91.979 176.823 91.156 C 177.646 90.390,177.804 90.208,177.646 90.208 C 177.612 90.208,177.214 90.607,176.761 91.094 M191.771 91.042 C 192.218 91.500,192.631 91.875,192.689 91.875 C 192.746 91.875,192.427 91.500,191.979 91.042 C 191.532 90.583,191.119 90.208,191.061 90.208 C 191.004 90.208,191.323 90.583,191.771 91.042 M283.433 107.135 C 283.516 107.508,283.674 108.188,283.783 108.646 C 284.737 112.654,285.314 116.353,285.666 120.708 C 285.894 123.529,285.947 123.823,285.999 122.553 C 286.116 119.663,284.956 111.771,283.763 107.339 C 283.486 106.310,283.210 106.140,283.433 107.135 M116.090 110.045 C 115.348 113.439,115.174 114.519,114.588 119.375 C 114.308 121.695,114.311 130.575,114.592 133.229 C 115.034 137.402,116.294 144.375,116.607 144.375 C 116.719 144.375,116.625 143.764,116.222 141.875 C 115.733 139.579,115.516 138.256,115.011 134.479 C 114.431 130.148,114.533 120.545,115.203 116.458 C 115.306 115.828,115.496 114.609,115.626 113.750 C 115.756 112.891,115.943 111.859,116.041 111.458 C 116.492 109.610,116.724 108.322,116.623 108.221 C 116.563 108.160,116.323 108.981,116.090 110.045 M176.771 113.542 C 177.218 114.000,177.631 114.375,177.689 114.375 C 177.746 114.375,177.427 114.000,176.979 113.542 C 176.532 113.083,176.119 112.708,176.061 112.708 C 176.004 112.708,176.323 113.083,176.771 113.542 M191.761 113.594 L 190.938 114.479 191.823 113.656 C 192.646 112.890,192.804 112.708,192.646 112.708 C 192.612 112.708,192.214 113.107,191.761 113.594 M285.764 130.833 C 285.487 134.658,285.040 137.980,284.375 141.146 C 284.279 141.604,284.089 142.542,283.953 143.229 C 283.817 143.917,283.631 144.714,283.541 145.000 C 283.450 145.286,283.215 146.083,283.019 146.771 C 282.823 147.458,282.297 149.113,281.852 150.448 C 281.032 152.904,280.881 153.527,281.267 152.864 C 283.169 149.598,286.222 134.791,286.003 129.896 C 285.942 128.533,285.926 128.594,285.764 130.833 M116.667 144.782 C 116.667 144.890,116.815 145.523,116.997 146.188 C 117.179 146.852,117.403 147.677,117.495 148.021 C 117.587 148.365,118.102 149.865,118.640 151.354 C 119.177 152.844,119.667 154.227,119.729 154.427 C 119.790 154.628,119.919 154.792,120.015 154.792 C 120.111 154.792,119.948 154.159,119.653 153.385 C 118.575 150.558,117.718 147.912,117.087 145.469 C 116.877 144.652,116.667 144.309,116.667 144.782 M280.625 153.855 C 280.503 154.174,280.355 154.515,280.294 154.613 C 280.233 154.711,280.262 154.792,280.359 154.792 C 280.560 154.792,281.082 153.513,280.940 153.370 C 280.888 153.318,280.746 153.536,280.625 153.855 " stroke="none" fill="#428a96" fill-rule="evenodd"></path><path id="path4" d="M196.193 76.609 C 196.563 76.655,197.219 76.655,197.652 76.610 C 198.084 76.565,197.781 76.528,196.979 76.527 C 196.177 76.526,195.823 76.563,196.193 76.609 M193.492 76.814 C 193.751 76.864,194.126 76.862,194.325 76.810 C 194.525 76.758,194.313 76.717,193.854 76.719 C 193.396 76.722,193.233 76.764,193.492 76.814 M199.742 76.814 C 200.001 76.864,200.376 76.862,200.575 76.810 C 200.775 76.758,200.563 76.717,200.104 76.719 C 199.646 76.722,199.483 76.764,199.742 76.814 M190.658 77.122 C 189.195 77.448,189.795 77.523,191.370 77.210 C 192.163 77.053,192.531 76.923,192.188 76.922 C 191.844 76.921,191.156 77.011,190.658 77.122 M201.875 77.062 C 203.143 77.375,204.306 77.502,203.934 77.288 C 203.748 77.181,203.045 77.046,202.371 76.988 C 201.415 76.905,201.306 76.921,201.875 77.062 M188.154 77.739 C 187.769 77.850,187.495 77.981,187.544 78.030 C 187.594 78.080,188.049 77.990,188.557 77.831 C 189.593 77.506,189.242 77.426,188.154 77.739 M204.896 77.691 C 205.125 77.781,205.594 77.912,205.938 77.981 L 206.563 78.108 205.938 77.813 C 205.594 77.651,205.125 77.521,204.896 77.523 L 204.479 77.526 204.896 77.691 M185.938 78.545 C 185.472 78.774,185.334 78.898,185.625 78.827 C 186.427 78.629,187.434 78.160,187.083 78.147 C 186.911 78.141,186.396 78.320,185.938 78.545 M207.292 78.438 C 208.243 78.804,208.617 78.798,207.813 78.430 C 207.469 78.273,207.047 78.147,206.875 78.150 C 206.703 78.154,206.891 78.283,207.292 78.438 M208.570 78.848 C 208.758 79.035,210.208 79.588,210.208 79.471 C 210.208 79.407,209.883 79.218,209.486 79.052 C 208.761 78.749,208.388 78.666,208.570 78.848 M183.106 79.769 C 181.382 80.642,179.167 82.008,179.167 82.197 C 179.167 82.340,179.564 82.126,180.020 81.735 C 180.204 81.579,181.422 80.892,182.729 80.210 C 184.035 79.527,185.010 78.968,184.896 78.968 C 184.781 78.968,183.976 79.328,183.106 79.769 M211.781 80.382 C 212.182 80.735,214.010 81.710,213.882 81.503 C 213.733 81.263,211.993 80.208,211.744 80.208 C 211.656 80.208,211.672 80.287,211.781 80.382 M214.167 81.734 C 214.167 81.784,214.706 82.224,215.365 82.713 C 216.023 83.201,216.914 83.934,217.344 84.342 C 217.773 84.751,218.125 84.999,218.125 84.894 C 218.125 84.690,217.655 84.270,215.833 82.845 C 214.594 81.876,214.167 81.590,214.167 81.734 M176.636 84.120 C 173.498 86.972,168.835 93.280,169.427 93.871 C 169.482 93.927,169.789 93.438,170.109 92.785 C 171.289 90.373,173.195 87.825,175.661 85.365 C 177.011 84.018,178.080 82.917,178.037 82.917 C 177.994 82.917,177.363 83.458,176.636 84.120 M218.342 85.075 C 218.337 85.173,218.797 85.735,219.364 86.325 C 220.231 87.226,221.797 89.209,222.869 90.762 C 223.092 91.086,223.096 91.065,222.895 90.625 C 222.385 89.509,218.366 84.610,218.342 85.075 M223.757 92.408 C 223.753 92.529,223.888 92.811,224.056 93.033 C 224.224 93.256,224.365 93.338,224.368 93.217 C 224.372 93.096,224.237 92.814,224.069 92.592 C 223.901 92.369,223.760 92.287,223.757 92.408 M224.390 93.646 C 224.390 93.760,224.524 94.089,224.688 94.375 C 224.851 94.661,224.985 94.802,224.985 94.688 C 224.985 94.573,224.851 94.245,224.688 93.958 C 224.524 93.672,224.390 93.531,224.390 93.646 M168.992 94.607 C 168.582 95.703,168.572 96.092,168.977 95.242 C 169.214 94.744,169.356 94.286,169.293 94.223 C 169.230 94.160,169.094 94.333,168.992 94.607 M225.132 95.417 C 225.329 96.218,225.798 97.226,225.811 96.875 C 225.817 96.703,225.638 96.188,225.413 95.729 C 225.184 95.264,225.060 95.126,225.132 95.417 M168.125 97.083 C 167.818 98.223,167.981 98.386,168.314 97.273 C 168.455 96.802,168.523 96.371,168.466 96.313 C 168.408 96.255,168.255 96.602,168.125 97.083 M225.844 97.396 C 225.842 97.510,225.980 98.073,226.149 98.646 L 226.456 99.688 226.346 98.770 C 226.247 97.954,225.850 96.865,225.844 97.396 M167.635 98.682 C 167.574 98.891,167.474 99.531,167.413 100.104 C 167.309 101.081,167.321 101.063,167.610 99.810 C 167.888 98.602,167.907 97.753,167.635 98.682 M226.629 100.938 C 226.707 101.625,226.771 103.594,226.771 105.313 C 226.771 107.031,226.707 109.000,226.629 109.688 C 226.509 110.738,226.523 110.838,226.718 110.313 C 226.862 109.926,226.951 108.017,226.951 105.313 C 226.951 102.608,226.862 100.699,226.718 100.313 C 226.523 99.787,226.509 99.887,226.629 100.938 M167.009 102.240 C 166.843 103.244,166.875 107.873,167.052 108.501 C 167.127 108.765,167.188 107.288,167.188 105.219 C 167.188 101.072,167.191 101.135,167.009 102.240 M167.427 110.625 C 167.493 111.255,167.627 111.911,167.725 112.083 C 167.976 112.522,167.945 112.175,167.603 110.729 L 167.308 109.479 167.427 110.625 M226.157 111.786 C 226.080 112.195,225.962 112.687,225.895 112.879 C 225.811 113.119,225.841 113.163,225.990 113.021 C 226.212 112.807,226.575 111.042,226.396 111.042 C 226.341 111.042,226.234 111.376,226.157 111.786 M168.047 113.125 C 168.190 113.951,168.536 114.715,168.519 114.167 C 168.514 113.995,168.377 113.526,168.215 113.125 L 167.920 112.396 168.047 113.125 M225.209 114.844 C 224.950 115.560,224.373 116.872,223.929 117.760 C 223.087 119.442,222.979 119.906,223.723 118.645 C 224.474 117.372,226.011 113.542,225.771 113.542 C 225.721 113.542,225.469 114.128,225.209 114.844 M168.664 115.000 C 168.740 115.286,168.934 115.755,169.096 116.042 L 169.390 116.563 169.252 116.042 C 169.177 115.755,168.982 115.286,168.821 115.000 L 168.526 114.479 168.664 115.000 M169.469 117.031 C 169.740 117.743,171.055 119.984,171.285 120.126 C 171.414 120.205,171.264 119.858,170.952 119.354 C 170.639 118.850,170.200 118.039,169.974 117.552 C 169.577 116.694,169.188 116.294,169.469 117.031 M221.944 121.094 C 220.237 123.530,218.358 125.496,215.417 127.927 C 215.010 128.263,214.991 128.311,215.329 128.148 C 216.908 127.389,221.834 122.120,222.898 120.052 C 223.326 119.222,223.027 119.548,221.944 121.094 M171.469 120.485 C 171.399 121.585,177.547 127.618,180.521 129.368 C 181.728 130.078,181.181 129.605,179.366 128.370 C 176.717 126.565,173.689 123.534,171.834 120.828 C 171.639 120.545,171.475 120.390,171.469 120.485 M213.582 129.091 C 212.153 130.032,209.160 131.509,207.747 131.972 C 207.138 132.171,206.691 132.385,206.753 132.447 C 207.052 132.747,212.958 129.964,214.167 128.954 C 215.124 128.154,214.940 128.197,213.582 129.091 M181.563 129.972 C 181.836 130.239,184.541 131.574,185.208 131.772 C 186.058 132.024,185.641 131.783,183.438 130.748 C 182.292 130.210,181.448 129.861,181.563 129.972 M185.938 132.033 C 186.052 132.146,186.427 132.298,186.771 132.372 C 187.488 132.525,187.091 132.228,186.250 131.981 C 185.908 131.881,185.801 131.898,185.938 132.033 M187.708 132.680 C 187.880 132.789,188.396 132.936,188.854 133.006 C 189.423 133.092,189.555 133.074,189.271 132.947 C 188.631 132.663,187.331 132.441,187.708 132.680 M205.208 132.829 L 204.271 133.117 205.104 132.998 C 205.563 132.932,206.078 132.796,206.250 132.696 C 206.683 132.442,206.314 132.489,205.208 132.829 M191.095 133.542 C 191.411 133.637,192.395 133.765,193.283 133.827 L 194.896 133.939 193.125 133.655 C 191.081 133.326,190.218 133.278,191.095 133.542 M200.729 133.663 L 199.063 133.935 200.676 133.825 C 202.280 133.715,204.099 133.355,202.917 133.381 C 202.630 133.387,201.646 133.514,200.729 133.663 " stroke="none" fill="#91d3e0" fill-rule="evenodd"></path></g></svg>